<?xml version="1.0" encoding="utf-8"?>
<!-- Generator: Adobe Illustrator 24.2.0, SVG Export Plug-In . SVG Version: 6.00 Build 0)  -->
<svg version="1.1" xmlns="http://www.w3.org/2000/svg" xmlns:xlink="http://www.w3.org/1999/xlink" x="0px" y="0px"
	 viewBox="0 0 500 500" style="enable-background:new 0 0 500 500;" xml:space="preserve">
<style type="text/css">
	.st0{fill:#E48D27;}
	.st1{fill:#FFFFFF;}
	.st2{fill:#186484;}
	.st3{fill:#F7F7F7;}
	.st4{fill:#30876B;}
	.st5{fill:#DDA692;}
	.st6{fill:#A35D4F;}
	.st7{fill:#D37863;}
	.st8{fill:#FED0BA;}
	.st9{fill:#2D171B;}
	.st10{fill:#E04E4E;}
	.st11{fill:#C40C49;}
	.st12{fill:#F57C1A;}
	.st13{fill:#5B3437;}
	.st14{fill:#49282C;}
	.st15{fill:#FC0042;}
	.st16{fill:#00DA81;}
</style>
<g id="BACKGROUND">
</g>
<g id="OBJECTS">
	
		<ellipse transform="matrix(0.7071 -0.7071 0.7071 0.7071 -99.9532 248.5088)" class="st0" cx="250" cy="244.91" rx="218.95" ry="218.95"/>
	<path class="st1" d="M118.95,189.08c0.78,0.38,1.97,0.99,3.36,1.85c14.63,9.02,12.47,21.41,22.31,28.64
		c12.46,9.16,35.2,3.48,35.2,3.48l0,0c0,0,2.53,14.56,1.26,17.23c-1.26,2.68-45.19,1.1-50.56-5.86
		c-5.37-6.95-14.96-32.79-14.96-32.79L118.95,189.08z"/>
	<path class="st2" d="M84.47,244.96c0,0-7.68,18.95-11.53,51.46c-3.85,32.51-6.68,111.51-6.68,111.51l25.02,16.08l-10.3-23.42
		l18.64-81.45l7.93,83.2l32.85,0.35l-18.18-10.84l-1.07-144.42L84.47,244.96z"/>
	<path class="st3" d="M96.94,183.25c-0.27,0.07-1.87,0.56-5.06,1.53c-10.92,3.33-11.94,3.8-12.93,4.69
		c-1.25,1.13-3.99,4.28-3.29,12.46c2.76,14.82,5.52,29.64,8.27,44.46c2.29,2.01,6.6,5.2,12.8,6.57c12.62,2.79,22.66-4.24,24.43-5.53
		c0,0,12.78-41.17,0-56.99C107.46,181.68,100.01,182.46,96.94,183.25z"/>
	<path class="st4" d="M111,192.18c-1.06-1.52-2.13-3.04-3.19-4.56c-1.06,1.61-2.13,3.22-3.19,4.83l2.93,3.79
		c0.39,7.17,0.56,14.78,0.44,22.78c-0.08,5.47-0.3,10.75-0.62,15.82c0.91,1.81,1.81,3.63,2.72,5.44c0.95-1.89,1.9-3.79,2.84-5.69
		c0.44-5.09,0.58-11.14,0-17.92c-0.69-8.01-2.22-14.9-3.84-20.43C109.74,194.89,110.37,193.54,111,192.18z"/>
	<polygon class="st2" points="122.23,391.85 121.16,247.43 99.63,319.14 107.56,402.34 140.41,402.69 	"/>
	<g>
		<path class="st5" d="M99.71,172.81l-1.92,14.92c2.83,2.29,13.25-1.05,13.25-1.05l-0.36-2.96
			C102.39,183.8,99.71,172.81,99.71,172.81z"/>
		<polygon class="st6" points="110.14,179.3 110.68,183.73 110.68,183.73 		"/>
		<path class="st7" d="M99.71,172.81c0,0,2.68,10.99,10.97,10.92l-0.54-4.43L99.71,172.81z"/>
	</g>
	<path class="st8" d="M111.53,140.41c-7.92-3.72-18.23-0.74-23.03,5.76c-4.56,6.18-2.82,13.19-2.57,14.15
		c1.89,7.45,8.89,11.09,8.89,11.09s8.81,7.7,11.73,8.16c1.07,0.3,4.31,1.07,7.63-0.41c4-1.79,6.48-6.11,6.23-10.92
		c-1.5,0.34-2.97-0.02-3.76-0.97c-0.39-0.47-0.53-0.98-0.59-1.36c3.34,1.1,4.94-0.88,4.94-0.88l-0.05-6.46
		c0.16-1.19,0.25-2.68,0.11-4.4c-0.16-1.87-0.56-3.44-0.96-4.65C119.41,147.9,117.06,143.01,111.53,140.41z"/>
	<path class="st9" d="M114.74,159.25c-0.03,1.41-0.6,2.55-1.28,2.53c-0.68-0.01-1.21-1.17-1.18-2.58c0.03-1.41,0.6-2.55,1.28-2.53
		C114.23,156.68,114.76,157.84,114.74,159.25z"/>
	<path class="st10" d="M115.56,153.28c0,0-3.87-1.98-7.68,3.41C107.89,156.69,114.64,152.96,115.56,153.28z"/>
	<path class="st7" d="M97.27,165.25c0,0-0.01-2.75-2.71-2.76C91.85,162.48,95.45,163.31,97.27,165.25z"/>
	<path class="st1" d="M108.16,187.22c-1.26,2.47-2.52,4.93-3.78,7.4c0,0-10.83,0.06-12.62-10.46c2.26-0.72,4.51-1.43,6.77-2.15
		c0.19,0.76,0.48,1.36,0.79,1.83C101.71,187.59,107.51,187.27,108.16,187.22z"/>
	<path class="st1" d="M111.77,194.13c0,0,7.69-3.44,5.71-7.83c-2.25-0.75-4.5-1.51-6.76-2.26c0.03,0.24,0.06,0.68-0.09,1.19
		c-0.02,0.07-0.18,0.59-0.57,1.05c-0.88,1.02-2.32,0.98-2.52,0.97C108.95,189.54,110.36,191.83,111.77,194.13z"/>
	<path class="st11" d="M115.71,141.58c-2.8-1.34-7.83-3.27-14.28-3.24c-4.48,0.02-9.99,0.05-14.38,3.91
		c-4.88,4.3-6.26,11.5-5.01,16.97c2.5,10.99,15.71,15.61,17.91,16.38c0.06,0.02,0.1,0.04,0.14,0.05l-3.42-4.85
		c-4.63,0.71-6.74-7.11-4.19-10.05c2.55-2.94,9.1,4.48,9.1,4.48l0.64-11.27c0,0,8,1.36,7.04-5.11
		C109.26,148.86,126.23,148.6,115.71,141.58z"/>
	<path class="st7" d="M150.3,192.51c-0.27-0.36-0.51-0.5-0.71-0.48c-0.95,0.11-0.63,3.18-2.33,5.89c-0.83,1.32-1.6,1.69-2.65,2.4
		c3.08-1.13,5.68-1.2,5.68-1.2S152.14,194.92,150.3,192.51z"/>
	<path class="st8" d="M357.86,411.37H170.81c-11.35,0-20.55-9.2-20.55-20.55V105.59c0-11.35,9.2-20.55,20.55-20.55h187.04
		c11.35,0,20.55,9.2,20.55,20.55v285.23C378.4,402.17,369.2,411.37,357.86,411.37z"/>
	<g>
		<g>
			<path class="st12" d="M220.52,164.74h-49.51v-49.51h49.51V164.74z M174.4,161.35h42.73v-42.73H174.4V161.35z"/>
		</g>
		<g>
			<path class="st12" d="M220.52,236.89h-49.51v-49.51h49.51V236.89z M174.4,233.5h42.73v-42.73H174.4V233.5z"/>
		</g>
		<g>
			<path class="st12" d="M220.52,309.03h-49.51v-49.51h49.51V309.03z M174.4,305.64h42.73v-42.73H174.4V305.64z"/>
		</g>
		<g>
			<path class="st12" d="M220.52,381.18h-49.51v-49.51h49.51V381.18z M174.4,377.79h42.73v-42.73H174.4V377.79z"/>
		</g>
	</g>
	<rect x="231.35" y="125.79" class="st11" width="125.19" height="27.81"/>
	<rect x="231.35" y="198.86" class="st11" width="125.19" height="27.81"/>
	<rect x="235.84" y="271.6" class="st11" width="125.19" height="27.81"/>
	<rect x="235.84" y="344.67" class="st11" width="125.19" height="27.81"/>
	<path class="st1" d="M182.84,120.53c3.29,8.22,6.58,16.44,9.87,24.67c8.79-13.78,17.59-27.56,26.38-41.35l6.83-1.12l-35.14,56.69
		c-4.14-10.42-8.29-20.85-12.43-31.27C179.84,125.61,181.34,123.07,182.84,120.53z"/>
	<path class="st1" d="M182.84,193.57c3.29,8.22,6.58,16.44,9.87,24.67c8.79-13.78,17.59-27.56,26.38-41.35l6.83-1.12l-35.14,56.69
		c-4.14-10.42-8.29-20.85-12.43-31.27C179.84,198.64,181.34,196.11,182.84,193.57z"/>
	<g>
		<path class="st8" d="M150.3,199.12c0,0-2.6,0.08-5.68,1.2c-0.56,0.38-1.19,0.85-1.96,1.63c-1.12,1.13-2.51,2.89-3.61,5.58
			l4.97,6.41l3.65-1c0,0,16.23-3.01,17.83-10.02C167.1,195.92,150.3,199.12,150.3,199.12z"/>
		<polygon class="st8" points="150.27,202.12 157.2,200.07 162.99,199.53 		"/>
		<polygon class="st8" points="152.01,205.19 158.77,202.84 164.92,201.64 		"/>
		<path class="st8" d="M153.66,207.79c0.18,0,6.21-2.59,6.21-2.59l4.46-1.09L153.66,207.79z"/>
	</g>
	<path class="st1" d="M82.71,188.22c3.02-0.19,8.19,0.23,14.15,11.4c3.96,7.43,7.36,17.13,13.02,17.09
		c5.66-0.04,31.12-14.25,31.12-14.25s6.23,7.72,5.66,12.66c0,0-30.56,22.72-37.92,24.58c0,0-18.07-2.04-33.39-33.1
		c-0.72-1.46-1.12-3.02-1.14-3.12c-0.43-1.72-1.59-6.38,1.04-10.44C75.42,192.78,78.27,188.51,82.71,188.22z"/>
	<g id="Person_with_Pen">
		<g>
			<path class="st13" d="M370.89,211.09l1.92,14.92c-2.83,2.29-13.25-1.05-13.25-1.05l0.36-2.96
				C368.21,222.08,370.89,211.09,370.89,211.09z"/>
			<polygon class="st6" points="360.46,217.58 359.91,222.01 359.91,222.01 			"/>
			<path class="st14" d="M370.89,211.09c0,0-2.68,10.99-10.97,10.92l0.54-4.43L370.89,211.09z"/>
		</g>
		<path class="st1" d="M359.06,178.7c7.92-3.72,18.23-0.74,23.03,5.76c4.56,6.18,2.82,13.19,2.57,14.15
			c-1.89,7.45-8.88,11.09-8.88,11.09s-8.81,7.7-11.73,8.16c-1.07,0.3-4.31,1.07-7.63-0.41c-4-1.79-6.48-6.11-6.23-10.92
			c0-1.07,0-2.13,0-3.2c-0.18-2.16-0.37-4.32-0.55-6.47c-0.16-1.19-0.25-2.68-0.11-4.4c0.16-1.87,0.56-3.44,0.96-4.65
			C351.18,186.18,353.53,181.29,359.06,178.7z"/>
		<path class="st9" d="M349.46,192.25c0,0,2.44-1.25,5.04,2.56C354.5,194.81,350.04,192.06,349.46,192.25z"/>
		<path class="st15" d="M383.5,232.45c0,0,28.48,34.03,29.4,41.46c0.93,7.43-43.34,10.36-43.34,10.36L383.5,232.45z"/>
		<g>
			<path class="st16" d="M459.8,300.85l-112.49-60.46l-14.54,27.04l112.49,60.46c3.81,2.05,8.55,0.62,10.6-3.19l7.13-13.26
				C465.03,307.64,463.61,302.9,459.8,300.85z"/>
			<path class="st16" d="M470.6,314.08l-14.74-7.92l-8.35,15.53l14.74,7.92c3.41,1.83,7.65,0.55,9.49-2.85l1.72-3.19
				C475.28,320.15,474.01,315.91,470.6,314.08z"/>
			<path class="st16" d="M448.84,325.26c-20.98,8.84-34.11,6.78-42.14,3.41c-18.45-7.73-30.4-30.88-50.53-39.6
				c-1.59-0.69-6-2.49-5.77-3.48c0.34-1.43,10.37-0.85,17.72,1.05c15.46,4,21.97,14.63,31.3,22.52
				C408.02,316.41,422.7,324.47,448.84,325.26z"/>
			<g>
				<polygon class="st16" points="254.68,210.76 256.96,206.51 283.9,208.87 271.5,231.94 				"/>
				<path class="st16" d="M261.63,210.86l-8.34-4.48c-0.39-0.21-0.87-0.06-1.07,0.32l0,0c-0.21,0.39-0.06,0.87,0.32,1.07l8.34,4.48
					L261.63,210.86z"/>
			</g>
			
				<rect x="272.35" y="228.57" transform="matrix(0.8808 0.4735 -0.4735 0.8808 152.2265 -121.4039)" class="st16" width="89.81" height="26.19"/>
		</g>
		<path class="st15" d="M359.55,224.97c0,0-15.02,15.14-16.91,22.07c-1.89,6.93,4.62,54.8,4.62,54.8l12.29,130.38
			c0,0-17.12,6.09-19.64,11.76h33.38l2.73-76.42l1.05-23.72c0,0,12.39-12.39,11.34-24.56c-1.05-12.18-6.72-27.71-6.72-27.71
			c2.75-32.08,1.96-55.55-0.42-59.62c-2.22-3.81-5.34-5.85-5.34-5.85c-1.34-0.87-2.56-1.37-3.33-1.63
			c-1.81,0.83-5.36,2.12-9.67,1.45C361.64,225.69,360.51,225.35,359.55,224.97z"/>
		<path class="st2" d="M387.89,321.17L405.55,436h-29.44c0,0,3.6-5.23,17.34-7.2l-23.88-77.54l18.84-32.01"/>
		<path class="st1" d="M312.83,252.3c0,0-1.99-2.41-3.59-4.09c-1.6-1.68-4.8-7.25-4.8-7.25s-2.33,0.92-1.6,3.83
			c0.73,2.91,1.74,5.23,1.74,5.23l-11.78-8.14c0,0,3.11,14.1,5.63,15.27c2.52,1.16,12.55,7.56,12.55,7.56L312.83,252.3z"/>
		<path class="st2" d="M381.69,291.54c0.01-0.09,0.01-0.18,0.02-0.27c-8.08,1.91-24.68,5.73-34.88,7.36
			c0.26,2.01,0.42,3.19,0.42,3.19l12.29,130.38c0,0-17.12,6.09-19.64,11.76h33.38l2.73-76.42l1.05-23.72
			c0,0,12.39-12.39,11.34-24.56C387.36,307.08,381.69,291.54,381.69,291.54z"/>
		<path class="st15" d="M365.4,226.82c0,0-24.51,29.36-31.76,29.92c-7.25,0.56-20.08-6.14-20.08-6.14l-5.86,13.67
			c17.72,13.27,29.33,13.9,36.82,11.72c0,0,6.92-2.02,30.65-27.78l0,0C375.17,248.2,383.49,222.85,365.4,226.82z"/>
		<path class="st2" d="M391.97,234.69c0,0,2.42-10.49-0.81-13.72c0,0,4.96-7.29,0.46-11.65c0,0,1.15-6.21-1.73-9.21
			c-1.11-10.75-6.41-18.13-11.77-20.76c-1.93-1.14-3.82-1.83-4.8-2.15c-0.44-0.14-0.7-0.21-0.7-0.21
			c-4.87-1.41-10.28-1.07-14.73,1.29c-2.1,1.11-3.71,2.54-4.95,3.97c-0.04,2.83,4.39,1.6,4.39,1.6c1.6-0.07,3.57,0.08,4.21,1.23
			c0.72,1.31-0.7,3.15-1.5,4.89c-1.13,2.44-1.79,6.29,0.41,12.45c0,0-8.93,17.99-3.92,25.71c0,0-10.44,13.94,1.78,15.9
			c0,0-2.08,11.48,7.09,11.04c0,0,6.4,9.71,14.7,8.09c8.3-1.61,5.09-5.42,5.09-5.42s5.28,1.27,4.71-5.42
			C389.9,252.33,397.74,241.95,391.97,234.69z"/>
	</g>
</g>
</svg>
