<?xml version="1.0" encoding="utf-8"?>
<!-- Generator: Adobe Illustrator 26.1.0, SVG Export Plug-In . SVG Version: 6.00 Build 0)  -->
<svg version="1.1" id="Capa_1" xmlns="http://www.w3.org/2000/svg" xmlns:xlink="http://www.w3.org/1999/xlink" x="0px" y="0px"
	 viewBox="0 0 715.1 761.8" style="enable-background:new 0 0 715.1 761.8;" xml:space="preserve">
<style type="text/css">
	.st0{fill:#6BAAA7;}
	.st1{fill:#9DDE91;}
	.st2{fill:#4B6380;}
	.st3{fill:#263F61;}
	.st4{fill:#FFFFFF;}
	.st5{fill:#99CADA;}
	.st6{fill:#E29643;}
	.st7{fill:#C7513D;}
	.st8{fill:#C93312;}
	.st9{fill:#9B1C41;}
	.st10{fill:#5E152B;}
	.st11{fill:#152230;}
</style>
<g id="BACKGROUND">
</g>
<g id="OBJECTS">
	<g>
		<g>
			<path class="st0" d="M526.5,88.6c1,4.7,1.4,9.4,1.4,13.9c0,3.8-0.4,7.4-1.1,10.7c0,0.2-0.1,0.5-0.1,0.7
				c-2.8,13.7-9.9,23.7-13.9,28.8c-0.1,0.2-0.2,0.3-0.3,0.4c-0.1,0-0.2-0.1-0.3-0.1c-22.9-9.3-33.4-21.4-38.8-31.3
				c-8-14.8-6.1-27.5-16.5-35.1c-9.2-6.8-21.9-5.1-31.1-2.7c0,0,0,0,0,0c-0.4,0.1-0.9,0.2-1.3,0.4c-0.1,0-0.1,0-0.2,0
				c5.5-11.9,13.9-21.6,23.7-28c0.2-0.1,0.4-0.3,0.7-0.4c6.6-4.2,13.8-6.8,21.1-7.7c0.3,0,0.5-0.1,0.8-0.1c2-0.2,4.1-0.3,6.1-0.2
				c4.1,0.1,8,0.9,11.7,2.1c0.2,0.1,0.4,0.1,0.6,0.2c12.8,4.5,23.1,14.8,29.9,27.3c0.1,0.2,0.2,0.4,0.3,0.6c3.4,6.3,5.9,13.2,7.3,20
				C526.4,88.2,526.5,88.4,526.5,88.6z"/>
			<g>
				<g>
					<path class="st1" d="M512.4,125.2c0.1,0.7,0.1,1.5,0.2,2.2c0,0,0,0,0,0c0.4,5,0.5,10.1,0.2,15.3c-0.1,0.2-0.2,0.3-0.3,0.4
						c-0.1,0-0.2-0.1-0.3-0.1c0.2-5.3,0.2-10.5-0.2-15.6c0,0,0,0,0-0.1c0,0,0,0,0,0c-1.2-15.1-5.1-29.2-11.6-41.1
						c-9.1-16.7-22.1-27.2-35.8-28.9c-3.8-0.5-7.6-0.2-11.3,0.6c-0.1,0-0.2,0-0.3,0.1c-11.2,2.5-21.1,10-27.3,15.9c0,0,0,0,0,0
						c-0.4,0.1-0.9,0.2-1.3,0.4c4.1-4,8.5-7.4,12.8-10.1c5.2-3.3,10.3-5.5,15.3-6.7c0.2,0,0.5-0.1,0.7-0.2c3.9-0.9,7.7-1,11.4-0.6
						c0.9,0.1,1.8,0.3,2.7,0.4v0c0.3,0,0.5,0.1,0.8,0.2c4.7,1.1,9.4,3.2,13.7,6.3c0.3,0.2,0.6,0.4,0.9,0.7c6.2,4.6,11.9,11,16.6,19
						v0c0.2,0.3,0.3,0.5,0.5,0.8c0.3,0.6,0.7,1.2,1,1.8c2.9,5.2,5.2,10.9,7.1,16.9v0c0.1,0.4,0.3,0.8,0.4,1.2
						C510.3,110.8,511.7,117.9,512.4,125.2z"/>
				</g>
				<g>
					<path class="st1" d="M470.5,38c-0.4,0.6-0.8,1.3-1.3,1.9c-1.4,2-2.8,3.9-3.4,6.9c-0.7,3.2,0.1,6.8,2.3,10.6c0,0,0,0,0,0.1
						l-0.5,0.3c-0.1-0.2-0.2-0.4-0.3-0.6c-2.1-3.8-2.8-7.3-2.1-10.6c0.7-3.1,2.1-5.1,3.5-7.1c0.3-0.5,0.7-0.9,1-1.4
						C469.9,38.1,470.2,38,470.5,38z"/>
				</g>
				<g>
					<path class="st1" d="M453.6,57.7l-0.3,0.3l-0.2,0.2c0,0-0.1-0.1-0.1-0.1c-0.2-0.2-0.4-0.4-0.5-0.5c-2.9-3-4.5-6.2-4.6-9.5
						c0-0.6,0-1.2,0-1.8c0.2-0.1,0.4-0.3,0.7-0.4c-0.1,0.7-0.1,1.4,0,2.1c0.2,3.2,1.8,6.3,4.7,9.3C453.3,57.4,453.4,57.5,453.6,57.7
						z"/>
				</g>
				<g>
					<path class="st1" d="M488.9,40.1c-0.3,1.3-0.8,2.5-1.5,3.5c-0.7,1.2-1.5,2.2-2.4,3.2c-1.5,1.9-3,3.7-3.8,6.6
						c-0.9,3.2-0.3,6.8,1.7,10.8l-0.1,0l-0.5,0.2c-0.2-0.3-0.3-0.6-0.4-0.9c-1.7-3.8-2.2-7.2-1.3-10.3c0.9-3.1,2.4-5,4-6.9
						c0.8-1,1.6-2,2.3-3.1c0.6-1,1.1-2.2,1.4-3.4C488.5,40,488.7,40.1,488.9,40.1z"/>
				</g>
				<g>
					<path class="st1" d="M526.5,88.6c-0.8,0.5-1.6,1-2.5,1.4c-1.3,0.5-2.6,0.9-3.8,1.2c-2.3,0.6-4.6,1.2-7,3.2
						c-2.6,2.1-4.2,5.4-4.9,9.8l0,0l-0.6-0.1c0.1-0.4,0.1-0.8,0.2-1.2c0.8-4,2.5-7,4.9-9c2.5-2,4.9-2.6,7.2-3.3
						c1.2-0.3,2.5-0.7,3.7-1.2c0.9-0.4,1.7-0.9,2.5-1.5C526.4,88.2,526.5,88.4,526.5,88.6z"/>
				</g>
				<g>
					<path class="st1" d="M519,67.9c-1.1,0.9-2.2,1.6-3.5,2.2c-1.3,0.5-2.6,0.9-3.8,1.2c-2.3,0.6-4.6,1.2-7,3.2
						c-2.6,2-4.2,5.3-4.9,9.7c0,0,0,0.1,0,0.1l-0.6-0.1c0-0.3,0.1-0.6,0.1-0.8v0c0.8-4.1,2.5-7.3,5-9.3c2.5-2,4.9-2.6,7.2-3.3
						c1.2-0.3,2.5-0.7,3.7-1.2c1.2-0.5,2.4-1.2,3.4-2.2C518.8,67.6,518.9,67.8,519,67.9z"/>
				</g>
				<g>
					<path class="st1" d="M526.8,113.2c0,0.2-0.1,0.5-0.1,0.7c-0.8,0.2-1.5,0.5-2.2,0.7c-2.3,0.6-4.6,1.2-7,3.2
						c-2.6,2-4.2,5.3-4.9,9.6c0,0,0,0.1,0,0.1l-0.6-0.1h0c0,0,0,0,0-0.1c0.1-0.8,0.3-1.5,0.4-2.2c0.9-3.5,2.4-6.1,4.7-7.9
						c2.5-2,4.9-2.7,7.2-3.3C525.1,113.8,526,113.5,526.8,113.2z"/>
				</g>
			</g>
		</g>
		<ellipse class="st2" cx="76.3" cy="724.8" rx="59.7" ry="26.9"/>
		<ellipse class="st2" cx="635.9" cy="724.8" rx="59.7" ry="26.9"/>
		<path class="st2" d="M625.5,736.7c-14.8,2.2-30.1,4.3-45.8,6.3c-1.3,0.2-2.7,0.3-4,0.5c-68.1,8.3-145,13.6-229.2,12.6
			c-81.8-0.9-156.3-7.5-222.1-16.8c-1.2-0.2-2.4-0.3-3.6-0.5c-4.9-0.7-9.7-1.4-14.5-2.1c-44.6-66.2-53.8-120.5-53.7-158.2
			c0.1-65.9,28.5-83.8,31.3-168.6c2.1-64.1-14.1-76.5-11.9-138.8c2.2-64.8,19.9-117,34.3-150.7c9.1,1.1,18.2,2.2,27.3,3.3
			c1,0.1,2.1,0.3,3.2,0.4c155.5,18.8,311.1,37.7,466.6,56.5c1.1,0.1,2.2,0.3,3.4,0.4c9.8,1.2,19.5,2.4,29.3,3.5
			c9.4,25.8,19.9,64.8,17.9,111.9c-1.7,40-10.9,52-16.4,86.5c-13.3,82.7,23.3,114.8,26.9,194C665.9,614.4,660.6,668.8,625.5,736.7z"
			/>
		<g>
			<circle class="st3" cx="102.4" cy="321.4" r="14.6"/>
			<circle class="st3" cx="158.1" cy="424.9" r="14.6"/>
			
				<ellipse transform="matrix(0.2298 -0.9732 0.9732 0.2298 -347.1423 533.3199)" class="st3" cx="163.4" cy="486" rx="14.6" ry="14.6"/>
			
				<ellipse transform="matrix(0.2298 -0.9732 0.9732 0.2298 -483.6037 557.2924)" class="st3" cx="110.3" cy="584.2" rx="14.6" ry="14.6"/>
			<circle class="st3" cx="144.8" cy="613.3" r="14.6"/>
			<circle class="st3" cx="150.2" cy="677" r="14.6"/>
			<path class="st3" d="M154.1,362.5c0,5.9-4.8,10.6-10.6,10.6c-5.9,0-10.6-4.8-10.6-10.6c0-5.9,4.8-10.6,10.6-10.6
				C149.4,351.9,154.1,356.6,154.1,362.5z"/>
			<path class="st3" d="M122.3,460.7c0,5.9-4.8,10.6-10.6,10.6c-5.9,0-10.6-4.8-10.6-10.6c0-5.9,4.8-10.6,10.6-10.6
				C117.5,450.1,122.3,454.9,122.3,460.7z"/>
			<path class="st3" d="M122.3,521.8c0,5.9-4.8,10.6-10.6,10.6c-5.9,0-10.6-4.8-10.6-10.6c0-5.9,4.8-10.6,10.6-10.6
				C117.5,511.1,122.3,515.9,122.3,521.8z"/>
			<circle class="st3" cx="154.1" cy="551" r="10.6"/>
			<circle class="st3" cx="106.4" cy="651.8" r="10.6"/>
			<path class="st3" d="M183.3,589.4c0,3.7-3,6.6-6.6,6.6c-3.7,0-6.6-3-6.6-6.6c0-3.7,3-6.6,6.6-6.6
				C180.4,582.8,183.3,585.8,183.3,589.4z"/>
			<circle class="st3" cx="98.4" cy="426.2" r="5.3"/>
			<circle class="st3" cx="162.1" cy="383.7" r="5.3"/>
			<path class="st3" d="M188.6,720.8c0,2.9-2.4,5.3-5.3,5.3s-5.3-2.4-5.3-5.3s2.4-5.3,5.3-5.3S188.6,717.9,188.6,720.8z"/>
			<circle class="st3" cx="148.8" cy="710.2" r="5.3"/>
			<path class="st3" d="M109,362.5c0,2.9-2.4,5.3-5.3,5.3s-5.3-2.4-5.3-5.3s2.4-5.3,5.3-5.3S109,359.6,109,362.5z"/>
			<path class="st3" d="M148.8,322.7c0,2.9-2.4,5.3-5.3,5.3s-5.3-2.4-5.3-5.3s2.4-5.3,5.3-5.3C146.5,317.4,148.8,319.8,148.8,322.7z
				"/>
			<circle class="st3" cx="124.9" cy="296.2" r="5.3"/>
			<circle class="st3" cx="106.4" cy="710.2" r="10.6"/>
			<circle class="st3" cx="111.7" cy="397" r="10.6"/>
		</g>
		<g>
			<path class="st4" d="M579.6,743c-1.3,0.2-2.7,0.3-4,0.5c39.5-65.6,54.9-126.5,45.9-181.6c-2.7-16.2-6.7-27.8-10.9-40
				c-6-17.3-12.2-35.3-14.5-67.7c-2.8-40,2.7-66.3,8.6-94.2c4.8-23,9.8-46.8,10.4-80c0.6-32.6-3.4-65.9-11.9-99.3
				c1.1,0.1,2.2,0.3,3.4,0.4c8.3,33.3,12.2,66.5,11.7,99c-0.6,33.5-5.6,57.5-10.5,80.6c-5.8,27.7-11.3,53.8-8.5,93.3
				c2.3,32.1,8.4,49.8,14.3,67c4.1,11.8,8.3,24,11,40.5C633.6,616.7,618.5,677.6,579.6,743z"/>
		</g>
		<g>
			<path class="st4" d="M115.7,264.1c-0.8,39.2,2.9,63.2,6.4,86.5c3.8,25,7.4,48.5,4.9,87.8c-2.7,41.8-9.8,65.2-16.7,87.9
				c-6.5,21.4-12.7,41.6-13.6,74.9c-1.2,45.5,8,91.9,27.5,138.1c-1.2-0.2-2.4-0.3-3.6-0.5c-19.1-46.1-28.2-92.2-27-137.7
				c0.9-33.8,7.1-54.2,13.7-75.7c6.9-22.5,14-45.8,16.6-87.2c2.5-38.9-1.1-62.3-4.9-87.1c-3.6-23.4-7.3-47.6-6.5-87.1
				c0.9-47.1,7.9-94.3,20.9-140.3c0.4-1.2,0.7-2.5,1-3.7l3,0.9c-0.3,1.1-0.6,2.2-0.9,3.3C123.7,170,116.7,217.1,115.7,264.1z"/>
		</g>
		<g>
			<g>
				<g>
					
						<rect x="131.7" y="665.8" transform="matrix(1.966263e-03 -1 1 1.966263e-03 -496.2052 837.0472)" class="st5" width="79.2" height="2.7"/>
				</g>
				<g>
					
						<rect x="149.9" y="665.8" transform="matrix(1.966263e-03 -1 1 1.966263e-03 -478.0511 855.2519)" class="st5" width="79.2" height="2.7"/>
				</g>
				<g>
					
						<rect x="136.4" y="657.8" transform="matrix(0.8762 -0.482 0.482 0.8762 -295.926 166.4299)" class="st5" width="79.2" height="2.7"/>
				</g>
				<g>
					
						<rect x="145.2" y="673.8" transform="matrix(0.8762 -0.482 0.482 0.8762 -302.518 172.6473)" class="st5" width="79.2" height="2.7"/>
				</g>
			</g>
			<g>
				<g>
					
						<rect x="518.3" y="376.3" transform="matrix(1.966114e-03 -1 1 1.966114e-03 159.6575 915.1628)" class="st5" width="40" height="2.7"/>
				</g>
				<g>
					
						<rect x="527.5" y="376.3" transform="matrix(1.966263e-03 -1 1 1.966263e-03 168.8293 924.3511)" class="st5" width="40" height="2.7"/>
				</g>
				<g>
					
						<rect x="520.7" y="372.3" transform="matrix(0.8762 -0.482 0.482 0.8762 -113.115 306.8727)" class="st5" width="40" height="2.7"/>
				</g>
				<g>
					
						<rect x="525.2" y="380.3" transform="matrix(0.8762 -0.482 0.482 0.8762 -116.4379 310.0117)" class="st5" width="40" height="2.7"/>
				</g>
			</g>
			<g>
				<g>
					
						<rect x="158.1" y="377.3" transform="matrix(1.966263e-03 -1 1 1.966263e-03 -190.4021 566.4992)" class="st5" width="61.1" height="2.7"/>
				</g>
				<g>
					
						<rect x="172.1" y="377.3" transform="matrix(1.966263e-03 -1 1 1.966263e-03 -176.3996 580.5337)" class="st5" width="61.1" height="2.7"/>
				</g>
				<g>
					
						<rect x="161.7" y="371.2" transform="matrix(0.8762 -0.482 0.482 0.8762 -155.7439 138.7849)" class="st5" width="61.1" height="2.7"/>
				</g>
				<g>
					
						<rect x="168.5" y="383.5" transform="matrix(0.8762 -0.482 0.482 0.8762 -160.8212 143.577)" class="st5" width="61.1" height="2.7"/>
				</g>
			</g>
			<g>
				<g>
					
						<rect x="547.4" y="650.7" transform="matrix(1.966263e-03 -1 1 1.966263e-03 -74.7099 1229.2202)" class="st5" width="62.1" height="2.7"/>
				</g>
				<g>
					
						<rect x="561.7" y="650.7" transform="matrix(1.966263e-03 -1 1 1.966263e-03 -60.468 1243.4851)" class="st5" width="62.1" height="2.7"/>
				</g>
				<g>
					
						<rect x="551.1" y="644.5" transform="matrix(0.8762 -0.482 0.482 0.8762 -239.1838 360.5668)" class="st5" width="62.1" height="2.7"/>
				</g>
				<g>
					
						<rect x="558" y="657" transform="matrix(0.8762 -0.482 0.482 0.8762 -244.349 365.4395)" class="st5" width="62.1" height="2.7"/>
				</g>
			</g>
		</g>
		<g>
			<path class="st3" d="M686.2,339.8c-6.6,6.4-16.2,8.5-25.2,10.3c-89.9-25.2-161.5-27.1-210.5-24.2c-73,4.4-95.5,19.6-151.9,6.3
				c-65.1-15.3-76.4-45.2-136.1-44.3c-25.6,0.4-49.1,0.8-88.6-3.2c-24.2-2.4-44.3-13.2-49.2-29.3c-3.8-12.8,1.1-27.4,9.6-39.7
				c5.4-7.9,11.8-15.2,17.1-23.1c2.5-3.8,4.8-7.7,6.6-11.9c1-2.4,1.8-4.8,2.5-7.3c3.8-13.1,3.9-27.3,7.3-40.6
				c3.9-15.8,15.4-32.3,31.7-32.7l555.5,64.9c9.8,1.7,17.5,9.4,23.7,17.2c6.7,8.5,12.6,18.1,13.5,28.9c1.7,20.7-15.7,40-12.1,60.4
				c1.2,6.6,4.4,12.7,7.3,18.7c3.8,8,7,16.4,7.5,25.2S692.5,333.7,686.2,339.8z"/>
		</g>
		<path class="st6" d="M665.8,167.6c-13.4,1.3-27.5,2.5-42.1,3.5c-10.4,0.7-21.2,1.3-32.2,1.8c-4.5,0.2-9,0.4-13.6,0.5
			c-9.7,0.3-19.6,0.6-29.8,0.6c-1.8,0-3.7,0.1-5.5,0.1c-9.4,0-19,0-28.8-0.1c-4.4,0-8.9-0.2-13.4-0.3c-8-0.2-16.1-0.4-24.4-0.8
			c-3.5-0.2-7.1-0.3-10.7-0.5c-9.5-0.5-19.2-1.1-29-1.8c-2.3-0.2-4.6-0.3-7-0.6h0c-5.4-0.4-10.8-0.8-16.3-1.3
			c-4.1-0.3-8.3-0.7-12.5-1.2h0c-9.5-0.9-19.2-2-29-3.1c-0.6,0-1.1-0.1-1.6-0.2l-4.4-0.5c-3.7-0.5-7.4-0.9-11-1.4
			c-7.4-1-14.7-2-21.9-3.1c-5-0.7-10-1.5-14.8-2.3c-3.6-0.6-7.2-1.2-10.8-1.8c-8.5-1.4-17-2.9-25.3-4.5c-3.8-0.7-7.6-1.4-11.3-2.2
			c-4.8-0.9-9.6-1.9-14.3-2.9c-6.2-1.3-12.4-2.6-18.5-4c-6.4-1.4-12.8-2.9-19-4.3c-3.1-0.8-6.2-1.5-9.3-2.3
			c-12.7-3.1-25.1-6.3-37.2-9.6c-0.3,0-0.6-0.2-0.9-0.3c-15.5-4.2-30.4-8.6-44.6-13.1c-11.4-3.6-22.4-7.1-32.9-10.7
			c12-0.8,24.3-1.4,37-1.9c9.4-0.4,19.1-0.7,29-0.9c3.6-0.1,7.3-0.2,11-0.3c9.9-0.2,20-0.2,30.2-0.2c2.6,0,5.1,0,7.7,0
			c8.9,0.1,17.9,0.2,27,0.5c3.7,0.1,7.6,0.2,11.4,0.3h0c6.5,0.2,13.1,0.5,19.8,0.7h0c3.6,0.2,7.2,0.4,10.9,0.6h0
			c2.2,0.1,4.4,0.2,6.6,0.3c5.7,0.3,11.4,0.6,17.2,1c3.6,0.2,7.3,0.5,11,0.8h0c0.6,0,1.2,0,1.8,0.1c1.8,0.1,3.6,0.3,5.5,0.4h0
			c1.4,0.1,2.9,0.2,4.4,0.3c6.4,0.5,12.8,1,19.2,1.6c0.3,0,0.6,0,0.8,0.1c1.1,0.1,2.3,0.2,3.5,0.3c0.2,0,0.4,0,0.6,0
			c0.4,0,0.7,0.1,1.1,0.1h0c4.6,0.5,9.1,0.9,13.8,1.4h0c1.4,0.1,2.7,0.3,4,0.4c0.3,0,0.5,0.1,0.8,0.1c1.6,0.2,3.1,0.4,4.7,0.5h0
			c1,0.1,2,0.2,3,0.3c6,0.7,12.1,1.4,18.2,2.1h0c0.9,0.1,1.8,0.2,2.8,0.4c2.4,0.3,4.7,0.6,7,0.9h0c7.2,1,14.4,1.9,21.5,3h0
			c4.6,0.7,9.3,1.3,13.9,2.1h0c1.1,0.2,2.1,0.3,3.2,0.5h0c8.6,1.3,17.2,2.7,25.7,4.2h0c1.6,0.2,3.2,0.5,4.8,0.8c0.1,0,0.2,0,0.2,0
			c1.6,0.3,3.1,0.5,4.6,0.8c9,1.5,17.8,3.2,26.5,4.9h0c2.4,0.4,4.8,0.9,7.2,1.4h0c0.8,0.2,1.7,0.3,2.5,0.5
			c8.7,1.8,17.3,3.5,25.8,5.4c0.8,0.2,1.6,0.3,2.4,0.5c3.3,0.7,6.6,1.5,9.8,2.2c2,0.5,4,0.9,6,1.3c0.1,0,0.3,0,0.4,0.1
			c7.3,1.7,14.5,3.4,21.6,5.1c1.5,0.4,2.9,0.7,4.3,1.1c0,0,0,0,0,0c1.8,0.5,3.5,0.9,5.3,1.3h0c11.5,2.9,22.8,5.8,33.8,8.8
			C638,159.4,652.1,163.5,665.8,167.6z"/>
		<g>
			<circle class="st7" cx="495.9" cy="113.1" r="24.5"/>
			<circle class="st8" cx="565.3" cy="143" r="24.5"/>
			<circle class="st8" cx="348.5" cy="104.1" r="24.5"/>
			
				<ellipse transform="matrix(0.7071 -0.7071 0.7071 0.7071 24.5937 237.8464)" class="st8" cx="299.4" cy="89.2" rx="24.5" ry="24.5"/>
			<ellipse class="st9" cx="183.9" cy="97.7" rx="24.5" ry="24.5"/>
			<path class="st9" d="M255.9,145.2v0.4c-6.2-1.3-12.4-2.6-18.5-4c-6.4-1.4-12.8-2.8-19-4.3c-3.1-0.8-6.2-1.5-9.3-2.2
				c1-2.3,2.4-4.4,4-6.2c1.6-1.8,3.5-3.3,5.5-4.6c3.7-2.3,8.1-3.6,12.8-3.6c3.5,0,6.8,0.7,9.9,2.1c0.2,0.1,0.4,0.2,0.6,0.3
				C250.2,127,255.9,135.4,255.9,145.2z"/>
			<path class="st9" d="M319.2,148.4c0,3-0.5,5.9-1.5,8.6c-3.6-0.6-7.2-1.2-10.8-1.8c-8.5-1.4-17-2.9-25.3-4.5
				c-3.8-0.7-7.6-1.4-11.3-2.2v-0.2c0-7.9,3.7-14.9,9.6-19.4c1.2-0.9,2.5-1.7,3.9-2.4c3.3-1.7,7.1-2.6,11-2.6
				c3.7,0,7.2,0.8,10.3,2.3c0.3,0.1,0.6,0.3,1,0.4c3.9,2.1,7.2,5.1,9.5,8.9c1.2,1.9,2.1,4,2.7,6.1
				C318.9,143.8,319.2,146,319.2,148.4z"/>
			<ellipse class="st9" cx="259.9" cy="97.7" rx="24.5" ry="24.5"/>
			<path class="st7" d="M175.3,113.1c0,1-0.1,2-0.2,2.9c-0.2,1.4-0.4,2.9-0.9,4.2c-0.6,1.8-1.3,3.6-2.3,5.3c-0.3,0-0.6-0.2-0.9-0.3
				c-15.5-4.2-30.4-8.6-44.6-13.1c0.2-4.6,1.6-9,4.1-12.6c4.4-6.6,11.8-10.9,20.4-10.9c3.4,0,6.7,0.7,9.6,2c4,1.7,7.4,4.4,10,7.8
				C173.5,102.5,175.3,107.6,175.3,113.1z"/>
			<circle class="st7" cx="223.6" cy="106.8" r="24.5"/>
			<circle class="st7" cx="290.1" cy="106.8" r="24.5"/>
			<path class="st7" d="M355.7,154.2c0,2.8-0.5,5.5-1.4,8.1c-7.4-1-14.7-2-21.9-3.1c-5-0.7-9.9-1.5-14.8-2.3
				c-3.6-0.6-7.2-1.2-10.8-1.8c0-0.3,0-0.6,0-1c0-6.3,2.3-12,6.2-16.3c0.8-0.8,1.6-1.7,2.5-2.4c4.2-3.5,9.8-5.7,15.7-5.7
				c1.2,0,2.4,0.1,3.6,0.2c5,0.7,9.5,2.9,13,6.2C352.7,140.7,355.7,147.1,355.7,154.2z"/>
			<path class="st8" d="M219.4,130.4v0.5c0,2.2-0.4,4.4-1,6.5c-3.1-0.8-6.2-1.5-9.3-2.3c-12.7-3.1-25.1-6.3-37.2-9.6
				c-0.3,0-0.6-0.2-0.9-0.3c0.4-2,1.1-3.8,1.9-5.6c0.6-1.2,1.4-2.5,2.1-3.6c4.5-6.1,11.7-10.1,19.9-10.1c1.4,0,2.8,0.1,4.2,0.4h0
				c2.4,0.4,4.6,1.1,6.7,2.2c0,0,0,0,0,0c6.2,3.1,11,8.9,12.7,15.8C219.2,126.3,219.4,128.3,219.4,130.4z"/>
			<path class="st8" d="M285.9,136.7c0,5.2-1.6,10-4.4,14c-3.8-0.7-7.6-1.4-11.3-2.2c-4.8-1-9.6-1.9-14.3-2.9
				c-6.2-1.3-12.4-2.6-18.5-4c-0.4-1.6-0.5-3.2-0.5-4.9c0-4.2,1.1-8.2,2.9-11.7c0.4-0.8,0.9-1.6,1.4-2.3c1.1-1.6,2.4-3.1,3.9-4.4
				c0.2-0.2,0.4-0.4,0.7-0.6c4.2-3.5,9.6-5.5,15.5-5.5c1.7,0,3.3,0.2,4.9,0.5c3.3,0.7,6.4,2,9.1,3.9c3.5,2.5,6.4,5.9,8.2,9.8
				c0.6,1.3,1.1,2.7,1.5,4.2C285.7,132.6,285.9,134.7,285.9,136.7z"/>
			
				<ellipse transform="matrix(0.2555 -0.9668 0.9668 0.2555 129.4247 407.8611)" class="st9" cx="329.5" cy="119.9" rx="24.5" ry="24.5"/>
			<circle class="st8" cx="460.8" cy="105.1" r="24.5"/>
			<path class="st9" d="M414.2,161c0,2.7-0.4,5.3-1.3,7.7c-4.1-0.3-8.3-0.8-12.5-1.2h0c-9.6-0.9-19.2-2-29-3.1
				c-0.5-0.1-1.1-0.1-1.6-0.2l-4.4-0.5c-0.1-0.9-0.2-1.8-0.2-2.7c0-6.3,2.4-12,6.2-16.3c1.6-1.8,3.5-3.3,5.5-4.6
				c3.7-2.3,8.1-3.6,12.8-3.6c3.5,0,6.8,0.7,9.9,2.1c0.2,0.1,0.4,0.2,0.6,0.3C408.4,142.8,414.2,151.3,414.2,161z"/>
			<path class="st9" d="M477.5,164.2c0,3.1-0.6,6-1.6,8.7c-3.5-0.2-7.1-0.3-10.7-0.5c-9.5-0.5-19.2-1.1-29-1.8
				c-2.3-0.2-4.6-0.3-7-0.5h0c-0.4-1.9-0.7-3.9-0.7-5.9c0-7.9,3.7-14.9,9.6-19.4c1.2-0.9,2.5-1.7,3.9-2.4c3.3-1.7,7.1-2.6,11-2.6
				c3.7,0,7.2,0.8,10.3,2.3c0.3,0.1,0.6,0.3,1,0.4c3.9,2.1,7.2,5.1,9.5,8.9c1.2,1.9,2.1,4,2.7,6.1
				C477.2,159.6,477.5,161.9,477.5,164.2z"/>
			<circle class="st9" cx="418.2" cy="113.5" r="24.5"/>
			<ellipse class="st7" cx="448.4" cy="122.6" rx="24.5" ry="24.5"/>
			<circle class="st7" cx="527.5" cy="135.2" r="24.5"/>
			<path class="st7" d="M624.8,163.7c0,2.6-0.4,5-1.1,7.3c-10.5,0.7-21.2,1.3-32.2,1.7c-4.5,0.2-9,0.4-13.6,0.5
				c-1.1-2.6-1.7-5.3-1.9-8.2c0-0.5,0-0.9,0-1.4c0-4.2,1-8.1,2.9-11.5c1.4-2.6,3.3-5,5.5-6.9c0,0,0,0,0,0c1.7-1.5,3.5-2.7,5.5-3.6
				c3.2-1.5,6.8-2.4,10.6-2.4c10.6,0,19.6,6.7,23,16.2C624.3,158,624.8,160.8,624.8,163.7z"/>
			<path class="st7" d="M514,170.1c0,1.3-0.1,2.6-0.3,3.9c-4.4-0.1-8.9-0.2-13.5-0.3c-8-0.2-16.1-0.4-24.3-0.8
				c-3.5-0.2-7.1-0.3-10.7-0.5c-0.1-0.8-0.1-1.5-0.1-2.3c0-6.3,2.3-12,6.2-16.3c0.8-0.8,1.7-1.7,2.5-2.4c4.2-3.5,9.8-5.7,15.7-5.7
				c6.3,0,12.1,2.4,16.5,6.3c0,0,0.1,0.1,0.1,0.1C511,156.5,514,162.9,514,170.1z"/>
			<path class="st8" d="M444.2,152.6c0,7.2-3.1,13.6-8,18.1c-2.3-0.2-4.6-0.3-7-0.5h0c-5.4-0.4-10.8-0.8-16.3-1.3
				c-4.1-0.3-8.3-0.8-12.5-1.2h0c-3.2-4.2-5.2-9.4-5.2-15c0-4.2,1.1-8.2,2.9-11.7c0.4-0.8,0.9-1.6,1.4-2.3c1.1-1.6,2.4-3.1,3.9-4.4
				c0.2-0.2,0.4-0.4,0.7-0.6c4.2-3.5,9.6-5.5,15.5-5.5c1.7,0,3.3,0.2,4.9,0.5c3.3,0.7,6.4,2,9.1,3.9c3.5,2.5,6.4,5.9,8.2,9.8
				c0.6,1.3,1.1,2.8,1.5,4.2C443.9,148.5,444.2,150.5,444.2,152.6z"/>
			<circle class="st9" cx="487.8" cy="135.7" r="24.5"/>
			<g>
				<path class="st0" d="M359.7,72.1C359.7,72.1,359.7,72.1,359.7,72.1l0.8,1.1c4.5,6.1,8.2,12.7,10.9,19.7v0
					c0.2,0.6,0.4,1.1,0.6,1.7v0c0.6,1.7,1.2,3.4,1.7,5.2c2.8,9.6,3.5,18.7,3.1,26.8c0,0.3,0,0.6,0,0.9c-0.3,6.3-1.3,11.9-2.4,16.7
					c-0.3,0-0.7,0-1,0c-0.3,0-0.5,0-0.8,0c-11.3-0.4-27.7-3-43.6-13.1c-30.3-19.4-45.9-58.5-41.5-100.5c0-0.2,0-0.4,0.1-0.5
					c0.1,0,0.2,0,0.4,0.1c8.9,1.8,17.5,4.4,25.5,7.7c0.2,0.1,0.4,0.2,0.6,0.3c5.2,2.2,10.1,4.6,14.8,7.4c0.2,0.1,0.4,0.2,0.5,0.3
					c4.5,2.7,8.8,5.6,12.8,8.8c0.2,0.2,0.4,0.3,0.6,0.5v0C349.3,60.1,354.9,65.8,359.7,72.1z"/>
				<g>
					<g>
						<path class="st1" d="M288,30l85.5,114.2c-0.3,0-0.5,0-0.8,0L287.6,30.5c0-0.2,0-0.4,0.1-0.5C287.8,29.9,287.9,30,288,30z"/>
					</g>
					<g>
						<path class="st1" d="M329.5,45.6c-0.7,2.3-1.7,4.2-3.1,5.8c-0.9,1-1.9,1.9-2.9,2.7c-1.8,1.6-3.6,3-4.9,5.8
							c-1.4,2.9-1.5,6.5-0.3,10.6c0,0.1,0,0.1,0,0.2l-0.6,0.2l0,0c0,0,0-0.1,0-0.1c-0.2-0.5-0.3-1.1-0.4-1.6
							c-0.8-3.7-0.6-6.9,0.7-9.5c1.4-2.8,3.2-4.4,5-6c1-0.8,1.9-1.6,2.8-2.6c1.4-1.5,2.4-3.5,3-5.7
							C329.1,45.4,329.3,45.5,329.5,45.6z"/>
					</g>
					<g>
						<path class="st1" d="M314.1,38c-0.5,0.5-1.1,1-1.6,1.5c-1.8,1.6-3.6,3-4.9,5.8c-1.4,2.9-1.5,6.5-0.3,10.6c0,0.1,0,0.1,0,0.2
							l-0.6,0.2l0,0c0,0,0-0.1,0-0.1c-0.2-0.5-0.3-1.1-0.4-1.6c-0.8-3.7-0.6-6.9,0.7-9.6c1.4-2.8,3.2-4.4,5-5.9
							c0.5-0.4,1-0.8,1.4-1.2C313.7,37.8,313.9,37.9,314.1,38z"/>
					</g>
					<g>
						<path class="st1" d="M342.9,54.9L342.9,54.9c0.1,5.7-1.2,10.2-4,13.3c-0.9,1-1.9,1.9-2.9,2.7c-1.8,1.6-3.6,3-4.9,5.8
							c-1.4,2.9-1.5,6.5-0.3,10.6c0,0.1,0,0.1,0,0.2l-0.6,0.2l0,0c0,0,0-0.1,0-0.1c-0.2-0.5-0.3-1.1-0.4-1.6
							c-0.8-3.7-0.6-6.9,0.7-9.5c1.4-2.8,3.2-4.4,5-6c1-0.8,1.9-1.6,2.8-2.6c2.7-3.1,4-7.5,3.8-13.4
							C342.5,54.6,342.7,54.7,342.9,54.9z"/>
					</g>
					<g>
						<path class="st1" d="M371.4,92.9c0.2,0.6,0.4,1.1,0.6,1.7v0c0,5.4-1.3,9.6-4,12.6c-0.9,1-1.9,1.9-2.9,2.7
							c-1.8,1.6-3.6,3-4.9,5.7c-1.4,2.9-1.5,6.5-0.3,10.6c0,0.1,0,0.1,0,0.2l-0.6,0.2l0,0c0,0,0-0.1,0-0.1c-0.2-0.5-0.3-1.1-0.4-1.6
							c-0.8-3.7-0.6-6.9,0.7-9.5c1.4-2.8,3.2-4.4,5-6c0.9-0.8,1.9-1.6,2.8-2.6C370.5,103.6,371.7,99,371.4,92.9z"/>
					</g>
					<g>
						<path class="st1" d="M360.5,73.2c1.4,8.7,0.2,15.2-3.4,19.3c-0.9,1-1.9,1.9-2.9,2.7c-1.8,1.6-3.6,3-4.9,5.8
							c-1.4,2.9-1.5,6.5-0.3,10.6c0,0.1,0,0.1,0,0.2l-0.6,0.2l0,0c0,0,0-0.1,0-0.1c-0.2-0.5-0.3-1.1-0.4-1.6
							c-0.8-3.7-0.6-6.9,0.7-9.5c1.4-2.8,3.2-4.4,5-6c1-0.8,1.9-1.6,2.8-2.6c3.6-4.1,4.7-10.9,3.1-20l0,0L360.5,73.2z"/>
					</g>
					<g>
						<path class="st1" d="M376.9,126.6c0,0.3,0,0.6,0,0.9c-1.5,1.3-2.9,2.7-4,4.9c-1.4,2.9-1.5,6.5-0.3,10.6c0,0.1,0,0.1,0,0.2
							l-0.6,0.2l0,0c0,0,0-0.1,0-0.1c-0.2-0.5-0.3-1.1-0.4-1.6c-0.8-3.7-0.6-6.9,0.7-9.5C373.6,129.6,375.3,128,376.9,126.6z"/>
					</g>
				</g>
			</g>
			<g>
				<path class="st0" d="M579.8,144.3C579.8,144.4,579.8,144.4,579.8,144.3l-0.5,0.6c-3,3.6-6.5,6.8-10.3,9.4l0,0
					c-0.3,0.2-0.6,0.4-0.9,0.6l0,0c-0.9,0.6-1.9,1.2-2.9,1.8c-5.4,3-10.8,4.8-15.7,5.8c-0.2,0-0.3,0.1-0.5,0.1
					c-3.8,0.7-7.4,1-10.4,1c0-0.2-0.1-0.4-0.1-0.6c0-0.2-0.1-0.3-0.1-0.5c-1.4-6.9-2.2-17.1,1.6-28.2c7.3-21.1,28.6-36.1,54.6-39.5
					c0.1,0,0.2,0,0.3,0c0,0.1,0,0.1,0,0.2c0.2,5.6-0.1,11.2-1,16.5c0,0.1,0,0.3-0.1,0.4c-0.6,3.4-1.3,6.8-2.3,10
					c0,0.1-0.1,0.2-0.1,0.4c-1,3.1-2.1,6.1-3.4,9c-0.1,0.2-0.1,0.3-0.2,0.4l0,0C585.5,136.3,582.9,140.6,579.8,144.3z"/>
				<g>
					<g>
						<path class="st1" d="M594.8,95.1L538.4,163c0-0.2-0.1-0.3-0.1-0.5l56.2-67.6c0.1,0,0.2,0,0.3,0C594.8,95,594.8,95,594.8,95.1z
							"/>
					</g>
					<g>
						<path class="st1" d="M591.3,122.3c-1.5-0.1-2.8-0.4-3.9-1c-0.8-0.4-1.4-0.9-2-1.3c-1.2-0.9-2.3-1.7-4.2-2.1
							c-2-0.4-4.1,0-6.4,1.3c0,0-0.1,0-0.1,0.1l-0.2-0.3l0,0c0,0,0,0,0,0c0.3-0.2,0.6-0.3,0.9-0.5c2.1-1,4-1.3,5.9-0.9
							c1.9,0.4,3.1,1.3,4.3,2.2c0.6,0.5,1.3,0.9,2,1.3c1.1,0.6,2.4,0.9,3.9,1C591.4,122.1,591.4,122.2,591.3,122.3z"/>
					</g>
					<g>
						<path class="st1" d="M593.7,112c-0.4-0.3-0.8-0.5-1.1-0.8c-1.2-0.9-2.3-1.7-4.2-2.1c-2-0.4-4.1,0-6.4,1.3c0,0-0.1,0-0.1,0.1
							l-0.2-0.3l0,0c0,0,0,0,0,0c0.3-0.2,0.6-0.3,0.9-0.5c2.1-1,4-1.3,5.9-0.9c1.9,0.4,3.1,1.3,4.3,2.2c0.3,0.2,0.6,0.5,1,0.7
							C593.8,111.7,593.8,111.9,593.7,112z"/>
					</g>
					<g>
						<path class="st1" d="M587.7,131.7L587.7,131.7c-3.4,0.9-6.3,0.7-8.6-0.5c-0.8-0.4-1.4-0.9-2-1.3c-1.2-0.9-2.3-1.7-4.2-2.1
							c-2-0.4-4.1,0-6.4,1.3c0,0-0.1,0-0.1,0.1l-0.2-0.3l0,0c0,0,0,0,0,0c0.3-0.2,0.6-0.3,0.9-0.5c2.1-1,4-1.3,5.9-0.9
							c1.9,0.4,3.1,1.3,4.3,2.2c0.6,0.5,1.3,0.9,2,1.3c2.2,1.2,5.1,1.3,8.6,0.3C587.8,131.4,587.8,131.6,587.7,131.7z"/>
					</g>
					<g>
						<path class="st1" d="M568.9,154.4c-0.3,0.2-0.6,0.4-0.9,0.6l0,0c-3.2,0.8-6,0.6-8.2-0.6c-0.8-0.4-1.4-0.9-2-1.3
							c-1.2-0.9-2.3-1.7-4.2-2.1c-2-0.4-4.1,0-6.4,1.3c0,0-0.1,0-0.1,0.1l-0.2-0.3l0,0c0,0,0,0,0,0c0.3-0.2,0.6-0.3,0.9-0.5
							c2.1-1,4-1.3,5.9-0.9c1.9,0.4,3.1,1.3,4.3,2.2c0.6,0.5,1.3,0.9,2,1.3C562.3,155.4,565.3,155.5,568.9,154.4z"/>
					</g>
					<g>
						<path class="st1" d="M579.2,145c-5,2.1-9.1,2.3-12.1,0.7c-0.8-0.4-1.4-0.9-2-1.3c-1.2-0.9-2.3-1.7-4.2-2.1
							c-2-0.4-4.1,0-6.4,1.3c0,0-0.1,0-0.1,0.1l-0.2-0.3l0,0c0,0,0,0,0,0c0.3-0.2,0.6-0.3,0.9-0.5c2.1-1,4-1.3,5.9-0.9
							c1.9,0.4,3.1,1.3,4.3,2.2c0.6,0.5,1.3,0.9,2,1.3c3,1.6,7.2,1.2,12.5-1l0,0L579.2,145z"/>
					</g>
					<g>
						<path class="st1" d="M549.4,162.6c-0.2,0-0.3,0.1-0.5,0.1c-1-0.7-2-1.3-3.5-1.7c-2-0.4-4.1,0-6.4,1.3c0,0-0.1,0-0.1,0.1
							l-0.2-0.3l0,0c0,0,0,0,0,0c0.3-0.2,0.6-0.3,0.9-0.5c2.1-1,4-1.3,5.9-0.9C547.1,161,548.3,161.8,549.4,162.6z"/>
					</g>
				</g>
			</g>
			
				<ellipse transform="matrix(0.477 -0.8789 0.8789 0.477 91.9738 399.7841)" class="st7" cx="381.9" cy="122.6" rx="24.5" ry="24.5"/>
			<path class="st8" d="M369.8,164.3c4.8-4.4,7.8-10.6,7.9-17.6v-0.4c0-2.1-0.2-4.2-0.8-6.1c-1.9-7.3-7.1-13.4-13.9-16.4
				c-1.8-0.8-3.6-1.3-5.6-1.7c-1.1-0.2-2.3-0.3-3.5-0.3c-0.2,0-0.5,0-0.7,0c-5.4,0-10.5,1.7-14.5,4.8c-1.4,1-2.7,2.2-3.9,3.5
				c-3.4,3.9-5.6,8.8-6,14.3c-0.1,0.6-0.1,1.3-0.1,1.9c0,4.8,1.4,9.2,3.7,13c7.2,1.1,14.5,2.1,21.9,3.1c3.6,0.5,7.3,1,11,1.4
				L369.8,164.3z"/>
			<path class="st9" d="M591.4,172.8c-4.5,0.2-9,0.4-13.6,0.5c-9.7,0.3-19.7,0.5-29.8,0.6c-1.8,0-3.7,0.1-5.5,0.1v-0.3
				c0-5.3,1.7-10.2,4.5-14.2c0-0.1,0.1-0.1,0.1-0.1c4.4-6.2,11.7-10.2,19.9-10.2c4.2,0,8.3,1.1,11.8,3c2.4,1.3,4.6,3.1,6.5,5.1
				C588.9,161.5,591.2,166.9,591.4,172.8z"/>
			<path class="st8" d="M548.6,168.4c0,1.9-0.2,3.8-0.7,5.6c-1.8,0-3.7,0.1-5.5,0.1c-9.4,0.1-19,0-28.8-0.1
				c-4.4-0.1-8.9-0.2-13.5-0.3c-0.4-1.7-0.6-3.5-0.6-5.3c0-5.7,1.9-10.9,5.1-15c0,0,0,0,0,0l0,0c0.4-0.5,0.8-0.9,1.1-1.4
				c0.4-0.4,0.8-0.8,1.2-1.2l0,0c0.2-0.2,0.5-0.4,0.8-0.7c4.3-3.8,10-6.1,16.2-6.1c7.3,0,13.9,3.2,18.4,8.3l0,0
				c0.4,0.4,0.7,0.9,1.1,1.4c1.3,1.7,2.3,3.5,3.1,5.5v0c0,0.1,0.1,0.2,0.1,0.3C548.1,162.3,548.6,165.3,548.6,168.4z"/>
		</g>
		<g>
			<path class="st4" d="M360,639c-66.2,0-120-53.8-120-120s53.8-120,120-120c66.2,0,120,53.8,120,120S426.2,639,360,639z M360,401.6
				c-64.7,0-117.4,52.7-117.4,117.4S295.3,636.3,360,636.3s117.4-52.7,117.4-117.4C477.4,454.2,424.7,401.6,360,401.6z"/>
		</g>
		
			<ellipse transform="matrix(0.7071 -0.7071 0.7071 0.7071 -261.4959 406.5407)" class="st1" cx="360" cy="518.9" rx="93.4" ry="93.4"/>
		<g>
			<g>
				<path class="st9" d="M376,524.8c-7.4,13-8,26.7-1.5,30.4c6.6,3.8,18-3.8,25.4-16.8c7.4-13,8-26.6,1.5-30.4
					C394.7,504.3,383.4,511.8,376,524.8z"/>
				<path class="st10" d="M397.2,515.4c-0.7-0.5-6.8,7.4-11,14.5c-5.2,8.8-9.2,19.3-8.4,19.7C379.3,550.2,398.5,516.3,397.2,515.4z"
					/>
			</g>
			<g>
				
					<ellipse transform="matrix(0.9798 -0.1999 0.1999 0.9798 -93.2264 81.8978)" class="st9" cx="358.9" cy="502.6" rx="13.7" ry="27.1"/>
				<path class="st10" d="M355.2,484.3c-0.8,0.1-0.2,10.1,1.2,18.1c1.9,10.1,5.8,20.5,6.6,20.3C364.6,522.3,356.8,484.1,355.2,484.3
					z"/>
			</g>
			<g>
				
					<ellipse transform="matrix(0.5997 -0.8002 0.8002 0.5997 -299.5194 485.0075)" class="st9" cx="335" cy="541.9" rx="13.7" ry="27.1"/>
				<path class="st10" d="M320.1,530.6c-0.5,0.6,6.5,7.7,13,12.7c8.1,6.3,18,11.5,18.4,10.8C352.4,552.8,321.2,529.4,320.1,530.6z"
					/>
			</g>
		</g>
		<path class="st11" d="M248.1,236.7L51.3,192.6c2.5-3.8,4.8-7.7,6.6-11.9c1-2.4,1.8-4.8,2.5-7.3L248.1,236.7z"/>
	</g>
</g>
<g id="TEXTS">
</g>
</svg>
