<?xml version="1.0" encoding="utf-8"?>
<!-- Generator: Adobe Illustrator 26.0.0, SVG Export Plug-In . SVG Version: 6.00 Build 0)  -->
<svg version="1.1" id="Capa_1" xmlns="http://www.w3.org/2000/svg" xmlns:xlink="http://www.w3.org/1999/xlink" x="0px" y="0px"
	 viewBox="0 0 400 800" style="enable-background:new 0 0 400 800;" xml:space="preserve">
<style type="text/css">
	.st0{clip-path:url(#SVGID_00000178904454431955776310000008735246985963514531_);}
	.st1{fill:#3BABA7;}
	.st2{fill:#78DE8D;}
	.st3{fill:#B41640;}
	.st4{fill:#E35039;}
	.st5{fill:#E83006;}
	.st6{fill:#6D0D27;}
	.st7{fill:#FFFFFF;}
	.st8{fill:#E38C27;}
	.st9{fill:#A2133A;}
	.st10{fill:none;stroke:#093D62;stroke-width:4;stroke-miterlimit:10;}
	.st11{fill:#F4B73B;}
</style>
<g>
	<g>
		<g>
			<defs>
				<rect id="SVGID_1_" x="-54" y="160.6" width="1137.4" height="432.8"/>
			</defs>
			<clipPath id="SVGID_00000073692352369039871040000000505680373444084647_">
				<use xlink:href="#SVGID_1_"  style="overflow:visible;"/>
			</clipPath>
			<g style="clip-path:url(#SVGID_00000073692352369039871040000000505680373444084647_);">
				<g>
					<g>
						<path class="st1" d="M221.3,477.2c-0.1-5.7-3.2-9.8-4.8-11.5c-0.1-0.1-0.2-0.2-0.3-0.3s-0.2-0.2-0.3-0.3l-0.1-0.1
							c-0.2-0.1-0.4-0.2-0.7-0.2c-11.1-3.8-17.8-2.3-22,0c-12.2,6.6-10.6,24.3-24.1,30.7c-3.4,1.6-6.9,2.1-10,2
							c-1.5,0-2.9-0.2-4.2-0.4c0.1,0,0.1,0.1,0.2,0.1c0.3,0.2,0.6,0.4,0.9,0.6c0.4,0.3,0.8,0.6,1.2,0.8c3.1,2.1,5.9,3.7,8.6,5
							c2.9,1.5,5.6,2.5,7.9,3.2c0.1,0,0.3,0.1,0.4,0.1c0.6,0.2,1.1,0.3,1.7,0.4c0.5,0.1,1.1,0.2,1.6,0.3c1.7,0.3,3.2,0.3,4.6,0.3
							c0.1,0,0.3,0,0.4,0c0.8-0.1,1.5-0.2,2.2-0.3c0.4-0.1,0.8-0.2,1.2-0.3c0.6-0.2,1.2-0.4,1.7-0.7c0.7-0.4,1.3-0.7,1.9-1.1
							c0.2-0.1,0.3-0.2,0.5-0.3c0.8-0.6,1.5-1.3,2.2-2.1c0.3-0.3,0.5-0.6,0.9-0.9c1.4-1.4,3.2-3,6.4-4.8c3.2-1.8,5.9-2.8,8.3-3.6
							c0.1-0.1,0.3-0.1,0.4-0.1c0.6-0.2,1.2-0.4,1.8-0.6c0.4-0.1,0.8-0.2,1.2-0.4c1.6-0.6,3-1.2,4.4-2.2c0.1-0.1,0.2-0.2,0.3-0.3
							c0.4-0.3,0.7-0.6,1.1-1c0.2-0.2,0.5-0.5,0.7-0.8l0.1-0.1c1.2-1.4,2-3,2.5-4.4l0,0c0-0.1,0.1-0.3,0.1-0.4v-0.1
							c0.2-0.4,0.3-0.9,0.4-1.3l0,0C221.3,479.6,221.3,477.7,221.3,477.2z"/>
						<g>
							<g>
								<path class="st2" d="M235.5,455.3l-0.6-1.5c-9.4,3.8-16,7.5-19.8,11c-1.2,1.2-2.2,2.3-2.8,3.4c-0.2,0.4-2.1,3.8-4.4,8.4
									c-0.9,1.8-1.6,3.2-2.1,4.2c-3.4,5.3-7.8,9.6-13,12.8c-12.2,7.3-25.6,5.9-33.8,3.8c-1.5,0-2.9-0.2-4.2-0.4
									c0.1,0,0.1,0.1,0.2,0.1c0.3,0.2,0.6,0.4,0.9,0.6c0.4,0.3,0.8,0.6,1.2,0.8c4.2,1.2,10.1,2.3,16.6,2.1c0.4,0,0.8,0,1.3-0.1
									c2.2-0.1,4.5-0.4,6.8-1c0.4-0.1,0.9-0.2,1.3-0.3c2.3-0.6,4.6-1.4,6.8-2.5c0.4-0.2,0.9-0.4,1.4-0.7c0.8-0.4,1.5-0.8,2.3-1.3
									c4.4-2.6,8.2-6.1,11.4-10.3c0.4-0.5,0.7-1,1.1-1.5s0.7-1,1.1-1.6c0.5-1.1,1.2-2.5,2.1-4.3c0.1-0.2,0.2-0.4,0.3-0.6
									c0.3-0.7,0.6-1.3,1-1.9c1.5-2.9,2.6-5.1,3-5.7c0-0.1,0.1-0.1,0.1-0.2c0.3-0.5,0.6-1,1.1-1.5l0,0c0.5-0.5,1-1.1,1.6-1.7
									C220.1,462.4,226.6,458.9,235.5,455.3z"/>
							</g>
							<g>
								<path class="st2" d="M192.9,502.1c-0.1-0.1-0.2-0.3-0.3-0.4c-0.4-0.5-0.8-1-1.1-1.9c-0.3-1.1-0.4-2.3-0.1-3.6l0.1-0.3
									l-1.2-0.3c-0.1,0.4-0.2,0.9-0.2,1.3c-0.1,1.2,0,2.3,0.3,3.3c0.4,1.1,0.8,1.7,1.3,2.3c0.1,0.2,0.3,0.3,0.4,0.5
									C192.3,502.7,192.6,502.4,192.9,502.1z"/>
							</g>
							<g>
								<path class="st2" d="M185.8,507.2L185.8,507.2c-0.4-1.2-1-1.8-1.4-2.4c-0.4-0.5-0.8-1-1.1-1.9c-0.4-1.1-0.4-2.3-0.1-3.6
									l0.1-0.3l-1.2-0.3c-0.1,0.3-0.1,0.6-0.2,0.9c-0.2,1.3-0.1,2.6,0.2,3.7c0.4,1.1,0.8,1.7,1.3,2.3c0.4,0.5,0.8,1,1.2,1.9
									C185,507.5,185.4,507.4,185.8,507.2z"/>
							</g>
							<g>
								<path class="st2" d="M177.4,507.7c-0.4-0.8-0.8-1.2-1.1-1.7c-0.4-0.5-0.8-1-1.1-1.9c-0.3-1.1-0.4-2.2-0.1-3.5
									c0-0.1,0-0.3,0.1-0.4l-1.2-0.3c-0.1,0.3-0.1,0.5-0.2,0.8c-0.2,1.3-0.2,2.6,0.2,3.8c0.3,1.1,0.8,1.7,1.3,2.3
									c0.2,0.2,0.3,0.4,0.5,0.6C176.3,507.5,176.8,507.6,177.4,507.7z"/>
							</g>
							<g>
								<path class="st2" d="M220.7,482.1L220.7,482.1c-0.2-0.2-0.4-0.6-0.5-0.9c-0.2-0.5-0.3-1.4-0.4-2.6c-0.1-0.8-0.2-1.5-0.4-2.5
									c-0.1-0.4-0.3-0.9-0.6-1.3c-0.6-1.1-1.2-1.6-1.8-2.1c-0.5-0.5-1-0.8-1.4-1.7c-0.5-1-0.8-2.2-0.7-3.6l0,0c0-0.1,0-0.2,0-0.3
									l-1.2-0.1c-0.1,0.7,0,1.4,0,2.1c0.1,0.9,0.4,1.7,0.8,2.4c0.5,1,1.1,1.6,1.7,2.1c0.5,0.5,1,0.9,1.5,1.8
									c0.2,0.4,0.4,0.7,0.5,1.1c0.2,0.8,0.3,1.5,0.4,2.2c0.1,0.6,0.2,2.1,0.5,2.9s0.7,1.4,1.3,1.8
									C220.4,482.9,220.6,482.5,220.7,482.1z"/>
							</g>
							<g>
								<path class="st2" d="M217.6,488.3c-0.4-0.4-0.9-0.9-1.4-1.7c-0.5-1-0.6-1.6-0.7-2.3c-0.1-0.7-0.2-1.5-0.8-2.6
									s-1.2-1.6-1.8-2.1c-0.5-0.5-1-0.9-1.4-1.7c-0.5-0.9-0.8-2-0.8-3.1c0-0.3,0-0.7,0-1l-1.2-0.1c-0.1,1.1,0,2,0.3,3
									c0.2,0.6,0.4,1.2,0.7,1.8c0.5,1,1.1,1.5,1.7,2c0.5,0.5,1,0.9,1.5,1.8s0.6,1.5,0.7,2.1c0.1,0.7,0.2,1.5,0.8,2.7
									c0.6,1,1.2,1.6,1.6,2.1c0.2-0.2,0.5-0.5,0.7-0.8C217.5,488.4,217.5,488.4,217.6,488.3z"/>
							</g>
							<g>
								<path class="st2" d="M211,492.7c-0.1-0.6-0.2-1.3-0.8-2.3c-0.6-1.1-1.2-1.6-1.8-2.1c-0.5-0.5-1-0.9-1.4-1.7
									c-0.5-1-0.8-2.1-0.8-3.4c0-0.2,0-0.4,0-0.7l-1.2-0.1c0,0.8,0,1.5,0.1,2.3c0.1,0.9,0.4,1.7,0.8,2.5c0.5,1,1.1,1.5,1.7,2
									c0.5,0.5,1,0.9,1.5,1.8s0.6,1.5,0.7,2.1C210.2,492.9,210.6,492.8,211,492.7z"/>
							</g>
						</g>
					</g>
					<g>
						<path class="st1" d="M109.7,370.9c1.7-5,0.3-9.5-0.5-11.6c-0.1-0.1-0.1-0.3-0.2-0.4s-0.1-0.2-0.2-0.3v-0.1
							c-0.2-0.1-0.3-0.3-0.5-0.4c-8.5-6.8-14.8-7.6-19.1-7c-12.7,1.9-17,17.8-30.6,19c-3.5,0.3-6.7-0.4-9.3-1.4
							c-1.3-0.5-2.5-1.1-3.5-1.6l0.1,0.1c0.2,0.3,0.4,0.6,0.6,0.8c0.3,0.4,0.5,0.7,0.8,1.1c2.1,2.8,4,5.1,5.8,7.1
							c2.1,2.2,4,4,5.9,5.3c0.1,0.1,0.2,0.2,0.3,0.2c0.5,0.3,0.9,0.6,1.3,0.9s0.9,0.5,1.3,0.8c1.4,0.8,2.7,1.3,3.9,1.7
							c0.1,0,0.2,0.1,0.4,0.1c0.7,0.2,1.4,0.3,2,0.4c0.4,0.1,0.8,0.1,1.1,0.1c0.6,0,1.2,0,1.7-0.1c0.7-0.1,1.4-0.2,2-0.4
							c0.2,0,0.3-0.1,0.5-0.2c0.9-0.3,1.7-0.7,2.6-1.1c0.3-0.2,0.7-0.3,1-0.5c1.6-0.8,3.7-1.6,7.1-2.1c3.4-0.6,6-0.6,8.3-0.5
							c0.1,0,0.2,0,0.4,0c0.6,0,1.2,0,1.7,0.1c0.4,0,0.8,0,1.2,0c1.6,0,3-0.1,4.5-0.5c0.1,0,0.2-0.1,0.4-0.1
							c0.4-0.1,0.8-0.3,1.2-0.5c0.3-0.1,0.6-0.3,0.9-0.5c0,0,0.1,0,0.1-0.1c1.5-0.9,2.7-2,3.6-3l0,0c0.1-0.1,0.2-0.2,0.3-0.3
							l0.1-0.1c0.3-0.3,0.5-0.7,0.7-1l0,0C108.9,373,109.5,371.4,109.7,370.9z"/>
						<g>
							<g>
								<path class="st2" d="M129,356.3v-1.5c-9.4,0.3-16.3,1.4-20.7,3.3c-1.4,0.6-2.6,1.3-3.5,2.1c-0.3,0.3-3,2.7-6.5,6
									c-1.3,1.3-2.4,2.3-3.2,3c-4.7,3.5-9.8,5.9-15.4,7c-12.9,2.5-24.1-3-30.6-7.4c-1.3-0.5-2.5-1.1-3.5-1.6l0.1,0.1
									c0.2,0.3,0.4,0.6,0.6,0.8c0.3,0.4,0.5,0.7,0.8,1.1c3.3,2.4,8,5.2,13.8,7.1c0.4,0.1,0.7,0.2,1.1,0.3c2,0.6,4.1,1.1,6.3,1.3
									c0.4,0.1,0.8,0.1,1.2,0.1c2.2,0.2,4.4,0.2,6.7,0c0.5,0,0.9-0.1,1.4-0.1c0.8-0.1,1.6-0.2,2.4-0.4c4.7-0.9,9.1-2.7,13.2-5.3
									c0.5-0.3,1-0.6,1.4-1c0.5-0.3,1-0.7,1.4-1c0.8-0.7,1.9-1.8,3.2-3c0.2-0.1,0.3-0.3,0.5-0.4c0.5-0.5,1-0.9,1.4-1.3
									c2.2-2.1,3.9-3.6,4.4-4c0.1-0.1,0.1-0.1,0.1-0.1c0.4-0.3,0.9-0.7,1.4-1l0,0c0.6-0.3,1.2-0.6,2-0.9
									C113.3,357.7,120.1,356.7,129,356.3z"/>
							</g>
							<g>
								<path class="st2" d="M77.1,383.6c-0.1-0.2-0.1-0.3-0.2-0.5c-0.2-0.6-0.4-1.1-0.4-2c0-1.1,0.4-2.1,1.1-3.2l0.2-0.3l-0.9-0.6
									c-0.2,0.3-0.4,0.7-0.6,1.1c-0.5,1-0.7,2-0.8,3c0,1.1,0.2,1.8,0.4,2.4c0.1,0.2,0.1,0.4,0.2,0.6
									C76.4,383.9,76.7,383.8,77.1,383.6z"/>
							</g>
							<g>
								<path class="st2" d="M69.3,385.8L69.3,385.8c0-1.2-0.2-1.9-0.5-2.5c-0.2-0.6-0.4-1.1-0.4-2c0-1.1,0.4-2.1,1.1-3.2l0.2-0.3
									l-0.9-0.6c-0.2,0.2-0.3,0.5-0.5,0.7c-0.6,1.1-0.9,2.2-1,3.3c0,1.1,0.2,1.8,0.4,2.4c0.2,0.6,0.4,1.2,0.4,2.1
									C68.5,385.8,68.9,385.8,69.3,385.8z"/>
							</g>
							<g>
								<path class="st2" d="M61.8,383.5c-0.1-0.8-0.3-1.3-0.4-1.8c-0.2-0.6-0.4-1.1-0.4-2c0-1,0.4-2.1,1-3.1
									c0.1-0.1,0.1-0.2,0.2-0.4l-0.9-0.6c-0.1,0.2-0.3,0.4-0.4,0.7c-0.6,1.1-1,2.2-1,3.4c-0.1,1.1,0.2,1.8,0.4,2.4
									c0.1,0.2,0.1,0.4,0.2,0.7C61,383,61.4,383.3,61.8,383.5z"/>
							</g>
							<g>
								<path class="st2" d="M107.6,375L107.6,375c-0.1-0.3-0.2-0.6-0.1-1c0-0.5,0.2-1.3,0.4-2.4c0.2-0.7,0.3-1.4,0.4-2.3
									c0-0.4,0-0.9-0.1-1.3c-0.2-1.1-0.6-1.8-0.9-2.4s-0.6-1-0.7-1.9c-0.1-1.1,0-2.2,0.5-3.3l0,0c0-0.1,0-0.2,0.1-0.2l-1-0.5
									c-0.3,0.6-0.5,1.2-0.6,1.9c-0.2,0.8-0.2,1.6-0.1,2.3c0.1,1.1,0.5,1.7,0.8,2.3c0.3,0.6,0.6,1.1,0.8,2
									c0.1,0.4,0.1,0.8,0.1,1.1c-0.1,0.8-0.2,1.4-0.3,2c-0.1,0.5-0.5,1.9-0.5,2.7c0,0.8,0.2,1.4,0.5,2
									C107.1,375.6,107.4,375.3,107.6,375z"/>
							</g>
							<g>
								<path class="st2" d="M102.9,379.4c-0.3-0.5-0.5-1-0.7-2s0-1.6,0.1-2.2c0.1-0.7,0.3-1.3,0.1-2.5c-0.2-1.1-0.6-1.8-0.9-2.4
									s-0.6-1.1-0.7-1.9c-0.1-1-0.1-1.9,0.3-3c0.1-0.3,0.2-0.6,0.3-0.9l-1-0.5c-0.4,0.9-0.6,1.8-0.7,2.7c-0.1,0.6,0,1.2,0,1.8
									c0.2,1.1,0.5,1.7,0.8,2.3c0.3,0.6,0.6,1.1,0.7,2c0.2,0.9,0,1.5-0.1,2.1c-0.2,0.7-0.3,1.4-0.1,2.6c0.2,1.1,0.5,1.8,0.8,2.3
									c0.3-0.1,0.6-0.3,0.9-0.5C102.8,379.4,102.9,379.4,102.9,379.4z"/>
							</g>
							<g>
								<path class="st2" d="M95.8,381.1c0.1-0.6,0.2-1.2,0.1-2.3c-0.2-1.1-0.6-1.8-0.9-2.4s-0.6-1.1-0.7-1.9c-0.2-1,0-2.1,0.4-3.2
									c0.1-0.2,0.1-0.4,0.2-0.6l-1-0.5c-0.3,0.7-0.5,1.3-0.6,2c-0.2,0.8-0.2,1.6-0.1,2.4c0.2,1.1,0.5,1.7,0.8,2.3
									c0.3,0.6,0.6,1.1,0.7,2c0.2,0.9,0,1.4-0.1,2C95,381.1,95.4,381.1,95.8,381.1z"/>
							</g>
						</g>
					</g>
					<g>
						<path class="st1" d="M139.1,399.7c1.4-4.3,0.2-8.1-0.5-9.8c-0.1-0.1-0.1-0.2-0.2-0.3c0-0.1-0.1-0.2-0.1-0.3v-0.1
							c-0.1-0.1-0.3-0.2-0.4-0.4c-7.2-5.8-12.5-6.5-16.2-5.9c-10.7,1.6-14.4,15-25.9,16.1c-3,0.3-5.7-0.3-7.9-1.2
							c-1.1-0.4-2.1-0.9-3-1.4l0.1,0.1c0.2,0.2,0.3,0.5,0.5,0.7c0.2,0.3,0.4,0.6,0.7,0.9c1.7,2.3,3.4,4.3,5,6c1.8,1.9,3.4,3.4,5,4.5
							c0.1,0.1,0.2,0.1,0.3,0.2c0.4,0.3,0.8,0.5,1.1,0.8c0.4,0.2,0.7,0.5,1.1,0.6c1.2,0.7,2.3,1.1,3.3,1.4c0.1,0,0.2,0.1,0.3,0.1
							c0.6,0.2,1.2,0.3,1.7,0.3c0.3,0,0.7,0.1,1,0.1c0.5,0,1,0,1.5,0c0.6-0.1,1.2-0.2,1.7-0.3c0.1,0,0.3-0.1,0.4-0.1
							c0.8-0.3,1.4-0.6,2.2-1c0.3-0.1,0.6-0.3,0.9-0.4c1.4-0.7,3.1-1.3,6-1.8s5.1-0.5,7-0.4c0.1,0,0.2,0,0.3,0c0.5,0,1,0,1.4,0
							c0.3,0,0.7,0,1,0c1.3,0,2.6-0.1,3.8-0.5c0.1,0,0.2-0.1,0.3-0.1c0.3-0.1,0.7-0.3,1-0.4c0.2-0.1,0.5-0.2,0.8-0.4
							c0,0,0.1,0,0.1-0.1c1.2-0.8,2.2-1.7,3-2.6l0,0c0.1-0.1,0.2-0.2,0.2-0.3c0,0,0,0,0.1-0.1c0.2-0.3,0.4-0.6,0.6-0.8l0,0
							C138.5,401.5,139,400.1,139.1,399.7z"/>
						<g>
							<g>
								<path class="st2" d="M155.5,387.4v-1.3c-8,0.3-13.8,1.2-17.5,2.8c-1.2,0.5-2.2,1.1-3,1.8c-0.2,0.2-2.5,2.3-5.5,5
									c-1.1,1.1-2.1,1.9-2.7,2.5c-3.9,3-8.3,5-13,5.9c-11,2.1-20.4-2.5-25.9-6.2c-1.1-0.4-2.1-0.9-3-1.4l0.1,0.1
									c0.2,0.2,0.3,0.5,0.5,0.7c0.2,0.3,0.4,0.6,0.7,0.9c2.8,2,6.8,4.4,11.7,6c0.3,0.1,0.6,0.2,1,0.3c1.7,0.5,3.5,0.9,5.3,1.1
									c0.3,0.1,0.7,0.1,1,0.1c1.8,0.2,3.7,0.2,5.7,0c0.4,0,0.8-0.1,1.2-0.1c0.7-0.1,1.3-0.2,2-0.3c3.9-0.8,7.7-2.3,11.2-4.5
									c0.4-0.3,0.8-0.5,1.2-0.8c0.4-0.3,0.8-0.6,1.2-0.9c0.7-0.6,1.6-1.5,2.7-2.6c0.1-0.1,0.3-0.3,0.4-0.4
									c0.4-0.4,0.8-0.8,1.2-1.1c1.9-1.7,3.3-3,3.7-3.4c0.1-0.1,0.1-0.1,0.1-0.1c0.3-0.3,0.7-0.6,1.2-0.8l0,0
									c0.5-0.3,1-0.5,1.7-0.8C142.2,388.5,147.9,387.6,155.5,387.4z"/>
							</g>
							<g>
								<path class="st2" d="M111.6,410.5c0-0.1-0.1-0.3-0.1-0.4c-0.2-0.5-0.3-1-0.3-1.7c0-0.9,0.3-1.8,0.9-2.7l0.2-0.2l-0.8-0.5
									c-0.2,0.3-0.4,0.6-0.5,0.9c-0.4,0.8-0.6,1.7-0.7,2.5c0,0.9,0.2,1.5,0.4,2.1c0.1,0.2,0.1,0.3,0.2,0.5
									C111,410.7,111.2,410.6,111.6,410.5z"/>
							</g>
							<g>
								<path class="st2" d="M104.9,412.3L104.9,412.3c0-1-0.2-1.6-0.4-2.1c-0.2-0.5-0.3-1-0.3-1.7c0-0.9,0.3-1.8,0.9-2.7l0.1-0.2
									l-0.8-0.5c-0.1,0.2-0.3,0.4-0.4,0.6c-0.5,0.9-0.8,1.8-0.8,2.8c0,0.9,0.2,1.5,0.4,2.1c0.2,0.5,0.3,1,0.3,1.7
									C104.3,412.3,104.6,412.3,104.9,412.3z"/>
							</g>
							<g>
								<path class="st2" d="M98.6,410.3c-0.1-0.7-0.2-1.1-0.4-1.5c-0.2-0.5-0.3-1-0.3-1.7c0-0.9,0.3-1.7,0.9-2.6
									c0-0.1,0.1-0.2,0.2-0.3l-0.8-0.5c-0.1,0.2-0.2,0.4-0.3,0.6c-0.5,0.9-0.8,1.9-0.9,2.9c0,0.9,0.2,1.5,0.4,2.1
									c0.1,0.2,0.1,0.4,0.2,0.6C97.9,409.9,98.2,410.2,98.6,410.3z"/>
							</g>
							<g>
								<path class="st2" d="M137.4,403.1L137.4,403.1c-0.1-0.2-0.1-0.5-0.1-0.8c0-0.4,0.1-1.1,0.4-2c0.2-0.6,0.3-1.2,0.3-1.9
									c0-0.3,0-0.7-0.1-1.1c-0.2-1-0.5-1.5-0.8-2s-0.5-0.9-0.6-1.6c-0.1-0.9,0-1.8,0.4-2.8l0,0c0-0.1,0-0.1,0.1-0.2l-0.9-0.4
									c-0.2,0.5-0.4,1.1-0.5,1.6c-0.1,0.7-0.2,1.3-0.1,2c0.1,0.9,0.4,1.5,0.7,2c0.3,0.5,0.5,0.9,0.6,1.7c0.1,0.3,0.1,0.6,0,0.9
									c0,0.7-0.2,1.2-0.3,1.7c-0.1,0.4-0.4,1.6-0.4,2.3c0,0.7,0.2,1.2,0.5,1.7C137,403.7,137.2,403.4,137.4,403.1z"/>
							</g>
							<g>
								<path class="st2" d="M133.4,406.9c-0.2-0.4-0.4-0.9-0.6-1.7c-0.1-0.9,0-1.3,0.1-1.8c0.1-0.6,0.3-1.1,0.1-2.1
									c-0.2-1-0.5-1.5-0.7-2c-0.3-0.5-0.5-0.9-0.6-1.6c-0.1-0.8,0-1.6,0.2-2.5c0.1-0.2,0.2-0.5,0.3-0.7l-0.9-0.4
									c-0.3,0.8-0.5,1.5-0.6,2.2c-0.1,0.5,0,1,0,1.5c0.1,0.9,0.4,1.4,0.7,1.9c0.2,0.5,0.5,0.9,0.6,1.7s0,1.3-0.1,1.8
									c-0.1,0.6-0.3,1.2-0.1,2.2c0.1,0.9,0.4,1.5,0.6,2C132.8,407.2,133,407.1,133.4,406.9C133.3,406.9,133.4,406.9,133.4,406.9z"
									/>
							</g>
							<g>
								<path class="st2" d="M127.4,408.3c0.1-0.5,0.2-1,0.1-1.9c-0.2-1-0.5-1.5-0.7-2c-0.3-0.5-0.5-0.9-0.6-1.6
									c-0.1-0.9,0-1.8,0.3-2.7c0-0.2,0.1-0.3,0.2-0.5l-0.9-0.4c-0.2,0.6-0.4,1.1-0.5,1.7c-0.1,0.7-0.1,1.4,0,2.1
									c0.1,0.9,0.4,1.4,0.7,1.9c0.2,0.5,0.5,0.9,0.6,1.7c0.1,0.8,0,1.2-0.1,1.7C126.7,408.3,127.1,408.3,127.4,408.3z"/>
							</g>
						</g>
					</g>
					<g>
						<path class="st1" d="M154.2,398.6c-1.6-2.3-3.9-3.1-5-3.3c-0.1,0-0.2,0-0.2,0c-0.1,0-0.1,0-0.2,0c0,0,0,0-0.1,0
							s-0.2,0.1-0.3,0.1c-5.5,1.5-7.8,3.9-8.9,5.9c-3.1,5.9,2.2,12.6-1.4,18.8c-0.9,1.6-2.2,2.7-3.4,3.5c-0.6,0.4-1.2,0.7-1.8,1h0.1
							c0.2,0,0.4,0,0.5,0c0.2,0,0.5,0,0.7,0c1.8,0,3.4-0.1,4.8-0.3c1.6-0.2,2.9-0.5,4-0.8c0.1,0,0.1,0,0.2-0.1
							c0.3-0.1,0.5-0.2,0.8-0.3c0.2-0.1,0.5-0.2,0.7-0.3c0.8-0.3,1.4-0.7,1.9-1.1c0.1,0,0.1-0.1,0.2-0.1c0.3-0.2,0.6-0.5,0.8-0.7
							c0.1-0.1,0.3-0.3,0.4-0.4c0.2-0.2,0.4-0.5,0.5-0.7c0.2-0.3,0.3-0.6,0.5-0.9c0-0.1,0.1-0.2,0.1-0.3c0.1-0.5,0.2-0.9,0.3-1.4
							c0-0.2,0.1-0.4,0.1-0.6c0.2-0.9,0.5-2,1.3-3.7c0.8-1.6,1.6-2.7,2.4-3.6c0-0.1,0.1-0.1,0.1-0.2c0.2-0.2,0.4-0.5,0.6-0.7
							c0.1-0.2,0.3-0.3,0.4-0.5c0.5-0.7,0.9-1.3,1.2-2.1c0-0.1,0-0.1,0.1-0.2c0.1-0.2,0.1-0.4,0.2-0.7c0-0.2,0.1-0.3,0.1-0.5
							c0,0,0,0,0-0.1c0.1-0.9,0-1.7-0.2-2.4l0,0c0-0.1,0-0.1-0.1-0.2c0,0,0,0,0-0.1c-0.1-0.2-0.1-0.4-0.2-0.6l0,0
							C154.8,399.6,154.3,398.8,154.2,398.6z"/>
						<g>
							<g>
								<path class="st2" d="M154,386l-0.6-0.4c-2.8,4.1-4.4,7.3-5,9.7c-0.2,0.8-0.3,1.5-0.2,2.1c0,0.2,0.2,2.1,0.5,4.6
									c0.1,0.9,0.2,1.7,0.3,2.3c0.1,3.1-0.5,6-1.8,8.6c-2.9,6.2-8.7,9.2-12.5,10.6c-0.6,0.4-1.2,0.7-1.8,1h0.1c0.2,0,0.4,0,0.5,0
									c0.2,0,0.5,0,0.7,0c2-0.7,4.7-1.8,7.2-3.6c0.2-0.1,0.3-0.2,0.5-0.4c0.9-0.7,1.7-1.4,2.5-2.2c0.2-0.1,0.3-0.3,0.4-0.5
									c0.8-0.8,1.5-1.8,2.1-2.8c0.1-0.2,0.3-0.4,0.4-0.6c0.2-0.4,0.4-0.7,0.6-1.1c1.1-2.2,1.7-4.7,1.8-7.2c0-0.3,0-0.6,0-0.9
									s0-0.6,0-0.9c-0.1-0.6-0.2-1.3-0.3-2.3c0-0.1,0-0.2,0-0.3c0-0.4-0.1-0.7-0.1-1c-0.2-1.6-0.3-2.7-0.3-3.1v-0.1
									c0-0.3,0-0.6,0-0.9l0,0c0-0.3,0.1-0.7,0.2-1.1C149.7,393,151.3,389.9,154,386z"/>
							</g>
							<g>
								<path class="st2" d="M149.5,416.2c-0.1,0-0.2-0.1-0.2-0.1c-0.3-0.1-0.6-0.2-1-0.5s-0.8-0.8-1-1.4l-0.1-0.2l-0.6,0.2
									c0.1,0.2,0.2,0.4,0.2,0.6c0.3,0.5,0.6,0.9,1,1.2c0.4,0.4,0.8,0.5,1.2,0.6c0.1,0,0.2,0.1,0.3,0.1
									C149.4,416.6,149.4,416.4,149.5,416.2z"/>
							</g>
							<g>
								<path class="st2" d="M148,420.2L148,420.2c-0.5-0.4-0.9-0.5-1.2-0.6c-0.3-0.1-0.6-0.2-1-0.5s-0.8-0.8-1-1.4l-0.1-0.1
									l-0.6,0.2c0,0.1,0.1,0.3,0.2,0.4c0.3,0.6,0.6,1.1,1.1,1.4c0.4,0.4,0.8,0.5,1.2,0.6c0.3,0.1,0.6,0.2,1,0.5
									C147.7,420.5,147.8,420.3,148,420.2z"/>
							</g>
							<g>
								<path class="st2" d="M144.7,422.6c-0.3-0.2-0.6-0.3-0.9-0.4s-0.6-0.2-1-0.5s-0.7-0.8-1-1.4c0-0.1-0.1-0.1-0.1-0.2l-0.6,0.2
									c0,0.1,0.1,0.2,0.1,0.4c0.3,0.6,0.6,1.1,1.1,1.5c0.4,0.4,0.8,0.5,1.2,0.6c0.1,0,0.2,0.1,0.3,0.1
									C144.2,422.8,144.5,422.7,144.7,422.6z"/>
							</g>
							<g>
								<path class="st2" d="M155.2,400.7L155.2,400.7c-0.2,0-0.3-0.1-0.5-0.2s-0.5-0.5-0.9-0.9c-0.2-0.3-0.5-0.6-0.8-0.9
									c-0.2-0.1-0.4-0.3-0.6-0.4c-0.5-0.3-0.9-0.3-1.3-0.4c-0.3,0-0.6-0.1-1-0.3c-0.5-0.3-0.9-0.7-1.2-1.2l0,0l-0.1-0.1l-0.5,0.3
									c0.2,0.3,0.4,0.6,0.6,0.8c0.3,0.3,0.6,0.6,0.9,0.8c0.5,0.3,0.9,0.3,1.2,0.4c0.3,0,0.6,0.1,1.1,0.3c0.2,0.1,0.3,0.2,0.5,0.3
									c0.3,0.3,0.5,0.5,0.7,0.8c0.2,0.2,0.6,0.8,1,1c0.3,0.3,0.7,0.4,1,0.4C155.3,401.1,155.3,400.9,155.2,400.7z"/>
							</g>
							<g>
								<path class="st2" d="M155.6,404.1c-0.3,0-0.6-0.1-1-0.3c-0.5-0.2-0.7-0.5-0.9-0.7c-0.2-0.3-0.5-0.5-1-0.8s-0.9-0.3-1.3-0.4
									c-0.3,0-0.6-0.1-1-0.3c-0.4-0.2-0.8-0.6-1.2-1c-0.1-0.1-0.2-0.3-0.3-0.4l-0.5,0.3c0.3,0.4,0.6,0.8,0.9,1.1
									c0.2,0.2,0.5,0.4,0.8,0.5c0.5,0.3,0.9,0.3,1.2,0.4c0.3,0,0.6,0.1,1.1,0.3c0.4,0.2,0.6,0.4,0.8,0.7c0.2,0.3,0.5,0.6,1.1,0.9
									c0.5,0.3,0.9,0.3,1.2,0.4C155.6,404.5,155.6,404.3,155.6,404.1L155.6,404.1z"/>
							</g>
							<g>
								<path class="st2" d="M154.2,407.6c-0.2-0.2-0.4-0.5-0.9-0.7c-0.5-0.3-0.9-0.3-1.3-0.4c-0.3,0-0.6-0.1-1-0.3
									c-0.5-0.3-0.9-0.6-1.2-1.2c-0.1-0.1-0.1-0.2-0.2-0.3l-0.5,0.3c0.2,0.3,0.4,0.6,0.7,0.9c0.3,0.3,0.6,0.6,1,0.8
									c0.5,0.3,0.9,0.3,1.2,0.4c0.3,0,0.6,0.1,1.1,0.3c0.4,0.2,0.6,0.4,0.8,0.7C153.9,407.9,154,407.8,154.2,407.6z"/>
							</g>
						</g>
					</g>
					<g>
						<path class="st1" d="M58.4,277.4c3.9-2.3,5.5-5.9,6.1-7.7c0-0.1,0.1-0.2,0.1-0.4c0-0.1,0.1-0.2,0.1-0.3v-0.1
							c0-0.2-0.1-0.4-0.1-0.5c-1.6-9.1-5.2-13.1-8.3-15.1c-9.2-5.8-20.7,1.9-30.2-4.9c-2.4-1.7-4.1-3.9-5.2-6.1c-0.6-1-1-2.1-1.3-3
							c0,0.1,0,0.1,0,0.1c0,0.3-0.1,0.6-0.1,0.9c0,0.4-0.1,0.8-0.1,1.1c-0.2,2.9-0.3,5.5-0.2,7.8c0.1,2.6,0.4,4.8,0.8,6.7
							c0,0.1,0.1,0.2,0.1,0.3c0.1,0.5,0.2,0.9,0.3,1.3c0.1,0.4,0.2,0.8,0.4,1.2c0.4,1.3,1,2.3,1.6,3.3c0.1,0.1,0.1,0.2,0.2,0.3
							c0.3,0.5,0.7,1,1.1,1.4c0.2,0.3,0.4,0.5,0.7,0.7c0.4,0.3,0.7,0.7,1.1,0.9c0.5,0.4,1,0.6,1.5,0.9c0.1,0.1,0.3,0.1,0.4,0.2
							c0.7,0.3,1.5,0.5,2.3,0.7c0.3,0.1,0.6,0.2,0.9,0.3c1.5,0.4,3.3,1.1,5.7,2.6c2.5,1.5,4.2,3,5.6,4.3c0.1,0.1,0.2,0.1,0.2,0.2
							c0.4,0.3,0.7,0.7,1.1,1c0.2,0.2,0.5,0.5,0.7,0.7c1,0.9,2,1.6,3.2,2.2c0.1,0,0.2,0.1,0.3,0.1c0.3,0.1,0.7,0.3,1.1,0.4
							c0.3,0.1,0.5,0.1,0.8,0.2h0.1c1.4,0.2,2.8,0.2,4,0l0,0c0.1,0,0.2,0,0.4-0.1h0.1c0.4-0.1,0.7-0.1,1-0.2l0,0
							C56.8,278.4,58.1,277.6,58.4,277.4z"/>
						<g>
							<g>
								<path class="st2" d="M78.8,278.8l0.8-1c-6.2-5-11.2-8.2-15-9.4c-1.3-0.4-2.4-0.6-3.4-0.6c-0.3,0-3.4,0-7.5,0.2
									c-1.6,0.1-2.8,0.1-3.7,0.2c-4.9-0.3-9.6-1.7-13.7-4.1c-9.7-5.6-13.8-15.3-15.4-21.7c-0.6-1-1-2.1-1.3-3c0,0.1,0,0.1,0,0.1
									c0,0.3-0.1,0.6-0.1,0.9c0,0.4-0.1,0.8-0.1,1.1c0.8,3.3,2.2,7.8,4.9,12.2c0.2,0.3,0.3,0.6,0.5,0.8c0.9,1.5,2,2.9,3.3,4.3
									c0.2,0.3,0.5,0.5,0.7,0.8c1.3,1.3,2.7,2.6,4.3,3.8c0.3,0.2,0.6,0.5,1,0.7c0.6,0.4,1.1,0.7,1.7,1.1c3.5,2,7.3,3.3,11.4,3.9
									c0.5,0.1,1,0.1,1.4,0.2c0.5,0.1,1,0.1,1.5,0.1c0.9,0,2.2-0.1,3.7-0.2c0.2,0,0.4,0,0.6,0c0.6,0,1.1,0,1.7-0.1
									c2.6-0.1,4.5-0.1,5-0.1c0.1,0,0.1,0,0.2,0c0.5,0,0.9,0,1.5,0.2l0,0c0.5,0.1,1.1,0.3,1.8,0.5C68.1,271,73,274.1,78.8,278.8z"
									/>
							</g>
							<g>
								<path class="st2" d="M30.5,267.4c0.1-0.1,0.1-0.3,0.2-0.4c0.2-0.5,0.4-0.9,0.9-1.5c0.6-0.7,1.4-1.1,2.4-1.4l0.3-0.1
									l-0.2-0.9c-0.3,0.1-0.7,0.2-1,0.3c-0.8,0.3-1.6,0.8-2.2,1.5s-0.9,1.2-1.1,1.8c-0.1,0.2-0.1,0.3-0.2,0.5
									C29.9,267.2,30.2,267.3,30.5,267.4z"/>
							</g>
							<g>
								<path class="st2" d="M24.3,264.5L24.3,264.5c0.6-0.7,0.9-1.3,1.1-1.9c0.2-0.5,0.4-0.9,0.9-1.5c0.6-0.7,1.4-1.1,2.4-1.4
									l0.2-0.1l-0.2-0.9c-0.2,0.1-0.5,0.1-0.7,0.2c-1,0.3-1.8,0.9-2.4,1.6s-0.9,1.2-1.1,1.8c-0.2,0.5-0.4,1-0.9,1.5
									C23.9,264,24.1,264.3,24.3,264.5z"/>
							</g>
							<g>
								<path class="st2" d="M20.8,258.9c0.4-0.5,0.6-1,0.7-1.4c0.2-0.5,0.4-0.9,0.9-1.5c0.6-0.6,1.4-1.1,2.4-1.4
									c0.1,0,0.2-0.1,0.3-0.1l-0.2-0.9c-0.2,0.1-0.4,0.1-0.6,0.2c-1,0.3-1.9,0.9-2.5,1.6c-0.6,0.7-0.9,1.2-1.1,1.8
									c-0.1,0.2-0.1,0.4-0.2,0.5C20.6,258.1,20.7,258.5,20.8,258.9z"/>
							</g>
							<g>
								<path class="st2" d="M54.8,278.8L54.8,278.8c0.1-0.2,0.2-0.5,0.4-0.7c0.3-0.3,0.8-0.7,1.6-1.3c0.5-0.4,1-0.7,1.5-1.2
									c0.2-0.2,0.5-0.5,0.7-0.9c0.5-0.8,0.6-1.5,0.8-2c0.1-0.5,0.2-1,0.6-1.6c0.5-0.8,1.2-1.4,2.2-1.8l0,0c0.1,0,0.1-0.1,0.2-0.1
									l-0.4-0.9c-0.5,0.2-1,0.5-1.4,0.8c-0.5,0.4-1,0.9-1.4,1.4c-0.5,0.8-0.6,1.4-0.8,2c-0.1,0.5-0.2,1-0.6,1.7
									c-0.2,0.3-0.4,0.5-0.6,0.7c-0.5,0.5-0.9,0.8-1.3,1.1c-0.4,0.3-1.3,0.9-1.8,1.5c-0.5,0.5-0.7,1-0.8,1.6
									C54.2,279,54.5,278.9,54.8,278.8z"/>
							</g>
							<g>
								<path class="st2" d="M49.4,279.1c0.1-0.5,0.2-0.9,0.7-1.6s0.9-1,1.3-1.3c0.5-0.3,0.9-0.7,1.5-1.5c0.5-0.8,0.7-1.5,0.8-2
									c0.1-0.5,0.2-1,0.6-1.6c0.4-0.7,1-1.3,1.8-1.7c0.2-0.1,0.4-0.3,0.7-0.4l-0.4-0.9c-0.7,0.4-1.4,0.8-1.9,1.3
									c-0.4,0.3-0.7,0.7-1,1.2c-0.5,0.8-0.6,1.4-0.7,1.9s-0.2,1-0.7,1.7c-0.4,0.7-0.8,1-1.2,1.3c-0.5,0.3-1,0.7-1.6,1.6
									c-0.5,0.8-0.7,1.4-0.8,1.9c0.3,0.1,0.5,0.1,0.8,0.2C49.3,279.1,49.3,279.1,49.4,279.1z"/>
							</g>
							<g>
								<path class="st2" d="M43.9,276.2c0.4-0.3,0.8-0.7,1.3-1.4c0.5-0.8,0.6-1.5,0.8-2c0.1-0.5,0.2-1,0.6-1.6
									c0.5-0.7,1.2-1.4,2-1.9c0.1-0.1,0.3-0.2,0.5-0.3l-0.4-0.9c-0.6,0.3-1.1,0.6-1.5,0.9c-0.6,0.4-1,0.9-1.4,1.5
									c-0.5,0.8-0.6,1.4-0.7,1.9s-0.2,1-0.7,1.7c-0.4,0.7-0.8,0.9-1.2,1.2C43.4,275.8,43.6,276,43.9,276.2z"/>
							</g>
						</g>
					</g>
					<g>
						<path class="st1" d="M212.5,406c0.2,0.2,0.4,0.4,0.5,0.7l0,0c0.3,0.4,0.5,0.7,0.8,1.1l0,0c1.1,1.6,1.9,3.2,2.6,4.8
							c0.1,0.2,0.1,0.3,0.2,0.5l0.1,0.2c0.1,0.2,0.2,0.5,0.2,0.7c0,0.1,0,0.1,0.1,0.2v0.1c0.3,0.9,0.6,1.8,0.8,2.7v0.2
							c0,0.2,0.1,0.4,0.1,0.5c0.1,0.3,0.1,0.5,0.2,0.8c0.4,1.6,0.7,3.1,1.2,4.5l0,0c0.1,0.3,0.2,0.6,0.3,0.8
							c1.4,3.3,3.8,5.7,10.1,6.6h0.1c0.3-0.3,0.6-0.6,0.9-0.9c8.4-8.4,6.2-10.9,1.7-19.1c1.7-10.2-5.7-16.3-14.1-20.9
							c-0.2-0.1-0.3-0.2-0.5-0.3c0.1,0.7,0,1.3-0.1,2c-0.5,2.2-1.9,4.3-3.3,6.5c-0.1,0.2-0.2,0.4-0.4,0.6c-0.6,1-1.1,1.9-1.5,2.9
							c-0.1,0.3-0.2,0.6-0.3,0.8C212.1,403.4,212.1,404.7,212.5,406z"/>
						<g>
							<g>
								<path class="st2" d="M226.3,448.4l0.9,0.2c1.9-7.2,3.2-13.7,3.7-19.1c0.6-6,0.3-10.6-0.8-13.1c0,0-1.5-3.2-3.9-7.3
									c-1.3-2.3-2.4-3.9-2.8-4.6l-0.1-0.2c-0.9-1.5-1.8-3.5-2.6-6c0-0.1,0-0.1-0.1-0.2c-0.8-2.4-1.4-5.3-2-8.6
									c-0.2-0.1-0.3-0.2-0.5-0.3c0.1,0.7,0,1.3-0.1,2c0.5,2.3,1,4.5,1.5,6.3c0.1,0.3,0.2,0.6,0.2,0.8c0.3,0.9,0.6,1.8,0.9,2.6l0,0
									c0.1,0.3,0.2,0.6,0.4,0.9c0.5,1.1,0.9,2,1.5,2.8l0.1,0.2c0,0.1,0.1,0.1,0.1,0.2c0.1,0.2,0.3,0.5,0.5,0.8
									c0.5,0.8,1.3,2,2.1,3.5c0.7,1.2,1.3,2.3,1.8,3.2c0.2,0.3,0.3,0.6,0.5,0.9c1,1.9,1.6,3.1,1.6,3.1c0.2,0.4,0.3,0.8,0.5,1.3
									c0.1,0.3,0.2,0.6,0.2,0.9c0.2,1,0.3,2.1,0.4,3.4c0,0.2,0,0.5,0,0.7c0,2.1-0.1,4.5-0.4,7.2
									C229.3,435.5,228.1,441.7,226.3,448.4z"/>
							</g>
							<g>
								<path class="st2" d="M213.1,406.7c0.3,0.4,0.5,0.7,0.8,1.1l0,0c0.3,0.1,0.5,0.1,0.8,0c0.5-0.1,0.8-0.2,1.1-0.4
									c0.3-0.2,0.6-0.3,1.2-0.5c0.5-0.1,0.9,0,1.2,0c0.4,0.1,0.8,0.1,1.4,0c0.6-0.1,1-0.4,1.3-0.6s0.6-0.3,1-0.4
									c0.5-0.1,1,0,1.5,0.1c0.2,0,0.3,0.1,0.5,0.2l0.3-0.6c-0.4-0.2-0.8-0.3-1.2-0.3s-0.7,0-1.1,0c-0.6,0.1-0.9,0.3-1.3,0.5
									c-0.3,0.2-0.6,0.4-1.1,0.5s-0.8,0-1.1,0c-0.4-0.1-0.8-0.1-1.4,0c-0.7,0.1-1.1,0.4-1.4,0.5c-0.3,0.2-0.5,0.3-0.8,0.3
									C214.1,407.1,213.6,407,213.1,406.7z"/>
							</g>
							<g>
								<path class="st2" d="M212.5,402.1c0.1,0,0.2-0.1,0.4-0.1c0.3-0.1,0.6-0.3,1.2-0.3c0.6,0,0.9,0.1,1.2,0.2s0.7,0.2,1.4,0.2
									c0.6,0,1-0.2,1.4-0.3c0.3-0.1,0.6-0.2,1.1-0.3c0.7,0,1.3,0.1,2,0.5l0,0l0.3-0.6c-0.3-0.1-0.5-0.3-0.8-0.4l0,0
									c-0.5-0.2-1.1-0.3-1.6-0.3c-0.6,0-1,0.2-1.3,0.3c-0.3,0.1-0.6,0.3-1.1,0.3s-0.8-0.1-1.1-0.2s-0.7-0.3-1.4-0.2
									c-0.6,0-0.9,0.1-1.2,0.3C212.7,401.5,212.6,401.8,212.5,402.1z"/>
							</g>
							<g>
								<path class="st2" d="M214.3,398.3c0.1,0,0.2,0.1,0.4,0.1c0.3,0.1,0.7,0.3,1.4,0.2c0.7,0,1.2-0.2,1.6-0.3
									c0.3-0.1,0.6-0.2,0.9-0.2c0.4,0,0.8,0,1.2,0.3c0.2,0.1,0.4,0.2,0.6,0.4l0.3-0.4l0.1-0.1l-0.1-0.1c-0.4-0.3-0.8-0.5-1.1-0.6
									s-0.7-0.1-1-0.1c-0.4,0-0.7,0.1-1,0.2c-0.4,0.1-0.9,0.3-1.4,0.3s-0.8-0.1-1.1-0.2c-0.1,0-0.2-0.1-0.2-0.1
									C214.6,397.9,214.4,398.1,214.3,398.3z"/>
							</g>
							<g>
								<path class="st2" d="M219.4,422.9c0.1,0.3,0.2,0.6,0.3,0.8c0.3,0.1,0.5,0.1,0.8,0c0.5-0.1,0.8-0.3,1.2-0.6
									c0.4-0.3,0.8-0.6,1.3-0.5c0.2,0,0.5,0.1,1.3,0.4c0.4,0.1,0.7,0.3,1.2,0.3c0.2,0,0.5,0.1,0.7,0c0.6,0,1-0.2,1.4-0.3
									c0.3-0.1,0.6-0.3,1.1-0.3s1,0.1,1.5,0.3c0.1,0.1,0.2,0.1,0.4,0.2l0.4-0.6c-0.2-0.1-0.5-0.3-0.7-0.4c-0.5-0.2-1-0.3-1.5-0.3
									c-0.6,0-1,0.2-1.3,0.3c-0.3,0.1-0.6,0.3-1.1,0.3c-0.2,0-0.4,0-0.6,0c-0.4-0.1-0.7-0.2-1.1-0.3c-0.7-0.2-1.1-0.4-1.4-0.4
									c-0.8-0.1-1.4,0.3-1.9,0.6c-0.3,0.2-0.6,0.4-0.9,0.5C220.1,423.1,219.8,423,219.4,422.9z"/>
							</g>
							<g>
								<path class="st2" d="M218.2,418.4c0.6,0.5,1.2,0.8,1.8,0.8c0.5,0,0.8-0.1,1.2-0.3c0.3-0.1,0.7-0.3,1.3-0.3s0.9,0.1,1.2,0.2
									c0.4,0.1,0.8,0.3,1.5,0.2c0.7,0,1.1-0.2,1.4-0.3c0.3-0.1,0.6-0.3,1.1-0.3c0.7,0,1.4,0.1,2.1,0.5l0,0l0,0l0.4-0.6
									c-0.2-0.1-0.4-0.2-0.6-0.3l0,0c-0.6-0.2-1.3-0.4-1.9-0.3c-0.6,0-1,0.2-1.4,0.3c-0.3,0.1-0.7,0.3-1.2,0.3s-0.8-0.1-1.2-0.2
									s-0.8-0.3-1.5-0.2c-0.7,0-1.2,0.2-1.5,0.4c-0.3,0.1-0.5,0.2-0.9,0.2c-0.7,0-1.5-0.5-2.2-1.4c0,0.2,0.1,0.4,0.1,0.5
									C218.1,417.8,218.2,418.1,218.2,418.4z"/>
							</g>
							<g>
								<path class="st2" d="M216.7,413c0.6,0.6,1.2,0.8,1.8,0.8c0.3,0,0.5-0.1,0.8-0.2c0.3-0.2,0.8-0.3,1.5-0.4s1.1,0,1.5,0.2
									c0.3,0.1,0.6,0.2,1.1,0.1s0.8-0.2,1.2-0.4c0.3-0.2,0.7-0.3,1.3-0.4c0.4-0.1,0.9,0,1.3,0.1c0.2,0,0.4,0.1,0.5,0.1
									c0.2,0.1,0.4,0.2,0.6,0.3l-0.2,0.4l-0.1,0.2c-0.1-0.1-0.3-0.1-0.4-0.2c-0.6-0.2-1.1-0.3-1.7-0.3c-0.5,0.1-0.8,0.2-1.1,0.3
									c-0.4,0.2-0.7,0.3-1.4,0.4s-1.1,0-1.4-0.1c-0.3-0.1-0.6-0.2-1.2-0.1c-0.6,0.1-0.9,0.2-1.2,0.4c-0.3,0.1-0.6,0.3-1.1,0.3
									s-0.9-0.1-1.4-0.4L216.7,413z"/>
							</g>
						</g>
					</g>
					<g>
						<path class="st1" d="M103.1,261.7c0.1,0.3,0.3,0.7,0.4,1l0,0c0.2,0.6,0.4,1.1,0.5,1.6l0,0c0.7,2.4,1.1,4.7,1.3,6.9
							c0,0.2,0,0.5,0,0.7v0.2c0,0.3,0,0.6,0,0.9c0,0.1,0,0.2,0,0.2v0.1c0,1.3,0,2.4-0.1,3.6v0.2c0,0.2,0,0.5,0,0.7
							c0,0.4,0,0.7-0.1,1.1c-0.2,2.1-0.3,4.1-0.3,6l0,0c0,0.4,0,0.8,0.1,1.2c0.4,4.6,2.5,8.5,9.8,12.2c0.1,0,0.1,0.1,0.2,0.1
							c0.5-0.2,1-0.5,1.4-0.7c13.7-7,12-11,9.7-22.8c6.2-11.9-0.6-22.4-9.1-31.3c-0.2-0.2-0.3-0.3-0.5-0.5c-0.2,0.9-0.5,1.7-0.9,2.4
							c-1.4,2.5-4.1,4.6-6.6,6.7c-0.2,0.2-0.5,0.4-0.7,0.6c-1.1,1-2.2,1.9-3,3c-0.3,0.3-0.5,0.6-0.7,0.9
							C103.6,258.3,103,259.8,103.1,261.7z"/>
						<g>
							<g>
								<path class="st2" d="M103.2,319.4l1,0.6c5.2-8.1,9.3-15.6,12.1-22.1c3.1-7.1,4.6-12.9,4.1-16.5c0,0-0.6-4.5-1.9-10.5
									c-0.7-3.3-1.4-5.8-1.6-6.7l-0.1-0.3c-0.6-2.2-0.8-5-0.8-8.4c0-0.1,0-0.2,0-0.3c0-3.3,0.3-7.1,0.9-11.4
									c-0.2-0.2-0.3-0.3-0.5-0.5c-0.2,0.9-0.5,1.7-0.9,2.4c-0.4,3.1-0.6,5.9-0.6,8.4c0,0.4,0,0.8,0,1.1c0,1.3,0,2.5,0.1,3.6l0,0
									c0,0.4,0.1,0.9,0.1,1.3c0.1,1.5,0.4,2.9,0.7,4.1l0.1,0.3c0,0.1,0,0.2,0.1,0.3c0.1,0.3,0.2,0.7,0.3,1.2
									c0.3,1.2,0.7,3,1.2,5.1c0.4,1.7,0.7,3.3,0.9,4.7c0.1,0.4,0.2,0.9,0.2,1.3c0.5,2.8,0.7,4.5,0.7,4.5c0.1,0.5,0.1,1.1,0.1,1.7
									c0,0.4,0,0.8-0.1,1.2c-0.1,1.3-0.4,2.7-0.9,4.3c-0.1,0.3-0.2,0.6-0.3,0.9c-0.8,2.6-1.9,5.5-3.4,8.7
									C112,304.7,108,311.9,103.2,319.4z"/>
							</g>
							<g>
								<path class="st2" d="M103.5,262.7c0.2,0.6,0.4,1.1,0.5,1.6l0,0c0.3,0.2,0.6,0.3,0.9,0.4c0.6,0.1,1,0,1.5-0.1
									c0.4-0.1,0.9-0.2,1.6-0.1s1.1,0.3,1.5,0.5s0.9,0.5,1.7,0.6c0.8,0.1,1.4,0,1.8-0.2c0.4-0.1,0.8-0.2,1.4-0.1s1.2,0.3,1.8,0.7
									c0.2,0.1,0.4,0.3,0.5,0.4l0.6-0.7c-0.5-0.4-0.9-0.7-1.4-0.9c-0.4-0.2-0.9-0.3-1.3-0.4c-0.8-0.1-1.3,0-1.8,0.1
									c-0.4,0.1-0.8,0.2-1.5,0.1s-1-0.3-1.4-0.4c-0.4-0.2-0.9-0.5-1.8-0.6s-1.5,0-1.9,0.1s-0.7,0.2-1.1,0.1
									C104.5,263.7,104,263.4,103.5,262.7z"/>
							</g>
							<g>
								<path class="st2" d="M104.5,256.9c0.2,0,0.3,0,0.5,0c0.4,0,0.9-0.1,1.6,0.1s1,0.4,1.4,0.7c0.4,0.3,0.8,0.6,1.6,0.8
									c0.8,0.2,1.4,0.2,1.8,0.1c0.5,0,0.8-0.1,1.4,0.1c0.8,0.2,1.6,0.7,2.2,1.4l0,0l0.7-0.6c-0.3-0.3-0.5-0.5-0.8-0.7l0,0
									c-0.6-0.5-1.2-0.8-1.9-1c-0.7-0.2-1.3-0.2-1.7-0.1c-0.5,0-0.9,0.1-1.5-0.1c-0.7-0.2-1-0.4-1.3-0.7c-0.4-0.3-0.8-0.6-1.7-0.9
									c-0.7-0.2-1.2-0.2-1.6-0.2C105,256.2,104.7,256.5,104.5,256.9z"/>
							</g>
							<g>
								<path class="st2" d="M108.3,252.9c0.1,0.1,0.3,0.2,0.4,0.3c0.4,0.3,0.8,0.6,1.6,0.8c0.8,0.2,1.5,0.2,2.1,0.2
									c0.4,0,0.8,0,1.2,0.1c0.5,0.1,0.9,0.4,1.3,0.8c0.2,0.2,0.4,0.4,0.6,0.7l0.6-0.4l0.1-0.1c0-0.1-0.1-0.1-0.1-0.2
									c-0.4-0.5-0.7-0.9-1.2-1.1c-0.4-0.3-0.8-0.4-1.2-0.5c-0.5-0.1-0.9-0.1-1.3-0.1c-0.6,0-1.2,0-1.9-0.2
									c-0.7-0.2-0.9-0.4-1.3-0.7c-0.1-0.1-0.2-0.1-0.3-0.2C108.7,252.5,108.5,252.7,108.3,252.9z"/>
							</g>
							<g>
								<path class="st2" d="M104.8,285.2c0,0.4,0,0.8,0.1,1.2c0.3,0.2,0.6,0.3,0.9,0.3c0.6,0.1,1.2-0.1,1.7-0.3
									c0.7-0.2,1.2-0.4,1.9-0.1c0.2,0.1,0.6,0.4,1.4,1c0.4,0.3,0.8,0.6,1.4,0.9c0.3,0.1,0.6,0.3,0.9,0.3c0.8,0.2,1.3,0.2,1.8,0.1
									c0.4,0,0.8-0.1,1.4,0.1s1.2,0.5,1.7,1c0.1,0.1,0.3,0.2,0.4,0.4l0.7-0.6c-0.2-0.3-0.5-0.5-0.8-0.7c-0.5-0.5-1.1-0.8-1.8-1
									c-0.7-0.2-1.3-0.2-1.8-0.1c-0.4,0-0.9,0.1-1.5-0.1c-0.3-0.1-0.5-0.2-0.7-0.3c-0.5-0.3-0.8-0.5-1.2-0.8
									c-0.7-0.6-1.3-0.9-1.6-1.1c-0.9-0.5-1.8-0.2-2.5,0c-0.5,0.1-0.9,0.3-1.3,0.2C105.6,285.7,105.2,285.5,104.8,285.2z"/>
							</g>
							<g>
								<path class="st2" d="M105.1,279.2c0.5,0.9,1.2,1.4,2,1.7c0.6,0.2,1.1,0.2,1.5,0.1c0.5,0,0.9-0.1,1.7,0.1
									c0.7,0.2,1.1,0.5,1.4,0.7c0.4,0.3,0.8,0.6,1.7,0.8c0.8,0.2,1.4,0.2,1.9,0.1c0.5,0,0.9-0.1,1.5,0.1c0.8,0.2,1.6,0.7,2.3,1.5
									l0,0l0,0l0.7-0.6c-0.2-0.2-0.4-0.4-0.6-0.6l0,0c-0.7-0.5-1.4-0.9-2.2-1.1c-0.8-0.2-1.3-0.2-1.8-0.1c-0.5,0-0.9,0.1-1.6-0.1
									s-1-0.4-1.4-0.7c-0.4-0.3-0.9-0.6-1.8-0.9c-0.9-0.2-1.5-0.2-2-0.2c-0.4,0-0.7,0.1-1.1-0.1c-0.9-0.3-1.6-1.2-2.1-2.7
									c0,0.2,0,0.5,0,0.7C105.2,278.5,105.2,278.8,105.1,279.2z"/>
							</g>
							<g>
								<path class="st2" d="M105.3,271.9c0.5,0.9,1.1,1.5,1.8,1.7c0.4,0.1,0.7,0.1,1.1,0c0.5-0.1,1.1-0.1,2,0.1s1.3,0.5,1.8,0.8
									c0.4,0.2,0.7,0.4,1.4,0.6c0.7,0.1,1.1,0.1,1.6,0s1-0.1,1.8,0c0.5,0.1,1.1,0.3,1.6,0.6c0.2,0.1,0.4,0.2,0.6,0.4
									c0.2,0.2,0.5,0.4,0.7,0.6l-0.4,0.4l-0.2,0.2c-0.1-0.1-0.3-0.2-0.4-0.4c-0.6-0.5-1.3-0.8-2-1c-0.6-0.1-1-0.1-1.5,0
									s-1.1,0.1-1.9,0c-0.9-0.2-1.3-0.5-1.7-0.7c-0.4-0.3-0.7-0.5-1.4-0.6c-0.7-0.2-1.2-0.1-1.7,0s-0.9,0.1-1.5-0.1
									s-1.1-0.5-1.5-1L105.3,271.9z"/>
							</g>
						</g>
					</g>
					<g>
						<path class="st1" d="M170.9,314.1c-0.3,0.3-0.7,0.6-1,0.9l0,0c-0.5,0.5-1,0.9-1.4,1.4l0,0c-2.1,2.2-3.7,4.4-5,6.6
							c-0.1,0.2-0.3,0.5-0.4,0.7L163,324c-0.2,0.3-0.4,0.7-0.5,1c0,0.1-0.1,0.2-0.1,0.3l-0.1,0.1c-0.7,1.3-1.2,2.6-1.8,3.9l-0.1,0.3
							c-0.1,0.3-0.2,0.5-0.3,0.8c-0.2,0.4-0.3,0.8-0.5,1.2c-0.9,2.3-1.8,4.5-2.8,6.5l0,0c-0.2,0.4-0.4,0.8-0.7,1.2
							c-2.8,4.7-7.1,7.7-16.9,7.8c-0.1,0-0.2,0-0.2,0c-0.4-0.5-0.8-1-1.1-1.5c-10.9-14.7-7-18,1.7-29.4c-0.3-16,12.4-23.6,26.1-28.6
							c0.3-0.1,0.5-0.2,0.8-0.3c-0.3,1-0.3,2-0.3,3.1c0.2,3.5,1.9,7,3.5,10.6c0.1,0.3,0.3,0.7,0.4,1c0.7,1.6,1.3,3.2,1.7,4.8
							c0.1,0.5,0.2,0.9,0.3,1.3C172.2,310.2,172,312.2,170.9,314.1z"/>
						<g>
							<g>
								<path class="st2" d="M139.8,369.2c-0.7-8.1-0.9-15.6-0.7-22c0.1-4.2,0.5-7.9,1-11.1c0.1-0.4,0.1-0.8,0.2-1.1
									c0.4-1.9,0.8-3.7,1.3-5.1c0.2-0.5,0.3-0.9,0.5-1.4c0.3-0.7,0.6-1.3,1-1.8c0,0,1.2-1.7,3.1-4.4c0.3-0.4,0.6-0.8,0.9-1.2
									c1-1.3,2.2-2.9,3.4-4.5c1.6-2,3-3.7,4-4.8c0.4-0.4,0.7-0.8,0.9-1.1c0.1-0.1,0.2-0.2,0.3-0.3l0.2-0.3c1-1.1,1.9-2.4,2.9-4
									c0.3-0.4,0.5-0.9,0.8-1.3l0,0c0.7-1.2,1.3-2.4,2-3.8c0.2-0.4,0.4-0.8,0.6-1.2c1.3-2.7,2.5-5.8,3.8-9.3c-0.1-1,0-2.1,0.3-3.1
									c-0.3,0.1-0.5,0.2-0.8,0.3c-1.7,4.9-3.3,9.1-5.1,12.6c0,0.1-0.1,0.2-0.1,0.3c-1.7,3.6-3.5,6.4-5.3,8.5l-0.2,0.2
									c-0.7,0.9-2.7,3.2-5.2,6.3c-4.6,5.8-7.5,10.2-7.5,10.2c-2.4,3.6-3.8,10.5-4.3,19.7c-0.3,6.5-0.1,14.2,0.6,22.6L139.8,369.2z
									"/>
							</g>
							<g>
								<path class="st2" d="M169.9,315c-0.5,0.5-1,0.9-1.4,1.4l0,0c-0.4,0-0.8,0-1.2-0.1c-0.7-0.2-1.1-0.5-1.5-0.9
									c-0.4-0.3-0.8-0.7-1.6-1c-0.8-0.3-1.3-0.3-1.8-0.3c-0.6,0-1.2,0-2.1-0.3s-1.4-0.8-1.9-1.1c-0.4-0.3-0.8-0.6-1.5-0.9
									c-0.7-0.2-1.4-0.3-2.3-0.2c-0.3,0-0.5,0.1-0.8,0.1l-0.2-1c0.7-0.2,1.3-0.2,2-0.2c0.6,0,1.1,0.1,1.6,0.3
									c0.9,0.3,1.4,0.7,1.8,1.1c0.4,0.3,0.8,0.7,1.5,0.9c0.7,0.3,1.2,0.3,1.7,0.2c0.6,0,1.2,0,2.2,0.3c1,0.4,1.5,0.8,2,1.1
									c0.4,0.3,0.6,0.5,1.1,0.7C168.2,315.5,169,315.4,169.9,315z"/>
							</g>
							<g>
								<path class="st2" d="M171.9,308.2c-0.2-0.1-0.4-0.2-0.5-0.3c-0.5-0.3-0.9-0.5-1.8-0.7c-0.8-0.2-1.3-0.1-1.8,0
									s-1.2,0.2-2.1,0c-1-0.2-1.5-0.5-2-0.8s-0.9-0.5-1.6-0.6c-1-0.2-2-0.1-3.1,0.3h-0.1l-0.4-1c0.4-0.2,0.8-0.3,1.3-0.4l0,0
									c0.9-0.2,1.7-0.2,2.5,0c0.9,0.2,1.4,0.5,1.9,0.8s0.9,0.5,1.7,0.7c0.8,0.2,1.2,0.1,1.7,0c0.6-0.1,1.2-0.2,2.2,0
									c0.8,0.2,1.4,0.4,1.8,0.7C171.7,307.3,171.8,307.7,171.9,308.2z"/>
							</g>
							<g>
								<path class="st2" d="M170,302c-0.2,0-0.4,0.1-0.6,0.1c-0.5,0.1-1.1,0.3-2.1,0.1c-1-0.2-1.8-0.5-2.4-0.9
									c-0.5-0.2-0.8-0.4-1.3-0.5c-0.6-0.1-1.2-0.1-1.9,0.1c-0.3,0.1-0.7,0.2-1,0.4l-0.4-0.7l-0.1-0.2c0.1-0.1,0.2-0.1,0.3-0.1
									c0.6-0.3,1.2-0.5,1.8-0.6c0.5-0.1,1-0.1,1.5,0s1,0.4,1.5,0.6c0.6,0.3,1.2,0.6,2.1,0.8c0.8,0.1,1.2,0.1,1.7-0.1
									c0.1,0,0.3-0.1,0.4-0.1C169.7,301.4,169.8,301.7,170,302z"/>
							</g>
							<g>
								<path class="st2" d="M156.7,338.2c-0.2,0.4-0.4,0.8-0.7,1.2c-0.4,0-0.8,0-1.2-0.1c-0.7-0.2-1.2-0.7-1.7-1.2
									c-0.6-0.6-1.1-1.1-1.9-1.1c-0.3,0-0.9,0-2,0.3c-0.6,0.1-1.2,0.2-1.9,0.3c-0.3,0-0.7,0-1.1-0.1c-1-0.2-1.5-0.5-2-0.8
									s-0.9-0.5-1.6-0.6c-0.8-0.1-1.6-0.1-2.4,0.2c-0.2,0.1-0.4,0.1-0.6,0.2l-0.4-1c0.4-0.2,0.8-0.3,1.2-0.4
									c0.8-0.2,1.6-0.2,2.4-0.1c0.9,0.2,1.4,0.5,1.9,0.8s0.9,0.5,1.7,0.7c0.3,0.1,0.6,0.1,0.9,0.1c0.7,0,1.1-0.1,1.7-0.2
									c1.1-0.2,1.8-0.3,2.3-0.3c1.2,0,2,0.7,2.7,1.4c0.4,0.4,0.8,0.8,1.3,0.9C155.6,338.4,156.1,338.4,156.7,338.2z"/>
							</g>
							<g>
								<path class="st2" d="M159.5,331.7c-1,0.6-2,0.9-3,0.8c-0.8-0.1-1.2-0.4-1.7-0.7c-0.5-0.3-1-0.6-1.9-0.7
									c-0.9-0.2-1.4-0.1-1.9,0c-0.6,0.1-1.2,0.2-2.3,0c-1-0.2-1.6-0.5-2.1-0.9c-0.5-0.3-0.9-0.5-1.7-0.7c-1-0.2-2.1-0.1-3.2,0.3
									l0,0h-0.1l-0.4-1c0.3-0.1,0.7-0.2,1-0.3l0,0c1-0.2,2-0.3,2.9-0.1c1,0.2,1.5,0.5,2,0.8s1,0.5,1.8,0.7s1.3,0.1,1.8,0
									c0.6-0.1,1.2-0.2,2.4,0c1.1,0.2,1.7,0.6,2.2,0.9c0.4,0.3,0.8,0.4,1.3,0.5c1.1,0.1,2.3-0.5,3.7-1.7c-0.1,0.3-0.2,0.5-0.3,0.8
									C159.8,330.9,159.6,331.3,159.5,331.7z"/>
							</g>
							<g>
								<path class="st2" d="M162.2,325.5c-0.7,0.3-1.5,0.4-2.2,0.2c-0.7-0.1-1.2-0.4-1.6-0.7c-0.5-0.3-0.9-0.6-1.8-0.8
									c-0.9-0.2-1.3-0.1-1.9-0.1c-0.6,0.1-1.2,0.1-2.2-0.1c-1-0.3-1.5-0.6-2-1c-0.4-0.3-0.9-0.6-1.6-0.8c-0.8-0.2-1.7-0.2-2.7,0
									c-0.2,0-0.4,0.1-0.6,0.2l-0.1-0.3l-0.2-0.7c0.3-0.1,0.7-0.2,1-0.3c0.3,0,0.6-0.1,0.8-0.1c0.7,0,1.4,0,2,0.2
									c0.9,0.2,1.4,0.6,1.9,0.9s0.9,0.6,1.7,0.8c0.8,0.2,1.3,0.1,1.8,0.1c0.6-0.1,1.2-0.2,2.3,0.1c1.1,0.3,1.7,0.7,2.1,1
									s0.7,0.5,1.2,0.5c0.9,0.2,1.8-0.1,2.9-0.9L162.2,325.5z"/>
							</g>
						</g>
					</g>
					<g>
						<g>
							<path class="st1" d="M162.3,424.3c0-0.2-0.1-0.5-0.1-0.7c-0.5-0.1-1-0.1-1.5-0.2c-17.2-1.7-23.3,1.6-25.5,5.1
								c-0.9,1.5-5,8.8-9,11.8c-4.6,3.6-6.6,1.3-12.1,5.5c-12.1,9.8-5.8,16.5-16.2,26.1c-0.4,0.4-0.8,0.8-1.3,1.2
								c0.5,0.2,0.9,0.4,1.4,0.5c5.9,2.2,10.8,3.1,14.8,3.1c0.4,0,0.8,0,1.2,0c1.8-0.1,3.3-0.3,4.7-0.6c0.5-0.1,0.9-0.2,1.3-0.3
								c0.8-0.2,1.5-0.5,2.1-0.8c1.1-0.4,1.9-0.9,2.7-1.3c0.4-0.2,0.8-0.5,1.1-0.7c3.2-2.3,4.6-5.1,11.4-8.6
								c2.8-1.5,5.4-2.5,7.7-3.4c0.4-0.1,0.8-0.3,1.1-0.4c1.5-0.5,2.8-0.9,4-1.3l0,0c0.6-0.2,1.1-0.3,1.7-0.5
								c2.5-0.7,4.6-1.4,6.3-2.5c0.2-0.1,0.4-0.2,0.5-0.3c0.6-0.4,1.1-0.9,1.7-1.5l0,0C163.6,450.5,165.7,442.4,162.3,424.3z"/>
						</g>
						<g>
							<g>
								<path class="st2" d="M184.8,414.6l-0.5-1.6c-8.6,2.7-16.5,6.2-23.6,10.4c-6.9,4.1-13,8.9-18.4,14.4
									c-4.2,4.4-6.5,7.1-9.5,10.8c-0.9,1.1-1.8,2.2-2.9,3.5c-7.3,8.7-18,15.3-31.9,19.8c-0.4,0.4-0.8,0.8-1.3,1.2
									c0.5,0.2,0.9,0.4,1.4,0.5c4.7-1.5,9.1-3.2,13.1-5.2c0.6-0.3,1.1-0.6,1.7-0.9c1.6-0.8,3.1-1.7,4.5-2.6c0.5-0.3,1.1-0.7,1.6-1
									c1.6-1,3-2.1,4.4-3.2c0.6-0.5,1.1-0.9,1.7-1.4c2.2-1.9,4.3-4,6.1-6.1c1.1-1.3,2.1-2.5,2.9-3.5c1.5-1.9,2.9-3.4,4.3-5.1
									c0.4-0.5,0.8-0.9,1.3-1.4l0,0c1.1-1.2,2.3-2.6,3.8-4.1c0.4-0.4,0.8-0.8,1.2-1.2c0.4-0.4,0.8-0.9,1.3-1.3
									c1.8-1.7,3.7-3.4,5.6-4.9c0.4-0.4,0.9-0.7,1.4-1c2.9-2.2,6-4.3,9.3-6.2C169.1,420.4,176.6,417.1,184.8,414.6z"/>
							</g>
							<g>
								<path class="st2" d="M126,472.9c-0.1-1,0-1.6,0.2-2.2c0.2-0.7,0.3-1.5,0.1-2.8c-0.2-1.3-0.6-2-1-2.7
									c-0.3-0.6-0.7-1.2-0.8-2.1c-0.2-1.2,0-2.4,0.5-3.7l0,0c0-0.1,0.1-0.2,0.1-0.4l-1.1-0.5c-0.4,0.8-0.6,1.5-0.7,2.3
									c-0.2,0.8-0.2,1.6-0.1,2.4c0.2,1.2,0.6,1.9,0.9,2.6c0.4,0.6,0.7,1.2,0.9,2.3c0.2,1.1,0.1,1.7-0.1,2.4
									c-0.2,0.7-0.3,1.5-0.1,2.9c0,0.1,0,0.2,0.1,0.3C125.2,473.4,125.6,473.1,126,472.9z"/>
							</g>
							<g>
								<path class="st2" d="M120,475.7L120,475.7c0.2-0.8,0.4-1.6,0.1-2.9c-0.2-1.3-0.6-2-1-2.7c-0.3-0.6-0.6-1.2-0.8-2.2
									c-0.2-1.3,0-2.6,0.5-4c0-0.1,0.1-0.2,0.1-0.3l-1.1-0.5c-0.3,0.6-0.5,1.2-0.6,1.8c-0.2,1.1-0.3,2.1-0.1,3.2
									c0.2,1.2,0.6,1.9,0.9,2.6c0.4,0.6,0.7,1.2,0.9,2.3c0.2,1.1,0.1,1.7-0.1,2.3c0,0.2-0.1,0.4-0.1,0.7
									C119.2,475.9,119.6,475.8,120,475.7z"/>
							</g>
							<g>
								<path class="st2" d="M114,476.7c0-0.2,0-0.4-0.1-0.7c-0.2-1.4-0.7-2.3-1.1-3.2c-0.3-0.6-0.5-1.1-0.7-1.7
									c-0.2-1,0-2.2,0.6-3.6l0,0c0-0.1,0.1-0.2,0.2-0.3l-1.1-0.6c-0.3,0.6-0.6,1.2-0.8,1.8c-0.3,1.1-0.4,2-0.2,3
									c0.2,0.7,0.5,1.3,0.8,2c0.4,0.8,0.8,1.7,1,2.8c0,0.2,0,0.4,0,0.5C113.2,476.7,113.6,476.7,114,476.7z"/>
							</g>
							<g>
								<path class="st2" d="M160.4,449.7c-0.5-0.8-1.2-1.4-1.9-1.9c-0.9-0.7-1.7-1.2-1.9-2.4c-0.1-0.4-0.1-1.1-0.1-2.8
									c0-0.8,0-1.5-0.1-2.6c-0.1-0.5-0.2-0.9-0.4-1.5c-0.5-1.2-1-1.8-1.5-2.4c-0.5-0.5-0.9-1-1.2-1.9c-0.4-1.1-0.5-2.4-0.2-3.8
									c0-0.1,0-0.2,0-0.3l-1.2-0.3c-0.1,0.6-0.2,1.1-0.2,1.6c-0.1,1.1,0.1,2.2,0.4,3.1c0.4,1.2,1,1.7,1.5,2.3
									c0.5,0.5,0.9,1.1,1.3,2.1c0.2,0.4,0.3,0.8,0.3,1.2c0.1,0.9,0.1,1.6,0.1,2.3c0,1.4,0,2.4,0.1,3.1c0.3,1.6,1.4,2.4,2.4,3.1
									c0.6,0.5,1.2,0.9,1.6,1.5c0.7,1.2,0.3,3.2-1.2,5.9c0.2-0.1,0.4-0.2,0.5-0.3c0.6-0.4,1.1-0.9,1.7-1.5l0,0
									C161,452.4,161,450.9,160.4,449.7z"/>
							</g>
							<g>
								<path class="st2" d="M152.5,454c-0.3-0.9-0.7-1.4-1.2-2c-0.4-0.5-0.9-1.1-1.3-2.2s-0.4-1.8-0.4-2.4c0-0.8,0-1.6-0.5-2.8
									c-0.5-1.2-1-1.8-1.5-2.4c-0.5-0.5-0.9-1-1.2-1.9c-0.4-1.1-0.6-2.4-0.4-3.8c0-0.2,0-0.4,0.1-0.5l-1.2-0.2
									c-0.1,0.7-0.2,1.4-0.2,2.1c0,1,0.2,2,0.5,2.9c0.4,1.1,0.9,1.7,1.5,2.3c0.5,0.5,0.9,1.1,1.3,2.1s0.4,1.6,0.4,2.3
									c0,0.7,0,1.6,0.5,2.9s1.1,2,1.6,2.6c0.4,0.5,0.7,0.8,0.9,1.5c0.4,1.3,0,2.9-1.2,4.8c0.6-0.2,1.1-0.3,1.7-0.5
									C152.7,456.9,152.9,455.4,152.5,454z"/>
							</g>
							<g>
								<path class="st2" d="M146.1,460.4c-0.3-0.8-0.7-1.4-1.1-1.8c-0.5-0.5-0.9-1.1-1.4-2.2c-0.4-1.1-0.4-1.7-0.4-2.4
									c0-0.7,0-1.5-0.5-2.8c-0.5-1.2-1-1.8-1.5-2.4c-0.5-0.5-0.9-1-1.2-1.9c-0.4-1.1-0.6-2.4-0.4-3.7l0,0c0-0.2,0.1-0.4,0.1-0.6
									l-1.2-0.2c-0.1,0.8-0.2,1.5-0.2,2.3l0,0c0,0.9,0.2,1.9,0.5,2.7c0.4,1.1,1,1.7,1.5,2.3c0.5,0.5,0.9,1.1,1.3,2.1
									s0.4,1.6,0.4,2.3c0,0.8,0,1.6,0.5,2.9s1.1,2,1.6,2.5c0.4,0.5,0.7,0.8,0.9,1.5C145.4,460.7,145.8,460.6,146.1,460.4z"/>
							</g>
						</g>
					</g>
					<g>
						<g>
							<path class="st1" d="M88.9,322.1c0.2-0.2,0.3-0.4,0.5-0.6c-0.3-0.4-0.6-0.8-0.9-1.2c-10.5-13.7-17.1-15.9-21.2-15.1
								c-1.7,0.3-9.8,2.4-14.8,1.5c-5.8-0.9-5.5-3.9-12.3-5c-15.5-2.1-16,7.1-30.1,6c-0.5,0-1.1-0.1-1.7-0.2
								c0.2,0.5,0.4,0.9,0.6,1.4c2.4,5.9,5.2,10,7.9,12.9c0.3,0.3,0.6,0.6,0.9,0.9c1.3,1.2,2.5,2.2,3.7,3c0.4,0.3,0.8,0.5,1.1,0.7
								c0.7,0.4,1.4,0.8,2,1c1,0.5,1.9,0.8,2.8,1c0.5,0.1,0.9,0.2,1.3,0.3c3.9,0.7,6.9-0.1,14.1,2.4c3,1,5.5,2.2,7.7,3.3
								c0.4,0.2,0.7,0.4,1.1,0.5c1.3,0.7,2.6,1.4,3.7,2.1l0,0c0.5,0.3,1,0.6,1.5,0.9c2.3,1.3,4.2,2.4,6.1,2.9
								c0.2,0.1,0.4,0.1,0.6,0.2c0.7,0.1,1.4,0.2,2.2,0.2l0,0C70.7,341,78.1,336.9,88.9,322.1z"/>
						</g>
						<g>
							<g>
								<path class="st2" d="M111.4,331.8l0.8-1.4c-7.9-4.5-15.8-7.8-23.8-10.1c-7.7-2.2-15.4-3.4-23.1-3.5
									c-6.1-0.1-9.6,0.1-14.4,0.4c-1.4,0.1-2.9,0.2-4.6,0.3c-11.3,0.6-23.5-2.6-36.3-9.7c-0.5,0-1.1-0.1-1.7-0.2
									c0.2,0.5,0.4,0.9,0.6,1.4c4.3,2.4,8.6,4.4,12.8,6c0.6,0.2,1.2,0.4,1.8,0.6c1.7,0.6,3.3,1.1,5,1.5c0.6,0.2,1.2,0.3,1.9,0.4
									c1.8,0.4,3.6,0.8,5.3,1c0.7,0.1,1.5,0.2,2.2,0.3c2.9,0.3,5.8,0.4,8.6,0.3c1.7-0.1,3.2-0.2,4.6-0.3c2.4-0.1,4.5-0.3,6.7-0.3
									c0.6,0,1.3,0,1.9-0.1l0,0c1.7,0,3.5,0,5.6,0c0.6,0,1.1,0,1.7,0s1.2,0,1.8,0.1c2.5,0.1,5,0.4,7.4,0.8
									c0.6,0.1,1.1,0.2,1.7,0.3c3.6,0.6,7.3,1.4,10.9,2.5C96.4,324.3,103.9,327.5,111.4,331.8z"/>
							</g>
							<g>
								<path class="st2" d="M28.7,328.8c0.6-0.8,1.2-1.1,1.7-1.4c0.6-0.4,1.3-0.8,2.1-1.9c0.8-1,1-1.8,1.3-2.6c0.2-0.7,0.4-1.3,1-2
									c0.7-0.9,1.8-1.6,3-2.1l0,0c0.1-0.1,0.2-0.1,0.3-0.1l-0.4-1.2c-0.8,0.3-1.5,0.6-2.2,1s-1.3,1-1.8,1.6c-0.8,1-1,1.7-1.2,2.5
									c-0.2,0.7-0.4,1.3-1.1,2.2c-0.7,0.9-1.2,1.2-1.8,1.5c-0.6,0.4-1.4,0.8-2.2,1.9c-0.1,0.1-0.1,0.1-0.2,0.2
									C27.8,328.6,28.2,328.7,28.7,328.8z"/>
							</g>
							<g>
								<path class="st2" d="M22.5,326.4L22.5,326.4c0.7-0.4,1.4-0.8,2.2-1.9c0.8-1,1-1.9,1.3-2.6c0.2-0.7,0.4-1.3,1-2.1
									c0.8-1,1.9-1.8,3.3-2.4c0.1,0,0.2-0.1,0.3-0.1l-0.4-1.1c-0.6,0.2-1.2,0.5-1.7,0.8c-0.9,0.6-1.7,1.2-2.4,2.1
									c-0.7,0.9-1,1.7-1.2,2.4c-0.2,0.7-0.4,1.3-1.1,2.2c-0.6,0.9-1.2,1.2-1.8,1.5c-0.2,0.1-0.4,0.2-0.6,0.4
									C21.8,325.9,22.2,326.2,22.5,326.4z"/>
							</g>
							<g>
								<path class="st2" d="M17.7,322.7c0.1-0.1,0.3-0.3,0.4-0.5c0.8-1.1,1.2-2.1,1.6-3c0.2-0.6,0.4-1.2,0.8-1.7
									c0.6-0.9,1.6-1.6,3-2l0,0c0.1,0,0.2-0.1,0.3-0.1l-0.3-1.2c-0.7,0.2-1.3,0.4-1.8,0.6c-1,0.5-1.7,1.1-2.3,1.9
									c-0.4,0.6-0.6,1.2-0.9,1.9c-0.3,0.8-0.7,1.7-1.4,2.7c-0.1,0.1-0.2,0.3-0.3,0.4C17.1,322.1,17.4,322.4,17.7,322.7z"/>
							</g>
							<g>
								<path class="st2" d="M69.1,338c0.3-0.9,0.2-1.8,0.1-2.7c-0.1-1.1-0.2-2.1,0.4-3c0.2-0.3,0.7-0.9,2-2c0.6-0.5,1.1-1,1.8-1.8
									c0.3-0.4,0.5-0.8,0.8-1.3c0.6-1.2,0.6-2,0.7-2.8c0.1-0.7,0.1-1.3,0.6-2.2c0.5-1.1,1.4-2,2.6-2.7c0.1-0.1,0.2-0.1,0.3-0.2
									l-0.6-1c-0.5,0.3-0.9,0.6-1.3,1c-0.9,0.7-1.5,1.5-2,2.5c-0.5,1.1-0.6,1.9-0.7,2.7c-0.1,0.7-0.1,1.4-0.6,2.4
									c-0.2,0.4-0.4,0.7-0.6,1c-0.6,0.7-1,1.2-1.6,1.7c-1.1,0.9-1.8,1.7-2.1,2.2c-1,1.3-0.8,2.7-0.7,3.9c0.1,0.8,0.2,1.5,0,2.2
									c-0.4,1.3-2.2,2.4-5.1,3.1c0.2,0.1,0.4,0.1,0.6,0.2c0.7,0.1,1.4,0.2,2.2,0.2l0,0C67.6,340.4,68.7,339.3,69.1,338z"/>
							</g>
							<g>
								<path class="st2" d="M60.6,335.3c0.5-0.8,0.6-1.5,0.6-2.2c0.1-0.7,0.1-1.4,0.7-2.5c0.5-1,1-1.5,1.5-2c0.6-0.5,1.1-1,1.7-2.2
									c0.5-1.2,0.6-2,0.7-2.8c0.1-0.7,0.1-1.3,0.6-2.2c0.5-1.1,1.4-2.1,2.5-2.9c0.1-0.1,0.3-0.2,0.5-0.3l-0.6-1
									c-0.6,0.4-1.2,0.8-1.6,1.3c-0.7,0.7-1.3,1.5-1.8,2.4c-0.5,1.1-0.6,1.9-0.7,2.7c-0.1,0.7-0.1,1.4-0.6,2.4s-0.9,1.4-1.4,1.9
									s-1.2,1.1-1.8,2.3c-0.6,1.2-0.7,2.2-0.8,2.9c-0.1,0.6-0.1,1.1-0.5,1.7c-0.7,1.2-2.1,2-4.3,2.4c0.5,0.3,1,0.6,1.5,0.9
									C58.6,337.4,59.9,336.5,60.6,335.3z"/>
							</g>
							<g>
								<path class="st2" d="M51.5,335c0.4-0.8,0.5-1.4,0.6-2.1s0.2-1.4,0.7-2.5c0.5-1,1-1.5,1.5-2c0.6-0.5,1.1-1,1.7-2.2
									c0.5-1.2,0.6-2,0.7-2.8c0.1-0.7,0.1-1.3,0.6-2.2c0.5-1.1,1.3-2,2.5-2.9l0,0c0.1-0.1,0.3-0.2,0.5-0.3l-0.7-1
									c-0.7,0.4-1.3,0.9-1.8,1.4l0,0c-0.7,0.7-1.2,1.4-1.6,2.2c-0.5,1.1-0.6,1.9-0.7,2.7c-0.1,0.7-0.1,1.4-0.6,2.4
									s-0.9,1.4-1.4,1.9c-0.6,0.5-1.2,1.1-1.8,2.3c-0.6,1.3-0.7,2.2-0.8,2.9c-0.1,0.6-0.1,1.1-0.4,1.7
									C50.8,334.6,51.2,334.8,51.5,335z"/>
							</g>
						</g>
					</g>
					<g>
						<g>
							<path class="st1" d="M188.3,395.1c-0.2,0.1-0.5,0.2-0.7,0.3c-0.3-0.4-0.6-0.8-0.9-1.2c-10.4-13.8-10.7-20.7-8.8-24.4
								c0.8-1.5,4.9-8.8,5.5-13.8c0.7-5.8-2.3-6.3-1.5-13.2c2.1-15.5,11.1-13.5,13.9-27.4c0.1-0.5,0.2-1.1,0.3-1.7
								c0.4,0.3,0.8,0.6,1.2,0.9c5,3.9,8.2,7.6,10.3,11c0.2,0.4,0.4,0.7,0.6,1.1c0.9,1.5,1.5,3,1.9,4.4c0.2,0.4,0.3,0.9,0.4,1.3
								c0.2,0.8,0.4,1.5,0.5,2.2c0.2,1.1,0.2,2.1,0.2,3c0,0.5,0,0.9-0.1,1.3c-0.3,3.9-2,6.6-1.5,14.2c0.2,3.2,0.6,5.9,1.1,8.3
								c0.1,0.4,0.2,0.8,0.2,1.2c0.3,1.5,0.7,2.8,1,4.1l0,0c0.1,0.6,0.3,1.1,0.4,1.7c0.7,2.5,1.1,4.7,1.1,6.6c0,0.2,0,0.4,0,0.6
								c0,0.7-0.2,1.4-0.4,2.2l0,0C211.4,382.6,205.5,388.6,188.3,395.1z"/>
						</g>
						<g>
							<g>
								<path class="st2" d="M191.6,419.4l-1.6,0.4c-2.2-8.8-3.3-17.3-3.3-25.6c-0.1-8,0.9-15.8,2.8-23.2c1.6-5.9,2.7-9.2,4.3-13.8
									c0.5-1.3,0.9-2.7,1.5-4.3c3.6-10.7,3.8-23.3,0.4-37.5c0.1-0.5,0.2-1.1,0.3-1.7c0.4,0.3,0.8,0.6,1.2,0.9
									c1.2,4.8,1.9,9.5,2.3,13.9c0.1,0.6,0.1,1.3,0.1,1.9c0.1,1.8,0.2,3.5,0.2,5.2c0,0.6,0,1.3-0.1,1.9c0,1.8-0.2,3.6-0.4,5.4
									c-0.1,0.7-0.2,1.5-0.3,2.2c-0.5,2.9-1.2,5.7-2.1,8.4c-0.5,1.6-1,3-1.5,4.3c-0.8,2.3-1.5,4.2-2.1,6.4
									c-0.2,0.6-0.4,1.2-0.6,1.9l0,0c-0.5,1.6-1,3.3-1.5,5.4c-0.1,0.6-0.3,1.1-0.4,1.6c-0.2,0.6-0.3,1.2-0.4,1.8
									c-0.5,2.4-1,4.9-1.3,7.4c-0.1,0.6-0.1,1.1-0.2,1.7c-0.4,3.7-0.6,7.4-0.5,11.2C188.4,402.9,189.5,411,191.6,419.4z"/>
							</g>
							<g>
								<path class="st2" d="M210.9,338.9c-0.9,0.4-1.3,0.8-1.8,1.3s-1.1,1.1-2.4,1.6c-1.2,0.5-2,0.5-2.8,0.5c-0.7,0-1.3,0-2.2,0.4
									c-1.1,0.5-2.1,1.3-2.9,2.4l0,0c-0.1,0.1-0.2,0.2-0.2,0.3l-1-0.7c0.5-0.7,1-1.3,1.6-1.8c0.6-0.6,1.3-1,2-1.3
									c1.1-0.5,1.9-0.5,2.7-0.5c0.7,0,1.4,0,2.4-0.4s1.5-0.8,2-1.3s1.1-1.1,2.4-1.6c0.1,0,0.2-0.1,0.3-0.1
									C211,338,210.9,338.4,210.9,338.9z"/>
							</g>
							<g>
								<path class="st2" d="M210.3,332.3L210.3,332.3c-0.6,0.6-1.2,1.1-2.4,1.6c-1.2,0.5-2.1,0.5-2.8,0.5c-0.7,0-1.4,0.1-2.3,0.4
									c-1.2,0.5-2.3,1.3-3.2,2.5c-0.1,0.1-0.1,0.2-0.2,0.2l-1-0.7c0.4-0.5,0.8-1,1.2-1.4c0.8-0.8,1.7-1.3,2.6-1.7
									c1.1-0.5,1.9-0.5,2.7-0.5c0.7,0,1.4,0,2.4-0.4s1.4-0.8,1.9-1.3c0.2-0.2,0.3-0.3,0.5-0.5C210,331.5,210.2,331.9,210.3,332.3z
									"/>
							</g>
							<g>
								<path class="st2" d="M208,326.7c-0.2,0.1-0.4,0.2-0.6,0.3c-1.3,0.5-2.4,0.6-3.3,0.7c-0.7,0.1-1.2,0.1-1.8,0.3
									c-1,0.3-1.9,1.1-2.7,2.4l0,0c-0.1,0.1-0.1,0.2-0.2,0.3l-1.1-0.6c0.3-0.6,0.7-1.1,1.1-1.6c0.7-0.8,1.6-1.4,2.5-1.7
									c0.7-0.2,1.4-0.3,2.1-0.3c0.9-0.1,1.8-0.2,3-0.6c0.2-0.1,0.3-0.1,0.5-0.2C207.6,326,207.8,326.3,208,326.7z"/>
							</g>
							<g>
								<path class="st2" d="M209,380.3c-1,0-1.8-0.3-2.6-0.7c-1-0.4-1.9-0.8-3-0.4c-0.3,0.1-1,0.5-2.4,1.3
									c-0.7,0.4-1.3,0.8-2.2,1.2c-0.4,0.2-0.9,0.3-1.5,0.4c-1.3,0.2-2.1,0.1-2.9-0.1c-0.7-0.1-1.3-0.2-2.3,0
									c-1.2,0.2-2.3,0.8-3.3,1.8c-0.1,0.1-0.2,0.1-0.3,0.2l-0.8-0.9c0.4-0.4,0.8-0.7,1.3-1c0.9-0.6,1.9-1.1,2.9-1.3
									c1.2-0.2,2-0.1,2.7,0s1.4,0.2,2.5,0.1c0.4-0.1,0.8-0.2,1.2-0.3c0.8-0.3,1.4-0.7,2-1.1c1.2-0.8,2.1-1.3,2.7-1.5
									c1.5-0.6,2.8-0.1,3.9,0.4c0.7,0.3,1.4,0.6,2.1,0.5c1.4,0,2.9-1.4,4.4-4.1c0,0.2,0,0.4,0,0.6c0,0.7-0.2,1.4-0.4,2.2l0,0
									C211.6,379.5,210.3,380.3,209,380.3z"/>
							</g>
							<g>
								<path class="st2" d="M208.6,371.4c-0.9,0.2-1.6,0.1-2.3,0c-0.7-0.1-1.4-0.2-2.6,0c-1.1,0.2-1.7,0.6-2.3,0.9
									c-0.7,0.4-1.3,0.8-2.6,1c-1.3,0.2-2.1,0.1-2.9-0.1c-0.7-0.1-1.3-0.2-2.3-0.1c-1.2,0.2-2.4,0.8-3.4,1.6
									c-0.1,0.1-0.3,0.2-0.4,0.4l-0.8-0.9c0.5-0.5,1.1-0.9,1.7-1.2c0.9-0.5,1.8-0.9,2.8-1.1c1.2-0.2,2-0.1,2.7,0s1.4,0.2,2.4,0.1
									c1.1-0.2,1.6-0.5,2.2-0.9s1.3-0.8,2.7-1.1c1.4-0.3,2.3-0.1,3,0c0.6,0.1,1.1,0.2,1.8,0c1.3-0.4,2.5-1.5,3.5-3.5
									c0.1,0.6,0.3,1.1,0.4,1.7C211.2,370,210,371,208.6,371.4z"/>
							</g>
							<g>
								<path class="st2" d="M210.8,362.6c-0.9,0.2-1.5,0.1-2.2,0s-1.4-0.2-2.6,0c-1.1,0.2-1.7,0.6-2.3,0.9c-0.6,0.4-1.3,0.8-2.6,1
									c-1.3,0.2-2.1,0.1-2.9-0.1c-0.7-0.1-1.3-0.2-2.3-0.1c-1.2,0.2-2.3,0.7-3.4,1.6l0,0c-0.1,0.1-0.3,0.2-0.4,0.4l-0.8-0.9
									c0.6-0.5,1.2-1,1.8-1.3l0,0c0.8-0.5,1.7-0.8,2.6-0.9c1.2-0.2,2-0.1,2.7,0.1c0.7,0.1,1.4,0.2,2.4,0.1
									c1.1-0.2,1.6-0.5,2.2-0.9s1.4-0.8,2.7-1.1c1.4-0.2,2.3-0.1,3,0c0.6,0.1,1.1,0.2,1.7,0C210.6,361.8,210.7,362.2,210.8,362.6z
									"/>
							</g>
						</g>
					</g>
					<g>
						<g>
							<path class="st2" d="M54.2,218.9l-2.7,1c22.3,60.4,55.4,114.7,98.4,161.5c78,84.8,169.3,123.3,232.1,140.7l0.8-2.8
								C320.2,502,229.5,463.7,152,379.4C109.2,333,76.3,279,54.2,218.9z"/>
						</g>
						<g>
							<path class="st3" d="M74.9,246.4c0.1-3.6-2.7-6.7-6.3-6.8c-3.6-0.1-6.7,2.7-6.8,6.3c-0.1,3.6,2.7,6.7,6.3,6.8
								S74.8,250,74.9,246.4z"/>
							<path class="st4" d="M89,250.7c0.1-3.6-2.7-6.7-6.3-6.8c-3.6-0.1-6.7,2.7-6.8,6.3c-0.1,3.6,2.7,6.7,6.3,6.8
								C85.8,257.2,88.9,254.3,89,250.7z"/>
							<path class="st3" d="M159.9,390.4c0.8-3.5-1.3-7.1-4.9-7.9s-7.1,1.3-7.9,4.9c-0.8,3.5,1.3,7.1,4.9,7.9
								C155.5,396.1,159,393.9,159.9,390.4z"/>
							<path class="st4" d="M152.6,390.1c0.1-3.6-2.7-6.7-6.3-6.8c-3.6-0.1-6.7,2.7-6.8,6.3c-0.1,3.6,2.7,6.7,6.3,6.8
								C149.4,396.5,152.5,393.7,152.6,390.1z"/>
							<path class="st5" d="M167.2,395.3c0.8-3.5-1.3-7.1-4.9-7.9c-3.5-0.8-7.1,1.3-7.9,4.9c-0.8,3.5,1.3,7.1,4.9,7.9
								C162.8,401,166.4,398.8,167.2,395.3z"/>
							<path class="st5" d="M170.1,377.9c0.8-3.5-1.3-7.1-4.9-7.9c-3.5-0.8-7.1,1.3-7.9,4.9c-0.8,3.5,1.3,7.1,4.9,7.9
								C165.7,383.6,169.3,381.4,170.1,377.9z"/>
							<path class="st5" d="M155,384c0.8-3.5-1.3-7.1-4.9-7.9s-7.1,1.3-7.9,4.9s1.3,7.1,4.9,7.9C150.6,389.7,154.1,387.5,155,384z"
								/>
							<path class="st3" d="M163.7,377.7c0.1-3.6-2.7-6.7-6.3-6.8c-3.6-0.1-6.7,2.7-6.8,6.3c-0.1,3.6,2.7,6.7,6.3,6.8
								C160.5,384.2,163.5,381.4,163.7,377.7z"/>
							<path class="st3" d="M147.4,379.3c0.1-3.6-2.7-6.7-6.3-6.8c-3.6-0.1-6.7,2.7-6.8,6.3c-0.1,3.6,2.7,6.7,6.3,6.8
								C144.2,385.8,147.3,383,147.4,379.3z"/>
							<path class="st4" d="M156.5,374.5c0.1-3.6-2.7-6.7-6.3-6.8c-3.6-0.1-6.7,2.7-6.8,6.3c-0.1,3.6,2.7,6.7,6.3,6.8
								C153.3,380.9,156.4,378.1,156.5,374.5z"/>
							<path class="st4" d="M169.1,387.5c0.1-3.6-2.7-6.7-6.3-6.8c-3.6-0.1-6.7,2.7-6.8,6.3c-0.1,3.6,2.7,6.7,6.3,6.8
								C165.9,393.9,168.9,391.1,169.1,387.5z"/>
							<path class="st3" d="M130.3,353c0.8-3.5-1.3-7.1-4.9-7.9c-3.5-0.8-7.1,1.3-7.9,4.9c-0.8,3.5,1.3,7.1,4.9,7.9
								C125.9,358.7,129.4,356.5,130.3,353z"/>
							<path class="st4" d="M123,352.7c0.1-3.6-2.7-6.7-6.3-6.8c-3.6-0.1-6.7,2.7-6.8,6.3c-0.1,3.6,2.7,6.7,6.3,6.8
								C119.8,359.1,122.9,356.3,123,352.7z"/>
							<path class="st5" d="M137.6,357.8c0.8-3.5-1.3-7.1-4.9-7.9c-3.5-0.8-7.1,1.3-7.9,4.9c-0.8,3.5,1.3,7.1,4.9,7.9
								C133.2,363.5,136.8,361.3,137.6,357.8z"/>
							<path class="st5" d="M140.5,340.5c0.8-3.5-1.3-7.1-4.9-7.9c-3.5-0.8-7.1,1.3-7.9,4.9c-0.8,3.5,1.3,7.1,4.9,7.9
								C136.1,346.2,139.7,344,140.5,340.5z"/>
							<path class="st5" d="M125.4,346.6c0.8-3.5-1.3-7.1-4.9-7.9c-3.5-0.8-7.1,1.3-7.9,4.9c-0.8,3.5,1.3,7.1,4.9,7.9
								C121,352.3,124.5,350.1,125.4,346.6z"/>
							<path class="st3" d="M134.1,340.3c0.1-3.6-2.7-6.7-6.3-6.8c-3.6-0.1-6.7,2.7-6.8,6.3c-0.1,3.6,2.7,6.7,6.3,6.8
								C130.9,346.7,133.9,343.9,134.1,340.3z"/>
							<path class="st3" d="M117.8,341.9c0.1-3.6-2.7-6.7-6.3-6.8c-3.6-0.1-6.7,2.7-6.8,6.3c-0.1,3.6,2.7,6.7,6.3,6.8
								S117.7,345.5,117.8,341.9z"/>
							<path class="st4" d="M126.9,337c0.1-3.6-2.7-6.7-6.3-6.8c-3.6-0.1-6.7,2.7-6.8,6.3c-0.1,3.6,2.7,6.7,6.3,6.8
								C123.7,343.5,126.8,340.7,126.9,337z"/>
							<path class="st4" d="M139.5,350.1c0.1-3.6-2.7-6.7-6.3-6.8c-3.6-0.1-6.7,2.7-6.8,6.3c-0.1,3.6,2.7,6.7,6.3,6.8
								C136.3,356.5,139.3,353.7,139.5,350.1z"/>
							<path class="st3" d="M102.2,318c0.8-3.5-1.3-7.1-4.9-7.9c-3.5-0.8-7.1,1.3-7.9,4.9c-0.8,3.5,1.3,7.1,4.9,7.9
								C97.8,323.7,101.4,321.5,102.2,318z"/>
							<path class="st4" d="M95,317.7c0.1-3.6-2.7-6.7-6.3-6.8c-3.6-0.1-6.7,2.7-6.8,6.3c-0.1,3.6,2.7,6.7,6.3,6.8
								S94.8,321.3,95,317.7z"/>
							<path class="st5" d="M109.6,322.9c0.8-3.5-1.3-7.1-4.9-7.9s-7.1,1.3-7.9,4.9c-0.8,3.5,1.3,7.1,4.9,7.9
								C105.2,328.6,108.7,326.4,109.6,322.9z"/>
							<path class="st5" d="M112.5,305.5c0.8-3.5-1.3-7.1-4.9-7.9c-3.5-0.8-7.1,1.3-7.9,4.9c-0.8,3.5,1.3,7.1,4.9,7.9
								C108.1,311.2,111.6,309,112.5,305.5z"/>
							<path class="st5" d="M97.3,311.6c0.8-3.5-1.3-7.1-4.9-7.9c-3.5-0.8-7.1,1.3-7.9,4.9c-0.8,3.5,1.3,7.1,4.9,7.9
								C92.9,317.3,96.5,315.1,97.3,311.6z"/>
							<path class="st3" d="M106,305.3c0.1-3.6-2.7-6.7-6.3-6.8c-3.6-0.1-6.7,2.7-6.8,6.3c-0.1,3.6,2.7,6.7,6.3,6.8
								C102.8,311.8,105.9,309,106,305.3z"/>
							<path class="st3" d="M89.8,306.9c0.1-3.6-2.7-6.7-6.3-6.8c-3.6-0.1-6.7,2.7-6.8,6.3c-0.1,3.6,2.7,6.7,6.3,6.8
								C86.6,313.4,89.6,310.6,89.8,306.9z"/>
							<path class="st4" d="M98.9,302.1c0.1-3.6-2.7-6.7-6.3-6.8c-3.6-0.1-6.7,2.7-6.8,6.3c-0.1,3.6,2.7,6.7,6.3,6.8
								C95.7,308.5,98.7,305.7,98.9,302.1z"/>
							<path class="st4" d="M111.4,315.1c0.1-3.6-2.7-6.7-6.3-6.8c-3.6-0.1-6.7,2.7-6.8,6.3c-0.1,3.6,2.7,6.7,6.3,6.8
								C108.2,321.5,111.3,318.7,111.4,315.1z"/>
							<path class="st3" d="M79.3,274.7c0.8-3.5-1.3-7.1-4.9-7.9s-7.1,1.3-7.9,4.9c-0.8,3.5,1.3,7.1,4.9,7.9
								C74.9,280.4,78.4,278.2,79.3,274.7z"/>
							<path class="st4" d="M72,274.4c0.1-3.6-2.7-6.7-6.3-6.8c-3.6-0.1-6.7,2.7-6.8,6.3c-0.1,3.6,2.7,6.7,6.3,6.8
								C68.8,280.8,71.9,278,72,274.4z"/>
							<path class="st5" d="M86.6,279.5c0.8-3.5-1.3-7.1-4.9-7.9s-7.1,1.3-7.9,4.9s1.3,7.1,4.9,7.9
								C82.2,285.2,85.8,283.1,86.6,279.5z"/>
							<path class="st5" d="M79.8,253.6c0.8-3.5-1.3-7.1-4.9-7.9c-3.5-0.8-7.1,1.3-7.9,4.9c-0.8,3.5,1.3,7.1,4.9,7.9
								C75.4,259.3,79,257.2,79.8,253.6z"/>
							<path class="st5" d="M66.3,256.9c0.8-3.5-1.3-7.1-4.9-7.9c-3.5-0.8-7.1,1.3-7.9,4.9c-0.8,3.5,1.3,7.1,4.9,7.9
								C62,262.6,65.5,260.4,66.3,256.9z"/>
							<path class="st5" d="M89.5,262.2c0.8-3.5-1.3-7.1-4.9-7.9c-3.5-0.8-7.1,1.3-7.9,4.9c-0.8,3.5,1.3,7.1,4.9,7.9
								C85.1,267.9,88.7,265.7,89.5,262.2z"/>
							<path class="st5" d="M74.4,268.3c0.8-3.5-1.3-7.1-4.9-7.9c-3.5-0.8-7.1,1.3-7.9,4.9s1.3,7.1,4.9,7.9
								C70,274,73.5,271.8,74.4,268.3z"/>
							<path class="st3" d="M83,262c0.1-3.6-2.7-6.7-6.3-6.8c-3.6-0.1-6.7,2.7-6.8,6.3c-0.1,3.6,2.7,6.7,6.3,6.8
								C79.8,268.4,82.9,265.6,83,262z"/>
							<path class="st3" d="M66.8,263.6c0.1-3.6-2.7-6.7-6.3-6.8c-3.6-0.1-6.7,2.7-6.8,6.3c-0.1,3.6,2.7,6.7,6.3,6.8
								C63.6,270,66.7,267.2,66.8,263.6z"/>
							<path class="st4" d="M75.9,258.7c0.1-3.6-2.7-6.7-6.3-6.8c-3.6-0.1-6.7,2.7-6.8,6.3c-0.1,3.6,2.7,6.7,6.3,6.8
								C72.7,265.2,75.8,262.4,75.9,258.7z"/>
							<path class="st4" d="M88.5,271.8c0.1-3.6-2.7-6.7-6.3-6.8c-3.6-0.1-6.7,2.7-6.8,6.3c-0.1,3.6,2.7,6.7,6.3,6.8
								C85.3,278.2,88.3,275.4,88.5,271.8z"/>
							<path class="st3" d="M195.8,404.1c0.1-3.6-2.7-6.7-6.3-6.8c-3.6-0.1-6.7,2.7-6.8,6.3c-0.1,3.6,2.7,6.7,6.3,6.8
								C192.6,410.5,195.6,407.7,195.8,404.1z"/>
							<path class="st4" d="M209.9,408.4c0.1-3.6-2.7-6.7-6.3-6.8s-6.7,2.7-6.8,6.3c-0.1,3.6,2.7,6.7,6.3,6.8S209.7,412,209.9,408.4
								z"/>
							<path class="st3" d="M200.1,432.4c0.8-3.5-1.3-7.1-4.9-7.9s-7.1,1.3-7.9,4.9c-0.8,3.5,1.3,7.1,4.9,7.9
								S199.2,435.9,200.1,432.4z"/>
							<path class="st4" d="M192.8,432.1c0.1-3.6-2.7-6.7-6.3-6.8c-3.6-0.1-6.7,2.7-6.8,6.3c-0.1,3.6,2.7,6.7,6.3,6.8
								C189.6,438.5,192.7,435.7,192.8,432.1z"/>
							<path class="st5" d="M207.5,437.2c0.8-3.5-1.3-7.1-4.9-7.9s-7.1,1.3-7.9,4.9c-0.8,3.5,1.3,7.1,4.9,7.9
								C203.1,442.9,206.6,440.7,207.5,437.2z"/>
							<path class="st5" d="M200.6,411.3c0.8-3.5-1.3-7.1-4.9-7.9c-3.5-0.8-7.1,1.3-7.9,4.9c-0.8,3.5,1.3,7.1,4.9,7.9
								C196.2,417,199.8,414.8,200.6,411.3z"/>
							<path class="st5" d="M187.2,414.6c0.8-3.5-1.3-7.1-4.9-7.9s-7.1,1.3-7.9,4.9s1.3,7.1,4.9,7.9
								C182.8,420.3,186.3,418.1,187.2,414.6z"/>
							<path class="st5" d="M210.3,419.9c0.8-3.5-1.3-7.1-4.9-7.9s-7.1,1.3-7.9,4.9c-0.8,3.5,1.3,7.1,4.9,7.9
								C205.9,425.6,209.5,423.4,210.3,419.9z"/>
							<path class="st5" d="M195.2,426c0.8-3.5-1.3-7.1-4.9-7.9c-3.5-0.8-7.1,1.3-7.9,4.9c-0.8,3.5,1.3,7.1,4.9,7.9
								C190.8,431.7,194.3,429.5,195.2,426z"/>
							<path class="st3" d="M203.9,419.7c0.1-3.6-2.7-6.7-6.3-6.8c-3.6-0.1-6.7,2.7-6.8,6.3c-0.1,3.6,2.7,6.7,6.3,6.8
								S203.7,423.3,203.9,419.7z"/>
							<path class="st3" d="M187.6,421.3c0.1-3.6-2.7-6.7-6.3-6.8c-3.6-0.1-6.7,2.7-6.8,6.3c-0.1,3.6,2.7,6.7,6.3,6.8
								S187.5,424.9,187.6,421.3z"/>
							<path class="st4" d="M196.7,416.4c0.1-3.6-2.7-6.7-6.3-6.8c-3.6-0.1-6.7,2.7-6.8,6.3c-0.1,3.6,2.7,6.7,6.3,6.8
								C193.5,422.9,196.6,420.1,196.7,416.4z"/>
							<path class="st4" d="M209.3,429.5c0.1-3.6-2.7-6.7-6.3-6.8c-3.6-0.1-6.7,2.7-6.8,6.3c-0.1,3.6,2.7,6.7,6.3,6.8
								C206.1,435.9,209.2,433.1,209.3,429.5z"/>
							<path class="st3" d="M243.3,456c-2.8-2.3-6.9-1.9-9.2,0.9s-1.9,6.9,0.9,9.2s6.9,1.9,9.2-0.9
								C246.5,462.4,246.1,458.3,243.3,456z"/>
							<path class="st4" d="M255.3,447.4c-2.8-2.3-6.9-1.9-9.2,0.9s-1.9,6.9,0.9,9.2c2.8,2.3,6.9,1.9,9.2-0.9
								C258.5,453.8,258.1,449.7,255.3,447.4z"/>
							<path class="st3" d="M268.5,469.7c-2.3-2.8-6.4-3.2-9.2-0.9c-2.8,2.3-3.2,6.4-0.9,9.2s6.4,3.2,9.2,0.9
								S270.7,472.5,268.5,469.7z"/>
							<path class="st4" d="M263.8,475.2c-2.8-2.3-6.9-1.9-9.2,0.9s-1.9,6.9,0.9,9.2c2.8,2.3,6.9,1.9,9.2-0.9
								C267,481.7,266.6,477.6,263.8,475.2z"/>
							<path class="st5" d="M276.8,466.8c-2.3-2.8-6.4-3.2-9.2-0.9c-2.8,2.3-3.2,6.4-0.9,9.2s6.4,3.2,9.2,0.9
								S279.1,469.6,276.8,466.8z"/>
							<path class="st5" d="M252,456.5c-2.3-2.8-6.4-3.2-9.2-0.9c-2.8,2.3-3.2,6.4-0.9,9.2s6.4,3.2,9.2,0.9
								C253.9,463.4,254.3,459.3,252,456.5z"/>
							<path class="st5" d="M246.5,469.2c-2.3-2.8-6.4-3.2-9.2-0.9c-2.8,2.3-3.2,6.4-0.9,9.2c2.3,2.8,6.4,3.2,9.2,0.9
								C248.4,476.1,248.8,472,246.5,469.2z"/>
							<path class="st5" d="M264.7,454c-2.3-2.8-6.4-3.2-9.2-0.9s-3.2,6.4-0.9,9.2c2.3,2.8,6.4,3.2,9.2,0.9S267,456.8,264.7,454z"/>
							<path class="st5" d="M260.4,469.7c-2.3-2.8-6.4-3.2-9.2-0.9c-2.8,2.3-3.2,6.4-0.9,9.2s6.4,3.2,9.2,0.9
								S262.7,472.5,260.4,469.7z"/>
							<path class="st3" d="M260.7,459c-2.8-2.3-6.9-1.9-9.2,0.9s-1.9,6.9,0.9,9.2c2.8,2.3,6.9,1.9,9.2-0.9
								C263.8,465.4,263.5,461.3,260.7,459z"/>
							<path class="st3" d="M252.1,472.9c-2.8-2.3-6.9-1.9-9.2,0.9s-1.9,6.9,0.9,9.2c2.8,2.3,6.9,1.9,9.2-0.9
								C255.3,479.3,254.9,475.2,252.1,472.9z"/>
							<path class="st4" d="M253.7,462.7c-2.8-2.3-6.9-1.9-9.2,0.9s-1.9,6.9,0.9,9.2c2.8,2.3,6.9,1.9,9.2-0.9
								C256.9,469.1,256.5,465,253.7,462.7z"/>
							<path class="st4" d="M271.7,460.6c-2.8-2.3-6.9-1.9-9.2,0.9s-1.9,6.9,0.9,9.2c2.8,2.3,6.9,1.9,9.2-0.9
								C274.9,467,274.5,462.9,271.7,460.6z"/>
						</g>
					</g>
					<g>
						<path class="st1" d="M53.9,203.2c-5.5-9.4-19.3-7.6-24.7-18c-1.4-2.6-1.8-5.4-1.9-7.7c0-1.2,0.1-2.3,0.2-3.3l-0.1,0.1
							c-0.2,0.3-0.3,0.5-0.5,0.7c-0.2,0.3-0.4,0.6-0.6,1c-1.5,2.5-2.7,4.8-3.7,6.8c-1.1,2.3-1.8,4.4-2.3,6.3c0,0.1-0.1,0.2-0.1,0.3
							c-0.1,0.5-0.2,0.9-0.3,1.3c-0.1,0.4-0.1,0.9-0.2,1.3c-0.2,1.3-0.2,2.5-0.1,3.6c0,0.1,0,0.2,0,0.3c0.1,0.6,0.2,1.2,0.3,1.7
							c0.1,0.3,0.2,0.6,0.3,0.9l0,0c0.2,0.5,0.4,0.9,0.6,1.3c0.3,0.6,0.6,1,0.9,1.4c0.1,0.1,0.2,0.2,0.3,0.4
							c0.5,0.6,1.1,1.1,1.7,1.7c0.2,0.2,0.5,0.4,0.7,0.6c1.1,1,2.4,2.4,4,4.9c1.5,2.5,2.4,4.6,3,6.4c0,0.1,0.1,0.2,0.1,0.3
							c0.2,0.5,0.3,0.9,0.5,1.4c0.1,0.3,0.2,0.6,0.3,0.9c0.5,1.2,1,2.3,1.9,3.4c0.1,0.1,0.1,0.1,0.2,0.2c0.2,0.3,0.5,0.5,0.8,0.8
							c0.2,0.2,0.4,0.4,0.6,0.5c0,0,0.1,0,0.1,0.1c1.2,0.9,2.4,1.5,3.5,1.8l0,0c0.1,0,0.2,0.1,0.3,0.1h0.1c0.4,0.1,0.7,0.2,1,0.3
							l0,0c1.9,0.4,3.4,0.4,3.8,0.3c4.5-0.3,7.6-2.8,8.9-4.1c0.1-0.1,0.2-0.2,0.3-0.3c0.1-0.1,0.2-0.2,0.2-0.2s0-0.1,0.1-0.1
							c0.1-0.2,0.1-0.3,0.2-0.5C57.1,211.7,55.8,206.5,53.9,203.2z"/>
						<g>
							<g>
								<path class="st2" d="M54.5,220.5c-0.9-0.9-1.8-1.6-2.7-2.1c-0.3-0.1-3.1-1.5-6.7-3.2c-1.4-0.7-2.6-1.2-3.4-1.5
									c-4.3-2.5-7.8-5.8-10.4-9.8c-6.1-9.4-5.3-19.8-4-26.3c0-1.2,0.1-2.3,0.2-3.3l-0.1,0.1c-0.2,0.3-0.3,0.5-0.5,0.7
									c-0.2,0.3-0.4,0.6-0.6,1c-0.8,3.3-1.5,7.9-1.2,13c0,0.3,0.1,0.7,0.1,1c0.2,1.7,0.5,3.5,0.9,5.3c0.1,0.3,0.2,0.7,0.3,1
									c0.5,1.8,1.2,3.5,2.1,5.3c0.2,0.3,0.4,0.7,0.5,1c0.3,0.6,0.7,1.2,1.1,1.8c2.2,3.4,5,6.3,8.4,8.7c0.4,0.3,0.8,0.5,1.2,0.8
									c0.4,0.3,0.8,0.5,1.3,0.8c0.8,0.4,2,0.9,3.4,1.5c0.2,0.1,0.3,0.2,0.5,0.2c0.5,0.2,1,0.5,1.5,0.7c2.3,1.1,4,1.9,4.5,2.2
									c0.1,0,0.1,0,0.1,0.1c0.4,0.2,0.8,0.5,1.2,0.8l0,0c0.4,0.3,0.9,0.8,1.3,1.2c0.1-0.1,0.2-0.2,0.3-0.3
									c0.1-0.1,0.2-0.2,0.2-0.2s0-0.1,0.1-0.1C54.4,220.9,54.4,220.7,54.5,220.5z"/>
							</g>
							<g>
								<path class="st2" d="M24.6,204.2c0.1-0.1,0.2-0.2,0.3-0.3c0.4-0.4,0.8-0.7,1.5-0.9c0.9-0.3,1.8-0.4,2.8-0.2l0.3,0.1l0.2-0.9
									c-0.3-0.1-0.7-0.1-1-0.2c-0.9-0.1-1.8,0-2.6,0.3c-0.9,0.3-1.3,0.7-1.8,1.1c-0.1,0.1-0.3,0.2-0.4,0.3
									C24.1,203.8,24.3,204,24.6,204.2z"/>
							</g>
							<g>
								<path class="st2" d="M20.4,198.8C20.4,198.7,20.4,198.8,20.4,198.8c0.9-0.4,1.4-0.8,1.8-1.2s0.8-0.7,1.5-0.9
									c0.8-0.3,1.8-0.4,2.8-0.2h0.2l0.2-0.9c-0.2-0.1-0.5-0.1-0.7-0.1c-1-0.1-2,0-2.9,0.3s-1.3,0.7-1.8,1.1
									c-0.4,0.3-0.8,0.7-1.5,1C20.2,198.2,20.3,198.5,20.4,198.8z"/>
							</g>
							<g>
								<path class="st2" d="M19.8,192.2c0.6-0.3,0.9-0.6,1.3-0.9c0.4-0.4,0.8-0.7,1.5-0.9c0.8-0.3,1.7-0.4,2.7-0.2
									c0.1,0,0.2,0,0.4,0.1l0.2-0.9c-0.2,0-0.4-0.1-0.6-0.1c-1.1-0.1-2.1-0.1-3,0.3c-0.9,0.3-1.3,0.7-1.8,1.1
									c-0.1,0.1-0.3,0.3-0.4,0.4C19.9,191.3,19.8,191.8,19.8,192.2z"/>
							</g>
							<g>
								<path class="st2" d="M41.1,225.4L41.1,225.4c0.2-0.2,0.4-0.3,0.7-0.4c0.4-0.1,1.1-0.3,2-0.4c0.6-0.1,1.2-0.2,1.9-0.4
									c0.3-0.1,0.7-0.3,1-0.5c0.8-0.5,1.2-1,1.6-1.5c0.3-0.4,0.6-0.8,1.3-1.1c0.8-0.4,1.7-0.7,2.8-0.6l0,0c0.1,0,0.1,0,0.2,0
									l0.1-1c-0.6,0-1.1,0-1.7,0.1c-0.7,0.1-1.3,0.3-1.9,0.7c-0.8,0.5-1.2,0.9-1.6,1.4c-0.3,0.4-0.7,0.8-1.3,1.2
									c-0.3,0.2-0.6,0.3-0.8,0.4c-0.7,0.2-1.1,0.3-1.7,0.4c-0.4,0.1-1.6,0.2-2.3,0.5c-0.6,0.2-1.1,0.6-1.4,1.1
									C40.4,225.2,40.7,225.3,41.1,225.4z"/>
							</g>
							<g>
								<path class="st2" d="M36.1,223.1c0.3-0.4,0.6-0.7,1.3-1.1c0.7-0.4,1.2-0.5,1.8-0.6c0.6-0.1,1.2-0.2,2-0.7s1.2-1,1.6-1.4
									c0.3-0.4,0.6-0.8,1.3-1.2c0.7-0.4,1.5-0.7,2.4-0.7c0.3,0,0.5,0,0.8,0v-1c-0.8,0-1.6,0.1-2.3,0.3c-0.5,0.1-0.9,0.3-1.4,0.6
									c-0.8,0.5-1.2,0.9-1.5,1.4c-0.4,0.4-0.7,0.8-1.4,1.2s-1.1,0.5-1.7,0.6s-1.2,0.2-2.1,0.7c-0.8,0.5-1.2,0.9-1.6,1.3
									C35.5,222.7,35.7,222.8,36.1,223.1C36,223.1,36,223.1,36.1,223.1z"/>
							</g>
							<g>
								<path class="st2" d="M32.5,218.1c0.5-0.1,1-0.2,1.8-0.7s1.2-1,1.6-1.5c0.3-0.4,0.6-0.8,1.3-1.2c0.8-0.5,1.7-0.7,2.7-0.7
									c0.2,0,0.3,0,0.5,0v-1c-0.6,0-1.2,0-1.8,0.2c-0.7,0.1-1.3,0.4-1.9,0.7c-0.8,0.5-1.2,0.9-1.5,1.4c-0.4,0.4-0.7,0.8-1.4,1.2
									c-0.7,0.4-1.1,0.5-1.6,0.6C32.2,217.5,32.4,217.8,32.5,218.1z"/>
							</g>
						</g>
					</g>
				</g>
			</g>
		</g>
	</g>
</g>
<g>
	
		<ellipse transform="matrix(0.4936 -0.8697 0.8697 0.4936 61.3787 191.1722)" class="st3" cx="194.8" cy="42.9" rx="34.5" ry="17.5"/>
	<path class="st6" d="M206.6,22.3c-0.9-0.6-8.6,9.5-13.9,18.4C186,51.9,181,65.1,182,65.6C183.9,66.6,208.3,23.4,206.6,22.3z"/>
</g>
<g>
	<ellipse transform="matrix(0.9798 -0.1999 0.1999 0.9798 -27.9858 22.2094)" class="st3" cx="96" cy="149.7" rx="15.6" ry="30.7"/>
	<path class="st6" d="M91.7,129c-0.9,0.1-0.3,11.4,1.4,20.5c2.1,11.5,6.5,23.3,7.5,23C102.4,172.1,93.6,128.8,91.7,129z"/>
</g>
<g>
	
		<ellipse transform="matrix(0.5997 -0.8002 0.8002 0.5997 -175.7322 376.9088)" class="st3" cx="288.9" cy="364.1" rx="14.3" ry="28.2"/>
	<path class="st6" d="M273.3,352.5c-0.6,0.7,6.8,8,13.4,13.2c8.4,6.6,18.6,12,19.1,11.2C306.9,375.5,274.4,351.2,273.3,352.5z"/>
</g>
<g>
	
		<ellipse transform="matrix(0.4936 -0.8697 0.8697 0.4936 -425.0894 336.6451)" class="st3" cx="76.5" cy="533.3" rx="34.5" ry="17.5"/>
	<path class="st6" d="M88.2,512.7c-0.9-0.6-8.6,9.5-13.9,18.4c-6.7,11.2-11.7,24.5-10.7,25C65.5,557,89.9,513.8,88.2,512.7z"/>
</g>
<g>
	
		<ellipse transform="matrix(0.9265 -0.3762 0.3762 0.9265 -182.8744 162.0523)" class="st3" cx="323.5" cy="549.3" rx="14.3" ry="28.2"/>
	<path class="st6" d="M316.2,531.3c-0.8,0.3,1.7,10.3,4.7,18.2c3.8,10,9.8,19.9,10.6,19.5C333.1,568.3,317.8,530.8,316.2,531.3z"/>
</g>
<g>
	
		<ellipse transform="matrix(0.9716 -0.2366 0.2366 0.9716 -175.3811 50.8626)" class="st3" cx="124.2" cy="756.2" rx="16.6" ry="32.8"/>
	<path class="st6" d="M118.8,734.3c-1,0.2,0.2,12.2,2.3,21.8c2.7,12.1,7.9,24.5,8.9,24.2C132,779.7,120.8,733.9,118.8,734.3z"/>
</g>
<g>
	<polygon class="st1" points="238.3,146.8 231.2,106.2 329,122 310.1,158.4 	"/>
	<path class="st7" d="M236,157.1l71.8,11.6c1,7.4,2.8,18.7,6.3,32.1c5,19.6,9.3,27.2,7.6,39c-0.9,6.5-3.8,15.4-13,25.6
		c-34-5.3-67.9-10.7-101.9-16c-3.6-4.7-8.3-12.5-8-22.7c0.3-10.6,5.9-17.4,17.9-36.5C221.3,182.7,228.1,171.5,236,157.1z"/>
	<polygon class="st7" points="236,157.1 228.9,116.5 326.7,132.3 307.8,168.7 	"/>
	<g>
		<path class="st8" d="M309.9,191.7l-83.8-13.5c-2.5-0.4-3.8-3.2-2.5-5.4l4.5-7.4l0.4-0.6l4.1-6.8c0.5-0.8,0.6-1.7,0.4-2.6l-0.3-1.5
			l-0.1-0.6l-0.9-4.8c-0.5-2.5,1.6-4.7,4.1-4.3l76,12.3c0.1,0,0.3,0.1,0.4,0.1c2.2,0.6,3.3,3.1,2.2,5.2L311,168
			c-0.4,0.7-0.5,1.6-0.4,2.4l0.6,2.8l0.1,0.6l2.1,10.4l0.1,0.6l0.5,2.5C314.5,189.9,312.4,192.1,309.9,191.7z"/>
		<g>
			<path class="st7" d="M255.5,147.3c-0.4,0.3-0.8,0.6-1.5,0.8s-1.4,0.3-2.1,0.6c-0.9,0.4-1.5,1-1.9,1.9c-0.7,1.2-1.1,2.6-2,3.6
				c-2.1,2.2-5.5,1.6-8,0.7c-2-0.7-3.9-1.5-6.1-1.3c-0.4,0-0.7,0.1-1,0.2l-0.1-0.6c1.1-0.3,2.3-0.3,3.4-0.1c3.2,0.5,6.6,3,10,1.6
				c2.8-1.2,2.5-4.9,5-6.3c1-0.6,2.5-0.5,3.5-1.2L255.5,147.3z"/>
		</g>
		<g>
			<path class="st7" d="M250.7,182.1L250,182c0.2-0.9,0.4-1.8,0.5-2.7c0.2-2.3-1-3.9-3.3-4.2c-1.8-0.3-3.6-0.3-5.4-0.6
				c-1.4-0.2-3.1-0.4-4.3-1.3c-1-0.7-1.3-1.9-1.6-3.1c-0.4-1.7-1-2.9-2.6-3.7s-3.3-1-5.1-1.1l0.4-0.6c1.9,0.1,3.8,0.3,5.5,1.4
				c1,0.6,1.8,1.5,2.2,2.7c0.6,1.8,0.5,3.6,2.5,4.3c1.9,0.8,4.3,1,6.3,1.1c1.5,0.1,3.1,0.1,4.3,0.9
				C251.9,176.8,251.2,179.6,250.7,182.1z"/>
		</g>
		<g>
			<path class="st7" d="M267.6,181.6c-0.2,1.1-0.4,2.1-0.7,3.2l-0.6-0.1c0.3-1.4,0.6-2.8,0.8-4.2c0.4-2.4,1-5,0.5-7.5
				c-1-5-6.8-4.9-10.8-5.4c-1.9-0.2-4.4-0.6-5.7-2.1c-1.1-1.2-0.3-3,0.5-4.2c1.9-3,5.5-4.4,8.3-6.4c2.2-1.6,3.9-3.7,5-6.1l0.7,0.1
				c-0.9,2.3-2.5,4.4-4.5,6c-2.9,2.3-7,3.6-9,6.9c-0.3,0.4-0.5,0.9-0.6,1.3c-0.3,1.1,0,1.8,0.9,2.4c1,0.6,2.3,1,3.5,1.2
				c2.2,0.4,4.5,0.3,6.6,0.8c1.6,0.4,3.3,1.1,4.4,2.3c1.2,1.4,1.6,3.2,1.6,4.9C268.5,177.1,268,179.4,267.6,181.6z"/>
		</g>
		<g>
			<path class="st7" d="M312.2,156.5c-1,0.8-2.2,1.4-3.4,2c-2,1.2-3.4,2.7-4.9,4.5c-1.2,1.4-2.5,2.9-4.3,3.6
				c-1.6,0.6-3.5,0.5-5.1-0.2c-1.8-0.8-2.8-2.2-3.7-3.9c-1.4-2.6-4-2.9-6.7-2.7c-2.3,0.1-4.6,0.3-6.6-1c-2.9-1.8-3.8-5.4-2.7-8.3
				l0.7,0.1c-0.8,1.8-0.7,3.9,0.4,5.7c1.4,2.3,3.8,3.1,6.4,3c3.3-0.1,7.2-0.7,9,2.7c1,1.7,1.8,3.1,3.7,3.9c1.8,0.7,3.9,0.7,5.5-0.3
				c1.5-0.9,2.6-2.4,3.8-3.8c1.1-1.4,2.3-2.6,3.8-3.5c1.1-0.6,2.3-1.2,3.4-1.9l0.4,0.1C312,156.5,312.1,156.5,312.2,156.5z"/>
		</g>
		<g>
			<path class="st7" d="M311.3,173.9c-1.9,1.1-4.1,1.7-6.1,1.9c-4.5,0.5-8.5-0.7-12.5-2.7c-2.1-1.1-4.4-1.7-6.5-0.2
				c-1.9,1.4-2.4,3.4-2,5.6c0.4,2,0.2,3.6-1,5.3c-1,1.3-2.2,2.2-3.5,3.1l-0.9-0.2c1.4-0.9,2.8-1.9,3.9-3.2c0.8-1.1,1.3-2.3,1.2-3.7
				c-0.1-1-0.5-2-0.4-3c0.1-3.1,3-5.8,6.1-5.5c2.2,0.2,4.1,1.7,6.1,2.5c2.3,0.9,4.7,1.4,7.2,1.4s5.9-0.5,8.3-2L311.3,173.9z"/>
		</g>
		<g>
			<path class="st7" d="M313.5,184.9c-2.2,1-4.7,1.4-7.1,1.1c-3.4-0.3-6.6-1.8-10.1-1.2c-2.4,0.4-4,2-4.8,3.9l-0.7-0.1
				c0.5-1.4,1.4-2.6,2.6-3.4c2.4-1.6,5.4-1.3,8.1-0.8c3.3,0.7,6.4,1.4,9.7,0.6c0.7-0.2,1.4-0.4,2.1-0.7L313.5,184.9z"/>
		</g>
	</g>
	<path class="st9" d="M308.6,265.7c-34-5.3-67.9-10.7-101.9-16c-3.6-4.7-8.3-12.5-8-22.7c0.2-6.8,2.6-12,7.5-20l114.6,18.5
		c1.2,5,1.6,9.4,0.8,14.7C320.7,246.6,317.8,255.5,308.6,265.7z"/>
	<line class="st10" x1="230.6" y1="156.3" x2="314.3" y2="169.8"/>
	<line class="st10" x1="263.5" y1="161.6" x2="254.3" y2="218.5"/>
	<line class="st10" x1="258.9" y1="158.9" x2="251.2" y2="206.2"/>
	<circle class="st1" cx="261.6" cy="160.3" r="5.6"/>
	
		<rect x="253.3" y="210.2" transform="matrix(0.1594 -0.9872 0.9872 0.1594 -42.0317 471.4088)" class="st1" width="5" height="100.4"/>
</g>
<g>
	
		<rect x="162.8" y="540.8" transform="matrix(0.9738 -0.2276 0.2276 0.9738 -119.8831 59.3742)" class="st11" width="69.4" height="17.4"/>
	
		<rect x="169.2" y="586.4" transform="matrix(0.9738 -0.2276 0.2276 0.9738 -142.4192 67.5215)" class="st11" width="104.7" height="129.8"/>
	<polygon class="st11" points="155.7,600 165.7,565.9 233.3,550.1 257.7,576.1 	"/>
	<polygon class="st8" points="161.8,549 153,551 156.8,567.2 146.2,601.3 175.9,728.6 185.3,726.4 155.7,600 165.7,565.9 	"/>
	<g>
		<g>
			<g>
				
					<ellipse transform="matrix(0.2827 -0.9592 0.9592 0.2827 -404.1528 625.7859)" class="st3" cx="216.3" cy="583.1" rx="8.8" ry="4.5"/>
				<path class="st6" d="M218.1,577.3c-0.3-0.1-1.6,2.9-2.4,5.4c-1,3.2-1.5,6.8-1.2,6.8C215,589.7,218.6,577.5,218.1,577.3z"/>
			</g>
			<g>
				
					<ellipse transform="matrix(0.9086 -0.4176 0.4176 0.9086 -221.8547 138.2773)" class="st3" cx="205.1" cy="576.1" rx="4.5" ry="8.8"/>
				<path class="st6" d="M202.6,570.6c-0.2,0.1,0.7,3.2,1.7,5.6c1.3,3.1,3.3,6.1,3.6,5.9C208.4,581.9,203,570.4,202.6,570.6z"/>
			</g>
			<g>
				
					<ellipse transform="matrix(0.4018 -0.9157 0.9157 0.4018 -420.7049 536.6485)" class="st3" cx="200.4" cy="590.3" rx="4.5" ry="8.8"/>
				<path class="st6" d="M194.9,587.9c-0.1,0.2,2.6,2,5,3.1c3,1.4,6.5,2.3,6.6,2.1C206.7,592.5,195.1,587.4,194.9,587.9z"/>
			</g>
		</g>
		<g>
			<g>
				<g>
					<g>
						<path class="st7" d="M193.8,627.3c-5.8,1.3-11.5-2.2-12.9-8c-1.3-5.8,2.2-11.5,8-12.9c0.8-0.2,1.5-0.3,2.3-0.3h0.2v0.2
							c0.1,1,0.4,2.1,0.6,3.1l0.1,0.2c0.1,0.2,0.1,0.5,0.2,0.7l0.1,0.4l-0.4-0.1c-0.7-0.1-1.4,0-2.1,0.1c-3.3,0.8-5.3,4.1-4.6,7.4
							c0.8,3.3,4.1,5.3,7.4,4.6c1.9-0.4,3.4-1.7,4.2-3.5l0.2-0.4l0.3,0.3c0.3,0.3,0.6,0.6,0.9,0.9c0.7,0.7,1.4,1.3,2.2,1.9l0.2,0.2
							l-0.1,0.2C199,624.9,196.6,626.6,193.8,627.3z M189.1,606.9c-5.5,1.3-8.9,6.8-7.6,12.2c1.3,5.5,6.8,8.9,12.2,7.6
							c2.6-0.6,4.8-2.2,6.2-4.4c-0.7-0.5-1.4-1.2-2-1.8l0,0c-0.2-0.2-0.4-0.4-0.6-0.6c-0.9,1.7-2.5,3-4.4,3.4c-3.6,0.8-7.2-1.4-8-5
							s1.4-7.2,5-8c0.6-0.1,1.3-0.2,1.9-0.2c0-0.1-0.1-0.2-0.1-0.3l-0.1-0.2c-0.3-1-0.5-2-0.6-3
							C190.3,606.7,189.7,606.8,189.1,606.9z"/>
					</g>
				</g>
				<g>
					<path class="st7" d="M222.9,624.5l-12.3,2.8c-0.3-0.1-0.7-0.2-1.2-0.3h-0.1h-0.1c-2.3-0.6-5.7-1.8-9.1-4.5
						c-0.8-0.6-1.5-1.3-2.2-2c-0.3-0.3-0.6-0.6-0.9-0.9c-0.2-0.3-0.5-0.6-0.7-0.8c0-0.1-0.1-0.1-0.1-0.1v-0.1
						c-0.7-0.9-1.3-1.8-1.9-2.8c-0.1-0.1-0.1-0.2-0.1-0.2c-0.9-1.6-1.7-3.3-2.2-5.1c-0.1-0.2-0.2-0.5-0.2-0.7l-0.1-0.2
						c-0.3-1.1-0.5-2.1-0.7-3.2l-0.1-1.2l0.6-0.1l0.1,1.2c0.1,1,0.4,2.1,0.6,3.1l0.1,0.2c0.1,0.2,0.1,0.5,0.2,0.7
						c0.5,1.7,1.3,3.4,2.2,5c0,0.1,0.1,0.1,0.1,0.2c0.6,1,1.2,1.9,1.9,2.7l0,0c0,0.1,0.1,0.1,0.1,0.2c0.2,0.3,0.4,0.5,0.7,0.8
						c0.3,0.3,0.6,0.6,0.9,0.9c0.7,0.7,1.4,1.3,2.2,1.9c3.3,2.6,6.6,3.8,8.9,4.4l0.2,0.1c0.4,0.1,0.8,0.2,1.1,0.2l12-2.8
						c1.8-1.3,3.5-3,4.9-4.9c0,0,0.1-0.1,0.1-0.2c0.4-0.6,0.8-1.2,1.2-1.8c0.1-0.1,0.1-0.1,0.1-0.2c1-1.6,1.8-3.4,2.3-5.2
						c1-3.4,1.3-6.9,0.8-10.5V601v-0.1c-0.3-1.8-0.7-3.2-1-4.1l-0.1-0.2c0-0.1,0-0.1-0.1-0.2c-0.1,0.1-0.1,0.1-0.2,0.2
						c-1.9,1.7-9.7,4.4-19,6.5c-9.3,2.2-17.5,3.2-20,2.6l0.1-0.5c2.3,0.6,10.6-0.5,19.7-2.6s17-4.8,18.8-6.4
						c0.1-0.1,0.2-0.2,0.3-0.3c0-0.1,0-0.1,0-0.1v-0.3l0.5-0.1l0.1,0.2c0.1,0.2,0.2,0.5,0.3,0.8l0.1,0.2c0.3,0.9,0.8,2.4,1.1,4.2
						v0.1v0.1c0.5,3.7,0.3,7.3-0.8,10.8c-0.6,1.9-1.4,3.6-2.4,5.3c0,0.1-0.1,0.1-0.1,0.2c-0.4,0.6-0.8,1.2-1.2,1.8
						c-0.1,0.1-0.1,0.1-0.1,0.2C226.5,621.3,224.8,623.1,222.9,624.5L222.9,624.5z"/>
				</g>
				<g>
					<path class="st7" d="M211.6,603.2c-9.3,2.2-17.5,3.2-20,2.6c-0.2-0.1-0.4-0.1-0.5-0.2c-0.2-0.1-0.3-0.2-0.3-0.3l0,0v-0.1
						c-0.5-2.1,11.4-5.6,19.5-7.5s20.3-4,20.8-1.9v0.1c0,0.2,0,0.3-0.1,0.5c-0.1,0.1-0.2,0.3-0.4,0.4
						C228.8,598.4,221,601.1,211.6,603.2z M191.3,605.1C191.3,605.1,191.4,605.1,191.3,605.1c0.2,0.1,0.3,0.2,0.5,0.2
						c2.3,0.6,10.6-0.5,19.7-2.6c9.1-2.1,17-4.8,18.8-6.4c0.1-0.1,0.2-0.2,0.3-0.3c0-0.1,0-0.1,0-0.1l0,0c-0.3-0.8-7.2-0.7-20.2,2.4
						C197.6,601.2,191.3,604.1,191.3,605.1L191.3,605.1L191.3,605.1L191.3,605.1z M230.8,595.8L230.8,595.8L230.8,595.8L230.8,595.8
						z"/>
				</g>
			</g>
		</g>
	</g>
</g>
</svg>
