<?xml version="1.0" encoding="utf-8"?>
<!-- Generator: Adobe Illustrator 26.3.1, SVG Export Plug-In . SVG Version: 6.00 Build 0)  -->
<svg version="1.1" id="Capa_1" xmlns="http://www.w3.org/2000/svg" xmlns:xlink="http://www.w3.org/1999/xlink" x="0px" y="0px"
	 viewBox="0 0 436.4 971.2" style="enable-background:new 0 0 436.4 971.2;" xml:space="preserve">
<style type="text/css">
	.st0{fill:#3BABA7;}
	.st1{fill:#78DE8D;}
	.st2{fill:#3C6381;}
	.st3{fill:#093D62;}
	.st4{fill:#FFFFFF;}
	.st5{fill:none;stroke:#6A87CA;stroke-miterlimit:10;}
	.st6{fill:#F8963A;}
	.st7{fill:#E35039;}
	.st8{fill:#E83006;}
	.st9{fill:#B41640;}
	.st10{fill:none;stroke:#FFFFFF;stroke-width:1;stroke-miterlimit:9.9996;}
	.st11{fill:#6D0D27;}
	.st12{fill:#2F7634;}
	.st13{fill:none;stroke:#266129;stroke-width:2.98;stroke-linecap:round;stroke-linejoin:round;}
	.st14{fill:#1F4E00;}
	.st15{fill:#419946;}
	.st16{fill:#266129;}
	.st17{fill:none;stroke:#266129;stroke-width:2.68;stroke-linecap:round;stroke-linejoin:round;}
	.st18{fill:#E4191D;}
	.st19{fill:#A61800;}
	.st20{fill:#FF9496;}
	.st21{fill:#FF2227;}
	.st22{fill:#FF561E;}
	.st23{fill:#FF916F;}
	.st24{fill:#A2133A;}
	.st25{fill:#C71847;}
	.st26{fill:#FFE3A0;}
</style>
<g>
	<g>
		<path class="st0" d="M231.9,757.2c0.3,1.3,0.5,2.6,0.5,3.8c0,1-0.1,2-0.3,3c0,0.1,0,0.1,0,0.2c-0.8,3.8-2.7,6.6-3.9,8l-0.1,0.1
			H228c-6.6-2.5-9.7-5.9-11.2-8.6c-2.4-4.1-1.9-7.6-4.9-9.7c-2.6-1.9-6.3-1.4-8.9-0.7l0,0c-0.1,0-0.2,0.1-0.4,0.1c0,0,0,0-0.1,0
			c1.5-3.3,3.9-6,6.7-7.8c0.1,0,0.1-0.1,0.2-0.1c1.9-1.1,3.9-1.9,6-2.2c0.1,0,0.1,0,0.2,0c0.6-0.1,1.2-0.1,1.8-0.1
			c1.2,0,2.3,0.2,3.4,0.6l0.2,0.1c3.7,1.2,6.7,4.1,8.7,7.5c0,0,0.1,0.1,0.1,0.2c1,1.7,1.7,3.6,2.2,5.5
			C231.8,757.1,231.9,757.1,231.9,757.2L231.9,757.2z"/>
		<g>
			<path class="st1" d="M228,767.3c0,0.2,0,0.4,0.1,0.6l0,0c0.1,1.4,0.2,2.8,0.1,4.2l-0.1,0.1H228c0.1-1.5,0-2.9-0.1-4.3l0,0l0,0
				c-0.4-4.2-1.6-8.1-3.5-11.3c-2.7-4.6-6.4-7.5-10.4-7.9c-1.1-0.1-2.2,0-3.2,0.2h-0.1c-3.2,0.7-6,2.8-7.8,4.4l0,0
				c-0.1,0-0.2,0.1-0.4,0.1c1.2-1.1,2.4-2,3.6-2.8c1.5-0.9,2.9-1.5,4.4-1.9c0.1,0,0.1,0,0.2,0c1.1-0.2,2.2-0.3,3.3-0.2
				c0.3,0,0.5,0.1,0.8,0.1l0,0c0.1,0,0.2,0,0.2,0c1.4,0.3,2.7,0.9,4,1.7c0.1,0.1,0.2,0.1,0.3,0.2c1.8,1.2,3.4,3,4.8,5.2l0,0
				c0.1,0.1,0.1,0.1,0.1,0.2c0.1,0.2,0.2,0.3,0.3,0.5c0.8,1.4,1.5,3,2.1,4.7l0,0c0,0.1,0.1,0.2,0.1,0.4
				C227.3,763.3,227.7,765.2,228,767.3L228,767.3z"/>
			<path class="st1" d="M215.6,743.3c-0.1,0.2-0.2,0.4-0.4,0.5c-0.4,0.5-0.8,1.1-0.9,1.9c-0.2,0.9,0.1,1.9,0.7,2.9l0,0l-0.1,0.1
				l-0.1-0.1c-0.6-1-0.8-2-0.7-2.9c0.2-0.9,0.6-1.4,1-2c0.1-0.1,0.2-0.3,0.3-0.4C215.4,743.3,215.5,743.3,215.6,743.3L215.6,743.3z"
				/>
			<path class="st1" d="M210.9,748.7L210.9,748.7l-0.1,0.1l0,0c-0.1,0-0.1-0.1-0.1-0.1c-0.8-0.8-1.3-1.7-1.4-2.6c0-0.2,0-0.3,0-0.5
				c0.1,0,0.1-0.1,0.2-0.1c0,0.2,0,0.4,0,0.6C209.4,746.9,209.9,747.8,210.9,748.7C210.8,748.7,210.8,748.7,210.9,748.7L210.9,748.7
				z"/>
			<path class="st1" d="M220.9,743.9c-0.1,0.4-0.2,0.7-0.4,1s-0.4,0.6-0.7,0.9c-0.4,0.5-0.8,1-1.1,1.8c-0.2,0.9-0.1,1.9,0.5,3l0,0
				l-0.1,0.1c-0.1-0.1-0.1-0.2-0.1-0.2c-0.5-1-0.6-2-0.4-2.9c0.2-0.9,0.7-1.4,1.1-1.9c0.2-0.3,0.5-0.5,0.6-0.9
				c0.2-0.3,0.3-0.6,0.4-0.9L220.9,743.9L220.9,743.9z"/>
			<path class="st1" d="M231.9,757.2c-0.2,0.1-0.5,0.3-0.7,0.4c-0.4,0.1-0.7,0.2-1.1,0.4c-0.7,0.2-1.3,0.4-2,0.9
				c-0.7,0.6-1.2,1.5-1.4,2.7l0,0h-0.2c0-0.1,0-0.2,0.1-0.3c0.2-1.1,0.7-1.9,1.4-2.5s1.4-0.7,2.1-0.9c0.4-0.1,0.7-0.2,1.1-0.3
				C231.4,757.5,231.7,757.4,231.9,757.2C231.9,757,231.9,757.1,231.9,757.2L231.9,757.2z"/>
			<path class="st1" d="M229.6,751.5c-0.3,0.2-0.6,0.5-1,0.6s-0.7,0.2-1.1,0.4c-0.7,0.2-1.3,0.4-2,0.9c-0.7,0.6-1.2,1.5-1.4,2.7l0,0
				h-0.2c0-0.1,0-0.2,0-0.2l0,0c0.2-1.1,0.7-2,1.4-2.6c0.7-0.5,1.4-0.7,2.1-0.9c0.4-0.1,0.7-0.2,1.1-0.3
				C228.9,752,229.2,751.7,229.6,751.5C229.6,751.4,229.6,751.4,229.6,751.5L229.6,751.5z"/>
			<path class="st1" d="M232.1,764c0,0.1,0,0.1,0,0.2c-0.2,0.1-0.4,0.1-0.6,0.2c-0.7,0.2-1.3,0.4-2,0.9c-0.7,0.6-1.2,1.5-1.4,2.7
				l0,0h-0.2l0,0l0,0c0-0.2,0.1-0.4,0.1-0.6c0.2-1,0.7-1.7,1.3-2.2c0.7-0.5,1.4-0.7,2.1-0.9C231.6,764.1,231.8,764,232.1,764
				L232.1,764z"/>
		</g>
	</g>
	
		<ellipse transform="matrix(1 -2.094320e-03 2.094320e-03 1 -1.9542 0.2232)" class="st2" cx="105.6" cy="933.2" rx="17.1" ry="7.4"/>
	
		<ellipse transform="matrix(1 -2.094379e-03 2.094379e-03 1 -1.9524 0.5589)" class="st2" cx="265.9" cy="932.5" rx="17.1" ry="7.4"/>
	<path class="st2" d="M262.9,935.8c-4.2,0.6-8.6,1.2-13.1,1.8c-0.4,0-0.8,0.1-1.1,0.1c-19.5,2.4-41.5,3.9-65.6,3.8
		c-23.4-0.1-44.8-1.9-63.7-4.3c-0.4,0-0.7-0.1-1-0.1c-1.4-0.2-2.8-0.4-4.1-0.6c-13.1-18.2-15.9-33.2-16.1-43.5
		c-0.2-18.2,7.8-23.2,8.3-46.5c0.4-17.7-4.4-21.1-4-38.3c0.4-17.9,5.2-32.3,9.2-41.6c2.6,0.3,5.2,0.6,7.8,0.9c0.3,0,0.6,0.1,0.9,0.1
		c44.6,5,89.3,10,133.9,15c0.3,0,0.6,0.1,1,0.1c2.8,0.3,5.6,0.6,8.4,0.9c2.8,7.1,6,17.9,5.6,30.8c-0.3,11-2.9,14.4-4.3,23.9
		c-3.5,22.8,7.1,31.6,8.5,53.5C274,902,272.7,917,262.9,935.8L262.9,935.8z"/>
	<g>
		<path class="st3" d="M119,806.5c0,2.5-2,4.5-4.6,4.5s-4.7-2-4.7-4.5s2-4.5,4.6-4.5C116.9,802.1,119,804.1,119,806.5L119,806.5z"/>
		<path class="st3" d="M137.2,838.1c0,2.5-2,4.5-4.6,4.5s-4.7-2-4.7-4.5s2-4.5,4.6-4.5S137.2,835.6,137.2,838.1z"/>
		<path class="st3" d="M139.2,856.8c0,2.5-2,4.5-4.6,4.5s-4.7-2-4.7-4.5s2-4.5,4.6-4.5S139.1,854.3,139.2,856.8z"/>
		<path class="st3" d="M122.8,886.9c0,2.5-2,4.5-4.6,4.5s-4.7-2-4.7-4.5s2-4.5,4.6-4.5C120.6,882.5,122.7,884.5,122.8,886.9z"/>
		<path class="st3" d="M133.9,895.8c0,2.5-2,4.5-4.6,4.5s-4.7-2-4.7-4.5s2-4.5,4.6-4.5S133.8,893.3,133.9,895.8z"/>
		<path class="st3" d="M135.9,915.3c0,2.5-2,4.5-4.6,4.5s-4.7-2-4.7-4.5s2-4.5,4.6-4.5C133.7,910.8,135.8,912.8,135.9,915.3z"/>
		<path class="st3" d="M131,819.1c0,1.8-1.5,3.3-3.3,3.3c-1.9,0-3.4-1.4-3.4-3.2s1.5-3.3,3.3-3.3C129.4,815.9,131,817.3,131,819.1z"
			/>
		
			<ellipse transform="matrix(0.1269 -0.9919 0.9919 0.1269 -739.2429 858.4508)" class="st3" cx="118" cy="849.1" rx="3.2" ry="3.4"/>
		
			<ellipse transform="matrix(0.1269 -0.9919 0.9919 0.1269 -757.5539 874.9753)" class="st3" cx="118.2" cy="867.8" rx="3.2" ry="3.4"/>
		
			<ellipse transform="matrix(0.1269 -0.9919 0.9919 0.1269 -754.5854 896.2443)" class="st3" cx="131.8" cy="876.8" rx="3.2" ry="3.4"/>
		<path class="st3" d="M120.5,907.7c0,1.8-1.5,3.3-3.3,3.3s-3.4-1.4-3.4-3.2s1.5-3.3,3.3-3.3S120.5,905.9,120.5,907.7z"/>
		
			<ellipse transform="matrix(0.1269 -0.9919 0.9919 0.1269 -759.8538 913.8827)" class="st3" cx="139.2" cy="888.6" rx="2" ry="2.1"/>
		<path class="st3" d="M110.6,864.1c0,0.9-0.8,1.7-1.7,1.7s-1.8-0.8-1.8-1.7s0.8-1.7,1.7-1.7S110.6,863.2,110.6,864.1z"/>
		
			<ellipse transform="matrix(0.1269 -0.9919 0.9919 0.1269 -810.5668 898.8952)" class="st3" cx="105.3" cy="909.9" rx="2" ry="2.1"/>
		<ellipse transform="matrix(0.1269 -0.9919 0.9919 0.1269 -789.7817 880.0391)" class="st3" cx="105" cy="888.6" rx="2" ry="2.1"/>
		
			<ellipse transform="matrix(0.1269 -0.9919 0.9919 0.1269 -732.7905 844.8217)" class="st3" cx="113.5" cy="838.7" rx="1.6" ry="1.7"/>
		<path class="st3" d="M135.3,825.5c0,0.9-0.7,1.6-1.7,1.6s-1.7-0.7-1.7-1.6c0-0.9,0.7-1.6,1.7-1.6S135.3,824.6,135.3,825.5z"/>
		
			<ellipse transform="matrix(0.1269 -0.9919 0.9919 0.1269 -797.1469 951.6272)" class="st3" cx="142" cy="928.6" rx="1.6" ry="1.7"/>
		
			<ellipse transform="matrix(0.1269 -0.9919 0.9919 0.1269 -803.8266 937.9474)" class="st3" cx="130.9" cy="925.6" rx="1.6" ry="1.7"/>
		
			<ellipse transform="matrix(0.1269 -0.9919 0.9919 0.1269 -712.2097 829.1842)" class="st3" cx="114.9" cy="819.2" rx="1.6" ry="1.7"/>
		
			<ellipse transform="matrix(0.1269 -0.9919 0.9919 0.1269 -688.9813 830.9158)" class="st3" cx="127.5" cy="806.8" rx="1.6" ry="1.7"/>
		
			<ellipse transform="matrix(0.1269 -0.9919 0.9919 0.1269 -686.4185 817.8445)" class="st3" cx="121.4" cy="798.8" rx="1.6" ry="1.7"/>
		<path class="st3" d="M120.8,925.5c0,1.8-1.5,3.3-3.3,3.3s-3.4-1.4-3.4-3.2s1.5-3.3,3.3-3.3S120.8,923.7,120.8,925.5z"/>
		<path class="st3" d="M121.1,829.7c0,1.8-1.5,3.3-3.3,3.3s-3.4-1.4-3.4-3.2s1.5-3.3,3.3-3.3S121,827.9,121.1,829.7z"/>
	</g>
	<path class="st4" d="M249.8,937.6c-0.4,0-0.8,0.1-1.1,0.1c11-18.2,15.2-35,12.4-50.1c-0.8-4.5-2-7.7-3.3-11
		c-1.8-4.8-3.6-9.7-4.4-18.7c-1-11,0.5-18.3,2.1-26c1.3-6.4,2.6-12.9,2.6-22.1c0-9-1.2-18.2-3.8-27.4c0.3,0,0.6,0.1,1,0.1
		c2.5,9.2,3.8,18.3,3.8,27.3c0,9.2-1.4,15.9-2.7,22.2c-1.5,7.6-3,14.8-2,25.8c0.8,8.8,2.6,13.7,4.4,18.5c1.2,3.2,2.5,6.6,3.3,11.2
		C264.8,902.7,260.7,919.5,249.8,937.6L249.8,937.6z"/>
	<path class="st4" d="M114.9,806.1c-0.1,10.8,1.1,17.4,2.2,23.9c1.2,6.9,2.3,13.4,1.8,24.2c-0.6,11.5-2.5,18-4.4,24.3
		c-1.8,5.9-3.4,11.5-3.6,20.7c-0.2,12.6,2.7,25.3,8.4,38c-0.4,0-0.7-0.1-1-0.1c-5.7-12.7-8.5-25.4-8.3-37.9c0.1-9.3,1.8-15,3.6-20.9
		c1.9-6.2,3.8-12.7,4.4-24.1c0.5-10.7-0.6-17.2-1.8-24c-1.1-6.5-2.3-13.1-2.2-24c0.1-13,1.9-26,5.4-38.7c0.1-0.3,0.2-0.7,0.3-1
		l0.9,0.2c-0.1,0.3-0.2,0.6-0.2,0.9C116.8,780.1,115,793.1,114.9,806.1L114.9,806.1z"/>
	<g>
		<g>
			<line class="st5" x1="132.4" y1="906.2" x2="132.7" y2="928.1"/>
			<line class="st5" x1="137.6" y1="906.2" x2="137.9" y2="928.1"/>
			<line class="st5" x1="143.7" y1="909.7" x2="124" y2="920.3"/>
			<line class="st5" x1="146.3" y1="914" x2="126.6" y2="924.7"/>
		</g>
		<g>
			<line class="st5" x1="236.4" y1="831.3" x2="236.5" y2="842.4"/>
			<line class="st5" x1="239" y1="831.3" x2="239.2" y2="842.3"/>
			<line class="st5" x1="242.1" y1="833" x2="232.1" y2="838.4"/>
			<line class="st5" x1="243.4" y1="835.3" x2="233.5" y2="840.6"/>
		</g>
		<g>
			<line class="st5" x1="136.2" y1="829.2" x2="136.4" y2="846"/>
			<line class="st5" x1="140.2" y1="829.2" x2="140.4" y2="846"/>
			<line class="st5" x1="144.9" y1="831.8" x2="129.7" y2="840"/>
			<line class="st5" x1="146.9" y1="835.2" x2="131.7" y2="843.4"/>
		</g>
		<g>
			<line class="st5" x1="249" y1="903.9" x2="249.2" y2="921"/>
			<line class="st5" x1="253.1" y1="903.9" x2="253.3" y2="921"/>
			<line class="st5" x1="257.9" y1="906.6" x2="242.4" y2="914.9"/>
			<line class="st5" x1="259.9" y1="910" x2="244.4" y2="918.3"/>
		</g>
	</g>
	<path class="st3" d="M271.5,829.1c2.6-0.5,5.3-1.1,7.2-2.9c1.8-1.7,2.5-4.3,2.3-6.7s-1.1-4.8-2.2-7c-0.9-1.7-1.8-3.3-2.2-5.1
		c-1.1-5.6,3.8-11,3.2-16.7c-0.3-3-2-5.6-4-8c-1.8-2.2-4-4.3-6.9-4.7l-159.4-17.2c-4.7,0.1-7.9,4.7-8.9,9.1s-0.8,9.1-2.6,13.2
		c-1.5,3.6-4.4,6.5-6.6,9.7c-2.4,3.4-3.7,7.4-2.6,11c1.4,4.4,7.3,7.4,14.2,8c11.3,1,18.1,0.9,25.4,0.8c17.1-0.3,20.5,7.9,39.2,12
		c16.2,3.6,22.6-0.6,43.5-1.9C225.1,821.8,245.6,822.3,271.5,829.1L271.5,829.1z"/>
	<path class="st6" d="M272.1,778.8c-3.8,0.4-7.9,0.7-12,1c-2.4,0.2-4.8,0.3-7.2,0.4c-0.7,0-1.3,0.1-2,0.1c-1.3,0.1-2.6,0.1-3.9,0.2
		c-0.9,0-1.8,0.1-2.7,0.1c-1.2,0-2.4,0.1-3.7,0.1h-2.1c-0.5,0-1,0-1.6,0c-1.1,0-2.2,0-3.3,0c-0.5,0-0.9,0-1.4,0c-1.2,0-2.4,0-3.5,0
		c-1.3,0-2.6,0-3.9-0.1h-0.1c-1.2,0-2.4,0-3.6-0.1c-1.1,0-2.2-0.1-3.3-0.1c-0.8,0-1.6-0.1-2.4-0.1c-0.2,0-0.5,0-0.7,0
		c-0.8,0-1.6-0.1-2.3-0.1c-2-0.1-4-0.2-6-0.3c-0.1,0-0.1,0-0.2,0c-0.6,0-1.2-0.1-1.8-0.1l0,0c-0.5,0-0.9-0.1-1.4-0.1
		c-1.1-0.1-2.2-0.2-3.3-0.2c-0.1,0-0.3,0-0.4,0c-1.1-0.1-2.1-0.2-3.2-0.3l0,0c-0.4,0-0.9-0.1-1.3-0.1c-1.8-0.2-3.7-0.4-5.5-0.5
		c-0.5,0-1-0.1-1.4-0.1c-0.2,0-0.3,0-0.5,0H187l-0.9-0.1c-0.6-0.1-1.1-0.1-1.7-0.2l-1.5-0.2c-1.8-0.2-3.5-0.4-5.2-0.7
		c-0.4,0-0.7-0.1-1.1-0.1c-0.5-0.1-1-0.1-1.6-0.2c-0.9-0.1-1.8-0.3-2.7-0.4H172c-0.9-0.1-1.9-0.3-2.8-0.4c-1-0.2-2-0.3-3-0.5
		c-1.2-0.2-2.3-0.4-3.4-0.6c-0.3,0-0.5-0.1-0.8-0.1c-1.1-0.2-2.2-0.4-3.2-0.6l0,0c-1.4-0.2-2.8-0.5-4.1-0.8c-0.2,0-0.4-0.1-0.5-0.1
		c-1.5-0.3-3-0.6-4.5-0.9l-0.3-0.1c-0.5-0.1-1.1-0.2-1.6-0.3c-1.3-0.3-2.6-0.5-3.9-0.8c-0.9-0.2-1.8-0.4-2.7-0.6
		c-1.1-0.2-2.1-0.5-3.2-0.7c-0.1,0-0.3-0.1-0.4-0.1c-2.4-0.6-4.8-1.2-7.1-1.8c-0.1,0-0.2,0-0.3-0.1c-1.4-0.4-2.9-0.7-4.2-1.1
		c-2.9-0.8-5.8-1.6-8.6-2.4c-3.3-1-6.4-1.9-9.5-2.9c3.4-0.2,7-0.4,10.6-0.6c2.7-0.1,5.5-0.2,8.3-0.3c1,0,2.1-0.1,3.1-0.1
		c1.8,0,3.7-0.1,5.5-0.1c1,0,2.1,0,3.1,0c0.7,0,1.5,0,2.2,0c1.5,0,3,0,4.6,0c1.1,0,2.1,0,3.2,0c0.1,0,0.1,0,0.2,0l0,0
		c1,0,2,0,3.1,0.1l0,0c0.2,0,0.5,0,0.8,0l0,0c0.6,0,1.3,0,2,0.1l0,0c1,0,1.9,0.1,2.9,0.1l0,0c1,0,2.1,0.1,3.1,0.1l0,0
		c0.6,0,1.3,0,1.9,0.1c0.4,0,0.7,0,1.1,0c0.2,0,0.4,0,0.6,0c0.3,0,0.7,0,1,0c0.8,0,1.5,0.1,2.2,0.1c0.4,0,0.7,0,1.1,0.1
		c0.7,0,1.4,0.1,2.1,0.1l0,0c0.2,0,0.3,0,0.5,0c0.1,0,0.1,0,0.2,0c0.5,0,0.9,0.1,1.4,0.1l0,0c0.4,0,0.8,0,1.2,0.1
		c0.7,0,1.4,0.1,2.1,0.1c0.4,0,0.9,0,1.3,0.1c0.3,0,0.5,0,0.8,0.1c0.1,0,0.1,0,0.2,0l0,0c0.4,0,0.8,0.1,1.2,0.1c0.1,0,0.2,0,0.2,0
		c0.3,0,0.7,0.1,1,0.1c0.1,0,0.1,0,0.2,0c0.1,0,0.2,0,0.3,0l0,0c1.1,0.1,2.1,0.2,3.2,0.3c0.1,0,0.1,0,0.2,0c0.2,0,0.4,0,0.6,0.1l0,0
		c0.4,0,0.8,0.1,1.2,0.1c0.1,0,0.1,0,0.2,0c0.4,0,0.9,0.1,1.4,0.1l0,0h0.2h0.1c0.2,0,0.4,0,0.5,0.1c1.7,0.2,3.5,0.4,5.2,0.6l0,0
		c0.3,0,0.5,0.1,0.8,0.1c0.2,0,0.4,0,0.7,0.1c0.4,0,0.9,0.1,1.4,0.1l0,0c2.1,0.2,4.1,0.5,6.2,0.8l0,0c0.5,0.1,1,0.1,1.4,0.2l0,0
		c0.1,0,0.2,0,0.3,0c0.3,0,0.6,0.1,0.9,0.1c0.5,0.1,0.9,0.1,1.4,0.2l0,0c0.3,0,0.6,0.1,0.9,0.1l0,0c1.6,0.2,3.1,0.5,4.6,0.7
		c0.4,0.1,0.8,0.1,1.3,0.2c0.5,0.1,1,0.2,1.5,0.2l0,0c0.5,0.1,0.9,0.1,1.4,0.2h0.1c0.1,0,0.2,0,0.4,0.1c0.3,0.1,0.6,0.1,1,0.2
		c2.2,0.4,4.3,0.7,6.4,1.1c0.4,0.1,0.8,0.1,1.2,0.2l0,0c0.1,0,0.3,0,0.4,0.1c0.6,0.1,1.1,0.2,1.6,0.3l0,0c0.2,0,0.5,0.1,0.7,0.1
		c1.5,0.3,2.9,0.5,4.4,0.8l0,0c0.1,0,0.2,0,0.4,0.1c0.3,0.1,0.6,0.1,1,0.2l0,0c0.6,0.1,1.1,0.2,1.7,0.3c0.2,0,0.5,0.1,0.7,0.1
		c0.6,0.1,1.2,0.3,1.9,0.4h0.1c0.3,0.1,0.6,0.1,0.9,0.2c0.6,0.1,1.1,0.2,1.7,0.4h0.1c0.6,0.1,1.2,0.2,1.8,0.4c0.2,0,0.3,0.1,0.5,0.1
		c1.3,0.3,2.7,0.6,4,0.9c0.4,0.1,0.8,0.2,1.2,0.3l0,0c0.5,0.1,1,0.2,1.5,0.4l0,0c3.3,0.8,6.6,1.6,9.7,2.4c4.2,1.1,8.3,2.2,12.2,3.3
		L272.1,778.8z"/>
	<g>
		<ellipse transform="matrix(0.1269 -0.9919 0.9919 0.1269 -569.2116 888.01)" class="st7" cx="219.8" cy="767.3" rx="6" ry="6.2"/>
		
			<ellipse transform="matrix(0.1269 -0.9919 0.9919 0.1269 -560.8707 911.9789)" class="st8" cx="237.6" cy="774.6" rx="6" ry="6.2"/>
		
			<ellipse transform="matrix(0.1269 -0.9919 0.9919 0.1269 -599.9135 849.0204)" class="st8" cx="182.3" cy="765.3" rx="6" ry="6.2"/>
		
			<ellipse transform="matrix(0.1269 -0.9919 0.9919 0.1269 -607.3509 833.3884)" class="st8" cx="169.7" cy="761.7" rx="6" ry="6.2"/>
		<ellipse transform="matrix(0.1269 -0.9919 0.9919 0.1269 -635.1802 806.338)" class="st9" cx="140.4" cy="764" rx="6" ry="6.2"/>
		<path class="st9" d="M158.7,774L158.7,774c-1.4-0.2-2.8-0.5-4.1-0.8c-0.2,0-0.4-0.1-0.5-0.1c-1.5-0.3-3-0.6-4.5-0.9l-0.3-0.1
			c-0.5-0.1-1.1-0.2-1.6-0.3l0.3-0.3c0.4-0.4,0.9-0.8,1.4-1.1c0.9-0.6,2.1-0.9,3.2-0.9c0.9,0,1.7,0.2,2.5,0.5l0.2,0.1
			C157,770.8,158.2,772.3,158.7,774L158.7,774z"/>
		<path class="st9" d="M175.1,776.2c0,0.2,0,0.3,0,0.5c-0.9-0.1-1.8-0.3-2.7-0.4h-0.3c-0.9-0.1-1.9-0.3-2.8-0.4c-1-0.2-2-0.3-3-0.5
			c-1.2-0.2-2.3-0.4-3.4-0.6c0.3-1.3,1.1-2.5,2.2-3.3c0.3-0.2,0.6-0.4,1-0.6c0.8-0.4,1.8-0.6,2.8-0.7c0.9,0,1.8,0.2,2.6,0.5l0,0
			c0.1,0,0.2,0.1,0.2,0.1c1,0.5,1.9,1.2,2.5,2.2c0.3,0.5,0.6,1,0.7,1.5C174.9,775,175,775.6,175.1,776.2L175.1,776.2z"/>
		
			<ellipse transform="matrix(0.1269 -0.9919 0.9919 0.1269 -618.1977 825.4102)" class="st9" cx="159.8" cy="763.9" rx="6" ry="6.2"/>
		<path class="st7" d="M138.3,767.7c0,0.2,0,0.5,0,0.7c0,0.4-0.1,0.7-0.2,1c0,0.1-0.1,0.1-0.1,0.2c-0.1,0-0.3-0.1-0.4-0.1
			c-2.4-0.6-4.8-1.2-7.1-1.8c-0.1,0-0.2,0-0.3-0.1c-1.4-0.4-2.9-0.7-4.2-1.1c0.1-0.8,0.5-1.5,0.9-2.2c1.1-1.6,3-2.7,5.1-2.7
			c0.9,0,1.7,0.2,2.5,0.5l0,0c1,0.4,1.9,1.1,2.6,1.9C137.8,765.1,138.3,766.3,138.3,767.7z"/>
		
			<ellipse transform="matrix(0.1269 -0.9919 0.9919 0.1269 -628.383 818.2302)" class="st7" cx="150.6" cy="766.1" rx="6" ry="6.2"/>
		<ellipse transform="matrix(0.1269 -0.9919 0.9919 0.1269 -613.5949 834.877)" class="st7" cx="167.4" cy="766" rx="6" ry="6.2"/>
		<path class="st7" d="M184.4,777.6c0,0.1,0,0.2,0,0.3l-1.5-0.2c-1.8-0.2-3.5-0.4-5.2-0.7c-0.4,0-0.7-0.1-1.1-0.1
			c-0.5-0.1-1-0.1-1.6-0.2c-0.9-0.1-1.8-0.3-2.7-0.4H172c0.2-1,0.7-1.9,1.4-2.6c0.2-0.2,0.4-0.4,0.6-0.6c0.9-0.7,1.9-1.2,3.1-1.3
			c0.3,0,0.6-0.1,0.9-0.1s0.6,0,0.9,0c1.3,0.2,2.4,0.7,3.3,1.5c0.4,0.4,0.8,0.7,1,1.2C184,775.2,184.4,776.4,184.4,777.6
			L184.4,777.6z"/>
		<path class="st8" d="M149.6,771.9L149.6,771.9c0,0.2,0,0.3,0,0.3l-0.3-0.1c-0.5-0.1-1.1-0.2-1.6-0.3c-1.3-0.3-2.6-0.5-3.9-0.8
			c-0.9-0.2-1.8-0.4-2.7-0.6c-1.1-0.2-2.1-0.5-3.2-0.7c-0.1,0-0.3-0.1-0.4-0.1c0-0.1,0.1-0.2,0.1-0.3c0.2-0.3,0.3-0.6,0.5-0.9
			c1.1-1.5,2.9-2.5,5-2.5c0.4,0,0.7,0,1.1,0.1l0,0c0.6,0.1,1.2,0.3,1.7,0.5l0,0c1.6,0.8,2.8,2.2,3.3,3.9l0,0
			C149.5,770.9,149.5,771.4,149.6,771.9L149.6,771.9z"/>
		<path class="st8" d="M166.5,773.4c0,0.7-0.1,1.4-0.3,2c-1.2-0.2-2.3-0.4-3.4-0.6c-0.3,0-0.5-0.1-0.8-0.1c-1.1-0.2-2.2-0.4-3.2-0.6
			l0,0c-1.4-0.2-2.8-0.5-4.1-0.8c-0.2,0-0.4-0.1-0.5-0.1c0-0.9,0.3-1.8,0.7-2.6c0.1-0.2,0.2-0.4,0.4-0.6c0.3-0.4,0.6-0.8,1-1.1
			c0.1,0,0.1-0.1,0.2-0.1c1.1-0.9,2.4-1.4,3.9-1.4c0.4,0,0.8,0,1.3,0.1l0,0c0.9,0.2,1.6,0.5,2.3,0.9l0,0c0.9,0.6,1.6,1.4,2.1,2.4
			c0.2,0.3,0.3,0.7,0.4,1l0,0C166.4,772.4,166.5,772.8,166.5,773.4L166.5,773.4z"/>
		
			<ellipse transform="matrix(0.1269 -0.9919 0.9919 0.1269 -607.8538 847.7245)" class="st9" cx="177.6" cy="769.1" rx="6" ry="6.2"/>
		
			<ellipse transform="matrix(0.1269 -0.9919 0.9919 0.1269 -575.1086 877.5522)" class="st8" cx="210.9" cy="765.5" rx="6" ry="6.2"/>
		<path class="st9" d="M199.3,779.2c0,0.1,0,0.1,0,0.2c-1.1-0.1-2.1-0.2-3.2-0.3l0,0c-0.4,0-0.9-0.1-1.3-0.1
			c-1.8-0.2-3.7-0.4-5.5-0.5c-0.5,0-1-0.1-1.4-0.1c-0.2,0-0.3,0-0.5,0H187c0.2-1.1,0.7-2.2,1.4-3l0,0c0-0.1,0.1-0.1,0.1-0.1
			s0-0.1,0.1-0.1l0.1-0.1c0.2-0.2,0.4-0.3,0.6-0.5c0.1-0.1,0.3-0.2,0.5-0.3c0.9-0.6,2.1-0.9,3.2-0.9c0.9,0,1.7,0.2,2.5,0.5
			c0.1,0,0.1,0,0.1,0.1C197.7,774.7,199.2,776.8,199.3,779.2L199.3,779.2z"/>
		<path class="st9" d="M215.4,779.9c0,0.2,0,0.4,0,0.5c-0.2,0-0.5,0-0.7,0c-0.8,0-1.6-0.1-2.3-0.1c-2-0.1-4-0.2-6-0.3
			c-0.1,0-0.1,0-0.2,0c-0.6,0-1.2-0.1-1.8-0.1l0,0c-0.5,0-0.9-0.1-1.4-0.1c0.1-1.8,0.9-3.5,2.4-4.5c0.3-0.2,0.6-0.4,1-0.6
			c0.8-0.4,1.8-0.6,2.8-0.7c0.9,0,1.8,0.2,2.6,0.5l0,0c0.1,0,0.2,0.1,0.2,0.1c1,0.5,1.9,1.2,2.4,2.2c0.3,0.5,0.6,1,0.7,1.5l0,0
			C215.3,778.7,215.4,779.3,215.4,779.9L215.4,779.9z"/>
		<ellipse transform="matrix(0.1269 -0.9919 0.9919 0.1269 -586.6404 868.5187)" class="st9" cx="200" cy="767.5" rx="6" ry="6.2"/>
		
			<ellipse transform="matrix(0.1269 -0.9919 0.9919 0.1269 -582.1152 878.1459)" class="st7" cx="207.8" cy="769.7" rx="6" ry="6.2"/>
		
			<ellipse transform="matrix(0.1269 -0.9919 0.9919 0.1269 -567.4414 900.7543)" class="st7" cx="227.9" cy="772.7" rx="6" ry="6.2"/>
		<path class="st7" d="M252.9,779.6c0,0.2,0,0.4,0,0.6c-0.7,0-1.3,0.1-2,0.1c-1.3,0.1-2.6,0.1-3.9,0.2c-0.9,0-1.8,0.1-2.7,0.1
			c-1.2,0-2.4,0.1-3.7,0.1c0-0.2-0.1-0.5-0.1-0.7l0,0c0-0.1,0-0.2,0-0.3c0-1,0.2-2,0.7-2.8c0.4-0.6,0.8-1.2,1.4-1.7l0,0
			c0.4-0.4,0.9-0.7,1.4-0.9c0.8-0.4,1.7-0.6,2.7-0.6c2.7,0,5,1.6,5.9,3.9C252.7,778.2,252.8,778.9,252.9,779.6L252.9,779.6z"/>
		<path class="st7" d="M224.6,780.7c-1.2,0-2.4,0-3.6-0.1c-1.1,0-2.2-0.1-3.3-0.1c-0.8,0-1.6-0.1-2.4-0.1c-0.2,0-0.5,0-0.7,0
			c-0.8,0-1.6-0.1-2.3-0.1c0.2-1.1,0.7-2.1,1.4-2.9l0,0c0.2-0.2,0.4-0.4,0.6-0.6c1.1-0.9,2.5-1.4,4-1.4c1.6,0,3.1,0.6,4.2,1.5l0,0
			C223.7,777.8,224.5,779.2,224.6,780.7L224.6,780.7z"/>
		<path class="st8" d="M206.9,777c0,1-0.2,2-0.7,2.9c-0.6,0-1.2-0.1-1.8-0.1l0,0c-0.5,0-0.9-0.1-1.4-0.1c-1.1-0.1-2.2-0.2-3.3-0.2
			c-0.1,0-0.3,0-0.4,0c-1.1-0.1-2.1-0.2-3.2-0.3l0,0c-0.4,0-0.9-0.1-1.3-0.1c-0.2-0.6-0.3-1.2-0.4-1.9c0-1,0.2-2,0.7-2.9l0,0l0,0
			c0.1-0.2,0.2-0.4,0.3-0.5c0.3-0.4,0.6-0.8,1-1.1l0,0c0.1-0.1,0.1-0.1,0.2-0.2c1.1-0.9,2.4-1.4,3.9-1.4c0.4,0,0.8,0,1.3,0.1
			c0.9,0.2,1.6,0.5,2.3,1l0,0c0.9,0.6,1.6,1.4,2.1,2.4c0.2,0.3,0.3,0.7,0.4,1C206.8,776.1,206.8,776.5,206.9,777L206.9,777z"/>
		
			<ellipse transform="matrix(0.1269 -0.9919 0.9919 0.1269 -576.4061 890.9872)" class="st9" cx="217.9" cy="772.9" rx="6" ry="6.2"/>
		<g>
			<path class="st0" d="M185.1,757.4L185.1,757.4l0.2,0.3c1.2,1.5,2.1,3.1,2.9,4.8l0,0c0.1,0.1,0.1,0.3,0.2,0.4l0,0
				c0.2,0.4,0.3,0.8,0.4,1.3c0.7,2.3,0.9,4.6,0.9,6.6c0,0.1,0,0.1,0,0.2c-0.1,1.5-0.3,2.9-0.6,4.1c-0.1,0-0.2,0-0.3,0s-0.1,0-0.2,0
				c-2.9-0.1-7.1-0.7-11.1-3.2c-7.8-4.7-11.9-14.3-10.9-24.6v-0.1h0.1c2.3,0.4,4.5,1,6.5,1.9c0.1,0,0.1,0,0.2,0.1
				c1.3,0.5,2.6,1.1,3.8,1.8c0.1,0,0.1,0,0.1,0.1c1.2,0.6,2.3,1.4,3.3,2.1c0.1,0,0.1,0.1,0.2,0.1l0,0
				C182.4,754.5,183.8,755.9,185.1,757.4L185.1,757.4z"/>
			<g>
				<path class="st1" d="M166.7,747.2l22.2,27.9c-0.1,0-0.1,0-0.2,0l-22.1-27.7C166.6,747.3,166.6,747.2,166.7,747.2
					C166.6,747.2,166.6,747.2,166.7,747.2L166.7,747.2z"/>
				<path class="st1" d="M177.3,751c-0.2,0.6-0.4,1-0.8,1.4c-0.2,0.2-0.5,0.5-0.7,0.7c-0.5,0.4-0.9,0.8-1.2,1.4
					c-0.4,0.7-0.4,1.6,0,2.6l0,0h-0.1l0,0l0,0c-0.1-0.1-0.1-0.3-0.1-0.4c-0.2-0.9-0.2-1.7,0.1-2.3c0.3-0.7,0.8-1.1,1.3-1.5
					c0.2-0.2,0.5-0.4,0.7-0.6c0.3-0.4,0.6-0.9,0.7-1.4C177.2,750.9,177.2,751,177.3,751L177.3,751z"/>
				<path class="st1" d="M173.4,749.1c-0.1,0.1-0.3,0.2-0.4,0.4c-0.5,0.4-0.9,0.8-1.2,1.4c-0.4,0.7-0.4,1.6,0,2.6l0,0h-0.1l0,0l0,0
					c-0.1-0.1-0.1-0.3-0.1-0.4c-0.2-0.9-0.2-1.7,0.1-2.3c0.3-0.7,0.8-1.1,1.3-1.5C173.1,749.2,173.2,749.1,173.4,749.1
					C173.2,749.1,173.3,749.1,173.4,749.1L173.4,749.1z"/>
				<path class="st1" d="M180.7,753.2L180.7,753.2c0.1,1.4-0.3,2.5-1,3.3c-0.2,0.2-0.5,0.5-0.7,0.7c-0.5,0.4-0.9,0.8-1.2,1.4
					c-0.4,0.7-0.4,1.6,0,2.6l0,0h-0.1l0,0l0,0c-0.1-0.1-0.1-0.3-0.1-0.4c-0.2-0.9-0.2-1.7,0.1-2.3c0.3-0.7,0.8-1.1,1.3-1.5
					c0.2-0.2,0.5-0.4,0.7-0.6c0.7-0.8,1-1.9,0.9-3.3C180.6,753.2,180.7,753.2,180.7,753.2L180.7,753.2z"/>
				<path class="st1" d="M188.1,762.5c0.1,0.1,0.1,0.3,0.2,0.4l0,0c0,1.3-0.3,2.4-1,3.1c-0.2,0.2-0.5,0.5-0.7,0.7
					c-0.5,0.4-0.9,0.8-1.2,1.4c-0.4,0.7-0.4,1.6,0,2.6l0,0h-0.1l0,0l0,0c-0.1-0.1-0.1-0.3-0.1-0.4c-0.2-0.9-0.2-1.7,0.1-2.3
					c0.3-0.7,0.8-1.1,1.3-1.5c0.2-0.2,0.5-0.4,0.7-0.6C187.9,765.1,188.2,764,188.1,762.5L188.1,762.5z"/>
				<path class="st1" d="M185.3,757.7c0.4,2.1,0.1,3.7-0.8,4.7c-0.2,0.2-0.5,0.5-0.7,0.7c-0.5,0.4-0.9,0.8-1.2,1.4
					c-0.4,0.7-0.4,1.6,0,2.6l0,0h-0.1l0,0l0,0c-0.1-0.1-0.1-0.3-0.1-0.4c-0.2-0.9-0.2-1.7,0.1-2.3c0.3-0.7,0.8-1.1,1.3-1.5
					c0.2-0.2,0.5-0.4,0.7-0.6c0.9-1,1.1-2.7,0.7-4.9l0,0L185.3,757.7L185.3,757.7z"/>
				<path class="st1" d="M189.6,770.8c0,0.1,0,0.1,0,0.2c-0.4,0.3-0.7,0.7-1,1.2c-0.4,0.7-0.4,1.6,0,2.6l0,0h-0.1l0,0l0,0
					c-0.1-0.1-0.1-0.3-0.1-0.4c-0.2-0.9-0.2-1.7,0.1-2.3S189.2,771.1,189.6,770.8L189.6,770.8z"/>
			</g>
		</g>
		<g>
			<path class="st0" d="M241.3,774.9L241.3,774.9l-0.1,0.2c-0.8,0.9-1.6,1.7-2.6,2.3l0,0c-0.1,0-0.2,0.1-0.2,0.2l0,0
				c-0.2,0.1-0.5,0.3-0.7,0.4c-1.4,0.8-2.7,1.2-4,1.4h-0.1c-1,0.2-1.9,0.2-2.6,0.2v-0.1v-0.1c-0.4-1.7-0.6-4.2,0.3-6.9
				c1.8-5.2,7.1-8.9,13.7-9.7h0.1l0,0c0.1,1.4,0,2.7-0.2,4v0.1c-0.1,0.8-0.3,1.7-0.5,2.4v0.1c-0.2,0.8-0.5,1.5-0.8,2.2v0.1l0,0
				C242.8,772.9,242.1,774,241.3,774.9L241.3,774.9z"/>
			<g>
				<path class="st1" d="M245,762.8l-14.1,16.7v-0.1L245,762.8C244.9,762.8,244.9,762.8,245,762.8L245,762.8L245,762.8z"/>
				<path class="st1" d="M244.2,769.5c-0.4,0-0.7-0.1-1-0.2c-0.2-0.1-0.4-0.2-0.5-0.3c-0.3-0.2-0.6-0.4-1.1-0.5s-1,0-1.6,0.3l0,0
					v-0.1l0,0c0.1,0,0.1-0.1,0.2-0.1c0.5-0.2,1-0.3,1.5-0.2s0.8,0.3,1.1,0.5c0.2,0.1,0.3,0.2,0.5,0.3
					C243.5,769.3,243.8,769.4,244.2,769.5C244.2,769.4,244.2,769.4,244.2,769.5L244.2,769.5z"/>
				<path class="st1" d="M244.8,766.9c-0.1-0.1-0.2-0.1-0.3-0.2c-0.3-0.2-0.6-0.4-1.1-0.5s-1,0-1.6,0.3l0,0v-0.1l0,0
					c0.1,0,0.1-0.1,0.2-0.1c0.5-0.2,1-0.3,1.5-0.2s0.8,0.3,1.1,0.5C244.7,766.6,244.8,766.7,244.8,766.9
					C244.8,766.9,244.8,766.9,244.8,766.9L244.8,766.9z"/>
				<path class="st1" d="M243.3,771.8L243.3,771.8c-0.9,0.2-1.6,0.2-2.2-0.1c-0.2-0.1-0.4-0.2-0.5-0.3c-0.3-0.2-0.6-0.4-1.1-0.5
					s-1,0-1.6,0.3l0,0v-0.1l0,0c0.1,0,0.1-0.1,0.2-0.1c0.5-0.2,1-0.3,1.5-0.2s0.8,0.3,1.1,0.5c0.2,0.1,0.3,0.2,0.5,0.3
					C241.8,771.9,242.5,771.9,243.3,771.8C243.3,771.7,243.3,771.7,243.3,771.8L243.3,771.8z"/>
				<path class="st1" d="M238.6,777.4c-0.1,0-0.2,0.1-0.2,0.2l0,0c-0.8,0.2-1.5,0.1-2.1-0.1c-0.2-0.1-0.4-0.2-0.5-0.3
					c-0.3-0.2-0.6-0.4-1.1-0.5s-1,0-1.6,0.3l0,0v-0.1l0,0c0.1,0,0.1-0.1,0.2-0.1c0.5-0.2,1-0.3,1.5-0.2s0.8,0.3,1.1,0.5
					c0.2,0.1,0.3,0.2,0.5,0.3C236.9,777.6,237.7,777.6,238.6,777.4L238.6,777.4z"/>
				<path class="st1" d="M241.2,775c-1.3,0.5-2.3,0.6-3.1,0.2c-0.2-0.1-0.4-0.2-0.5-0.3c-0.3-0.2-0.6-0.4-1.1-0.5s-1,0-1.6,0.3l0,0
					v-0.1l0,0c0.1,0,0.1-0.1,0.2-0.1c0.5-0.2,1-0.3,1.5-0.2s0.8,0.3,1.1,0.5c0.2,0.1,0.3,0.2,0.5,0.3c0.8,0.4,1.8,0.3,3.2-0.3l0,0
					L241.2,775L241.2,775z"/>
				<path class="st1" d="M233.7,779.4h-0.1c-0.2-0.2-0.5-0.3-0.9-0.4c-0.5-0.1-1,0-1.6,0.3l0,0l-0.1-0.1l0,0c0.1,0,0.2-0.1,0.2-0.1
					c0.5-0.2,1-0.3,1.5-0.2C233.1,779,233.4,779.2,233.7,779.4L233.7,779.4z"/>
			</g>
		</g>
		
			<ellipse transform="matrix(0.1269 -0.9919 0.9919 0.1269 -596.9224 861.5119)" class="st7" cx="190.9" cy="769.8" rx="6" ry="6.2"/>
		<path class="st8" d="M189.9,775.6L189.9,775.6c0,1.1-0.3,2-0.7,2.9c-0.5,0-1-0.1-1.4-0.1c-0.2,0-0.3,0-0.5,0h-0.4l-0.9-0.1
			c-0.6-0.1-1.1-0.1-1.7-0.2l-1.5-0.2c-1.8-0.2-3.5-0.4-5.2-0.7c-0.1-0.5-0.2-0.9-0.2-1.4c0-0.2,0-0.3,0-0.5c0.1-1,0.4-2,0.9-2.8
			c0.2-0.3,0.4-0.5,0.6-0.8c0.3-0.3,0.6-0.6,1-0.9l0,0c1-0.7,2.3-1.2,3.7-1.2c0.1,0,0.1,0,0.2,0c0.2,0,0.4,0,0.5,0s0.1,0,0.2,0
			c0.1,0,0.1,0,0.1,0c0.1,0,0.2,0,0.3,0.1c0.1,0,0.1,0,0.2,0c0.3,0.1,0.6,0.2,0.9,0.3c1,0.4,1.9,1.1,2.5,1.9l0.1,0.1
			c0.3,0.4,0.5,0.8,0.7,1.2l0,0c0.1,0.3,0.2,0.5,0.3,0.8C189.8,774.5,189.9,775,189.9,775.6L189.9,775.6z"/>
		<path class="st9" d="M244.2,780.6c-1.2,0-2.4,0.1-3.7,0.1h-2.1c-0.5,0-1,0-1.6,0c-1.1,0-2.2,0-3.3,0c-0.5,0-0.9,0-1.4,0
			c0.1-0.4,0.2-0.8,0.4-1.2c0.1-0.2,0.2-0.4,0.3-0.5v-0.1c0.1-0.1,0.1-0.2,0.2-0.3l0,0c0.6-0.8,1.3-1.4,2.2-1.9h0.1
			c0.8-0.4,1.7-0.6,2.7-0.6c0.6,0,1.2,0.1,1.8,0.3c0.4,0.1,0.8,0.3,1.2,0.5c0.6,0.3,1.2,0.7,1.7,1.2
			C243.4,778.8,243.9,779.6,244.2,780.6L244.2,780.6z"/>
		<path class="st8" d="M233.5,780.7c-0.5,0-0.9,0-1.4,0c-1.2,0-2.4,0-3.5,0c-1.3,0-2.6,0-3.9-0.1h-0.1c-1.2,0-2.4,0-3.6-0.1
			c0-1.3,0.5-2.5,1.2-3.4l0,0l0,0l0,0l0,0c0.1-0.1,0.2-0.2,0.3-0.3s0.2-0.2,0.3-0.3l0,0c0.1-0.1,0.1-0.1,0.2-0.2l0,0
			c1.1-0.9,2.5-1.5,4.1-1.5c1.2,0,2.4,0.3,3.3,0.9c0.5,0.3,1,0.7,1.4,1.1l0,0c0.1,0.1,0.2,0.2,0.3,0.3s0.2,0.2,0.2,0.3
			c0,0,0,0.1,0.1,0.1c0.2,0.3,0.4,0.6,0.5,0.9l0,0l0,0v0.1c0.1,0.2,0.1,0.3,0.2,0.5v0.1c0,0.1,0,0.1,0,0.2
			C233.4,779.9,233.5,780.3,233.5,780.7L233.5,780.7z"/>
	</g>
	
		<ellipse transform="matrix(0.1269 -0.9919 0.9919 0.1269 -706.5592 949.4382)" class="st10" cx="186" cy="876.1" rx="32.7" ry="34"/>
	
		<ellipse transform="matrix(0.1269 -0.9919 0.9919 0.1269 -706.5592 949.4382)" class="st1" cx="186" cy="876.1" rx="25.7" ry="26.8"/>
	<g>
		<g>
			<path class="st9" d="M190.6,877.7c-2.1,3.6-2.2,7.4-0.3,8.4s5.1-1.1,7.2-4.7s2.2-7.4,0.3-8.4C195.9,872,192.6,874.1,190.6,877.7z
				"/>
			<path class="st11" d="M196.6,875c-0.2-0.1-1.9,2.1-3.1,4c-1.5,2.5-2.6,5.3-2.3,5.4C191.6,884.7,197,875.3,196.6,875L196.6,875z"
				/>
		</g>
		<g>
			<path class="st9" d="M181.8,872.3c0.9,4,3.4,7,5.5,6.5s3.1-4.1,2.2-8.1c-0.9-4-3.4-7-5.5-6.5S180.8,868.3,181.8,872.3z"/>
			<path class="st11" d="M184.5,866.5c-0.2,0,0,2.8,0.4,5c0.6,2.8,1.7,5.7,2,5.6C187.3,877,184.9,866.5,184.5,866.5L184.5,866.5z"/>
		</g>
		<g>
			<path class="st9" d="M176.6,885.5c3.5,2.5,7.3,3.1,8.6,1.4s-0.5-5-4-7.5s-7.3-3.1-8.6-1.4S173.1,883,176.6,885.5z"/>
			<path class="st11" d="M174.6,879.3c-0.1,0.2,1.9,2.1,3.8,3.5c2.4,1.7,5.2,3.2,5.3,3C183.9,885.4,174.9,879,174.6,879.3
				L174.6,879.3z"/>
		</g>
	</g>
</g>
<g>
	<g>
		<path class="st12" d="M151.7,519.9c0,0-26.9-18.8-43.4,15.2C108.3,535.1,134.2,546.2,151.7,519.9z"/>
		<path class="st13" d="M161.2,523.2c0,0-3.6-5.1-10.5-3.2"/>
		<path class="st14" d="M110.8,532.9c9.5-10.4,25.4-15.4,39.2-13.3c0.6,0.1,0.6,0.9,0,1c-6.8,1.4-13.3,2.8-19.8,5
			c-6.4,2.1-12.6,4.8-18.9,7.8C110.9,533.6,110.5,533.2,110.8,532.9L110.8,532.9L110.8,532.9z"/>
		<path class="st14" d="M119.1,522.2c1.9,0.7,3.9,1.8,4.8,3.8c0.4,1.1-1.3,1.7-1.7,0.6c-0.4-1.7-1.9-2.9-3.2-4.1
			C118.8,522.4,118.9,522.2,119.1,522.2L119.1,522.2z"/>
		<path class="st14" d="M132.3,516.5c1.3,0.5,7.4,4.4,5.2,5.9c-0.4,0.2-1,0-1.2-0.4c-0.7-2-2.6-3.8-4.2-5.2
			C132,516.7,132.2,516.5,132.3,516.5L132.3,516.5L132.3,516.5z"/>
		<path class="st14" d="M125.3,517.9c2.5,1,4.9,2.2,6.9,4.2c1.5,1.6-1.2,3.7-2.3,1.7c-1.1-2.1-2.9-4-4.8-5.5
			C124.9,518.1,125.1,517.8,125.3,517.9L125.3,517.9L125.3,517.9z"/>
		<path class="st14" d="M121.2,532.8c0.2-2,0.4-4.1,0.3-6.1c0-0.5,0.4-0.9,0.8-0.9c1.8,0.1,0.4,3.2,0.2,4.1c-0.3,1-0.7,2-1.1,3
			C121.5,533.1,121.2,533,121.2,532.8L121.2,532.8L121.2,532.8z"/>
		<path class="st14" d="M137.4,529.8c0.7-2.7,1-5.6,0.7-8.4c-0.1-1.1,1.6-1.3,1.8-0.2c0,3-0.8,6-2.1,8.6
			C137.7,530,137.4,529.9,137.4,529.8L137.4,529.8L137.4,529.8z"/>
		<path class="st14" d="M128.2,532.2c1.3-3,2.1-6.2,2.1-9.4c0-1.9,2.9-1.9,2.9,0c-0.6,3.6-2.4,6.9-4.6,9.7
			C128.4,532.7,128.1,532.5,128.2,532.2L128.2,532.2L128.2,532.2z"/>
		<path class="st15" d="M140.8,518.1c-0.1,0.6-1.1,1-2.4,0.9c-1.3-0.1-2.3-0.7-2.2-1.3c0.1-0.6,1.1-1,2.4-0.9
			C139.8,516.9,140.8,517.5,140.8,518.1z"/>
		<path class="st15" d="M131.5,517.5c0.1,0.3-0.4,0.8-1.1,1.1c-0.7,0.3-1.4,0.2-1.6-0.1s0.4-0.8,1.1-1.1
			C130.7,517.1,131.4,517.2,131.5,517.5z"/>
	</g>
	<g>
		<path class="st16" d="M149.2,522.4c8-5.6,33.4-4.2,26.6,27.2C175.8,549.6,143.3,544.4,149.2,522.4z"/>
		<path class="st14" d="M150.9,521.8c12.5,2.4,23,13.4,24.8,26c0.1,0.9-1.1,1.2-1.4,0.4c-5.3-10.8-13.5-19-23.7-25.5
			C150,522.6,150.3,521.7,150.9,521.8L150.9,521.8L150.9,521.8z"/>
		<path class="st14" d="M174.4,535.8c-1.8-0.8-4-0.4-5.6,0.6c-1.4,0.7-2.3-1.4-0.9-2c2.3-0.8,5-0.9,7,0.6
			C175.4,535.4,174.9,536.1,174.4,535.8L174.4,535.8z"/>
		<path class="st14" d="M168.2,527.2c-2.1-0.4-4.5,0.4-5.5,2.3c-1.2,1.8-3.7-0.2-2.1-1.8c2.1-2,5.3-2.4,7.8-1.1
			C168.7,526.9,168.5,527.3,168.2,527.2L168.2,527.2L168.2,527.2z"/>
		<path class="st14" d="M161,522.6c-2-0.1-3.9,0.9-5.2,2.4c-0.3,0.4-0.9,0.5-1.4,0.1c-1.7-1.8,3.7-3.4,4.9-3.3c0.6,0,1.1,0,1.7,0.2
			c0.1,0,0.2,0.2,0.2,0.3C161.3,522.6,161.1,522.7,161,522.6L161,522.6L161,522.6z"/>
		<path class="st14" d="M168.1,535.5c-1.9,0.8-3.5,2.5-4.2,4.4c-1.3,1.1,0.2-3.1,0.7-3.5c0.7-1.1,1.5-2.1,2.6-2.8
			C168.6,532.7,169.7,534.9,168.1,535.5L168.1,535.5z"/>
		<path class="st14" d="M160.7,528.9c-2.1,0.5-3.6,2.5-3.9,4.6c0,0.1-0.2,0.2-0.3,0.2s-0.2-0.1-0.2-0.2c-0.1-0.6-0.1-1.3-0.1-2
			c0.2-2.3,1.7-4.4,3.8-5.5C162.2,525,163.3,528.7,160.7,528.9L160.7,528.9L160.7,528.9z"/>
		<path class="st14" d="M154.9,524.7c-1.5,1.1-2.2,3.1-2.4,4.9c0,0.3-0.5,0.3-0.5,0c-0.3-1.6-0.2-3.4,0.5-4.9c0.2-0.6,0.5-1.1,1-1.7
			C154.8,521.8,156.4,523.8,154.9,524.7L154.9,524.7L154.9,524.7z"/>
		<path class="st15" d="M172.4,529.3c0.9,1.2,1.2,2.6,0.6,3.1s-1.9-0.2-2.8-1.4c-0.9-1.2-1.2-2.6-0.6-3.1S171.4,528.1,172.4,529.3
			L172.4,529.3z"/>
		<path class="st15" d="M165.6,523.4c0.6,0.4,0.7,1.2,0.4,1.7c-0.4,0.5-1.1,0.5-1.7,0.1c-0.6-0.4-0.7-1.2-0.4-1.7
			C164.3,523,165.1,523,165.6,523.4z"/>
		<path class="st17" d="M149.9,522.5c0,0-1.9-3.1-6.3-4.6"/>
	</g>
	<g>
		<circle class="st18" cx="153.9" cy="509.8" r="6.6"/>
		<path class="st19" d="M157.9,506.2c-0.2,0.3-0.9,0.2-1.6-0.2s-1-1.1-0.8-1.4s0.9-0.2,1.6,0.2C157.8,505.2,158.2,505.9,157.9,506.2
			z"/>
		<path class="st20" d="M152.8,505.8c-0.6,0.2-1.2,0-1.4-0.4s0.3-0.9,0.9-1.1c0.6-0.2,1.2,0,1.4,0.4
			C153.8,505.1,153.4,505.6,152.8,505.8z"/>
	</g>
	<g>
		<circle class="st21" cx="145.1" cy="511.5" r="6.6"/>
		<path class="st19" d="M146.8,506.4c0,0.4-0.7,0.7-1.5,0.6c-0.8,0-1.4-0.4-1.4-0.8s0.7-0.7,1.5-0.6
			C146.2,505.6,146.8,506,146.8,506.4z"/>
		<path class="st20" d="M142.1,508.6c-0.5,0.5-1.1,0.6-1.4,0.3c-0.3-0.3-0.2-0.9,0.3-1.4s1.1-0.6,1.4-0.3S142.6,508.1,142.1,508.6z"
			/>
	</g>
	<g>
		<circle class="st21" cx="161.4" cy="515.9" r="6.6"/>
		<path class="st19" d="M163.1,510.8c0,0.4-0.7,0.7-1.5,0.6c-0.8,0-1.4-0.4-1.4-0.8s0.7-0.7,1.5-0.6
			C162.5,510,163.2,510.4,163.1,510.8z"/>
		<path class="st20" d="M158.5,513c-0.5,0.5-1.1,0.6-1.4,0.3c-0.3-0.3-0.2-0.9,0.3-1.4c0.5-0.5,1.1-0.6,1.4-0.3
			S158.9,512.5,158.5,513z"/>
	</g>
	<g>
		<circle class="st22" cx="154.6" cy="519.1" r="6.6"/>
		<path class="st19" d="M160.1,519.6c-0.4,0.1-0.8-0.5-1-1.3c-0.1-0.8,0.1-1.5,0.4-1.5c0.4-0.1,0.8,0.5,1,1.3
			C160.6,518.8,160.4,519.5,160.1,519.6z"/>
		<path class="st23" d="M156.8,515.5c-0.6-0.3-0.8-0.9-0.6-1.3s0.9-0.4,1.4-0.1c0.6,0.3,0.8,0.9,0.6,1.3
			C158,515.8,157.3,515.9,156.8,515.5z"/>
	</g>
	<g>
		<path class="st18" d="M149.5,515.6c3.3,1.6,4.7,5.5,3.1,8.8c-1.6,3.3-5.5,4.7-8.8,3.1s-4.7-5.5-3.1-8.8
			C142.3,515.4,146.3,514,149.5,515.6z"/>
		<path class="st19" d="M142.6,517.9c0.4,0.2,0.4,0.9,0,1.6s-0.9,1.1-1.3,1c-0.4-0.2-0.4-0.9,0-1.6
			C141.7,518.2,142.2,517.8,142.6,517.9z"/>
		<path class="st20" d="M142.9,523.1c0.3,0.6,0.1,1.2-0.2,1.4s-0.9-0.2-1.2-0.8c-0.3-0.6-0.1-1.2,0.2-1.4
			C142,522.1,142.6,522.5,142.9,523.1z"/>
	</g>
</g>
<g>
	<g>
		<path class="st12" d="M238.5,480.2c0,0-26.9-18.8-43.4,15.2C195.1,495.4,221,506.5,238.5,480.2z"/>
		<path class="st13" d="M248,483.5c0,0-3.6-5.1-10.5-3.2"/>
		<path class="st14" d="M197.6,493.2c9.5-10.4,25.4-15.4,39.2-13.3c0.6,0.1,0.6,0.9,0,1c-6.8,1.4-13.3,2.8-19.8,5
			c-6.4,2.1-12.6,4.8-18.9,7.8C197.7,493.9,197.3,493.5,197.6,493.2L197.6,493.2L197.6,493.2z"/>
		<path class="st14" d="M205.9,482.5c1.9,0.7,3.9,1.8,4.8,3.8c0.4,1.1-1.3,1.7-1.7,0.6c-0.4-1.7-1.9-2.9-3.2-4.1
			C205.6,482.7,205.7,482.5,205.9,482.5L205.9,482.5z"/>
		<path class="st14" d="M219.1,476.8c1.3,0.5,7.4,4.4,5.2,5.9c-0.4,0.2-1,0-1.2-0.4c-0.7-2-2.6-3.8-4.2-5.2
			C218.8,477,219,476.8,219.1,476.8L219.1,476.8L219.1,476.8z"/>
		<path class="st14" d="M212.1,478.2c2.5,1,4.9,2.2,6.9,4.2c1.5,1.6-1.2,3.7-2.3,1.7c-1.1-2.1-2.9-4-4.8-5.5
			C211.7,478.4,211.9,478.1,212.1,478.2L212.1,478.2L212.1,478.2z"/>
		<path class="st14" d="M208,493.1c0.2-2,0.4-4.1,0.3-6.1c0-0.5,0.4-0.9,0.8-0.9c1.8,0.1,0.4,3.2,0.2,4.1c-0.3,1-0.7,2-1.1,3
			C208.3,493.4,208,493.3,208,493.1L208,493.1L208,493.1z"/>
		<path class="st14" d="M224.2,490.1c0.7-2.7,1-5.6,0.7-8.4c-0.1-1.1,1.6-1.3,1.8-0.2c0,3-0.8,6-2.1,8.6
			C224.5,490.3,224.2,490.2,224.2,490.1L224.2,490.1L224.2,490.1z"/>
		<path class="st14" d="M215,492.5c1.3-3,2.1-6.2,2.1-9.4c0-1.9,2.9-1.9,2.9,0c-0.6,3.6-2.4,6.9-4.6,9.7
			C215.2,493,214.9,492.8,215,492.5L215,492.5L215,492.5z"/>
		<path class="st15" d="M227.6,478.4c-0.1,0.6-1.1,1-2.4,0.9c-1.3-0.1-2.3-0.7-2.2-1.3c0.1-0.6,1.1-1,2.4-0.9
			C226.6,477.2,227.6,477.8,227.6,478.4z"/>
		<path class="st15" d="M218.3,477.8c0.1,0.3-0.4,0.8-1.1,1.1c-0.7,0.3-1.4,0.2-1.6-0.1s0.4-0.8,1.1-1.1
			C217.5,477.4,218.2,477.5,218.3,477.8z"/>
	</g>
	<g>
		<path class="st16" d="M236,482.7c8-5.6,33.4-4.2,26.6,27.2C262.6,509.9,230.1,504.7,236,482.7z"/>
		<path class="st14" d="M237.7,482.1c12.5,2.4,23,13.4,24.8,26c0.1,0.9-1.1,1.2-1.4,0.4c-5.3-10.8-13.5-19-23.7-25.5
			C236.8,482.9,237.1,482,237.7,482.1L237.7,482.1L237.7,482.1z"/>
		<path class="st14" d="M261.2,496.1c-1.8-0.8-4-0.4-5.6,0.6c-1.4,0.7-2.3-1.4-0.9-2c2.3-0.8,5-0.9,7,0.6
			C262.2,495.7,261.7,496.4,261.2,496.1L261.2,496.1z"/>
		<path class="st14" d="M255,487.5c-2.1-0.4-4.5,0.4-5.5,2.3c-1.2,1.8-3.7-0.2-2.1-1.8c2.1-2,5.3-2.4,7.8-1.1
			C255.5,487.2,255.3,487.6,255,487.5L255,487.5L255,487.5z"/>
		<path class="st14" d="M247.8,482.9c-2-0.1-3.9,0.9-5.2,2.4c-0.3,0.4-0.9,0.5-1.4,0.1c-1.7-1.8,3.7-3.4,4.9-3.3
			c0.6,0,1.1,0,1.7,0.2c0.1,0,0.2,0.2,0.2,0.3C248.1,482.9,247.9,483,247.8,482.9L247.8,482.9L247.8,482.9z"/>
		<path class="st14" d="M254.9,495.8c-1.9,0.8-3.5,2.5-4.2,4.4c-1.3,1.1,0.2-3.1,0.7-3.5c0.7-1.1,1.5-2.1,2.6-2.8
			C255.4,493,256.5,495.2,254.9,495.8L254.9,495.8z"/>
		<path class="st14" d="M247.5,489.2c-2.1,0.5-3.6,2.5-3.9,4.6c0,0.1-0.2,0.2-0.3,0.2s-0.2-0.1-0.2-0.2c-0.1-0.6-0.1-1.3-0.1-2
			c0.2-2.3,1.7-4.4,3.8-5.5C249,485.3,250.1,489,247.5,489.2L247.5,489.2L247.5,489.2z"/>
		<path class="st14" d="M241.7,485c-1.5,1.1-2.2,3.1-2.4,4.9c0,0.3-0.5,0.3-0.5,0c-0.3-1.6-0.2-3.4,0.5-4.9c0.2-0.6,0.5-1.1,1-1.7
			C241.6,482.1,243.2,484.1,241.7,485L241.7,485L241.7,485z"/>
		<path class="st15" d="M259.2,489.6c0.9,1.2,1.2,2.6,0.6,3.1c-0.6,0.5-1.9-0.2-2.8-1.4c-0.9-1.2-1.2-2.6-0.6-3.1
			C257,487.7,258.2,488.4,259.2,489.6L259.2,489.6z"/>
		<path class="st15" d="M252.4,483.7c0.6,0.4,0.7,1.2,0.4,1.7c-0.4,0.5-1.1,0.5-1.7,0.1c-0.6-0.4-0.7-1.2-0.4-1.7
			C251.1,483.3,251.9,483.3,252.4,483.7z"/>
		<path class="st17" d="M236.7,482.8c0,0-1.9-3.1-6.3-4.6"/>
	</g>
	<g>
		<circle class="st18" cx="240.7" cy="470.1" r="6.6"/>
		<path class="st19" d="M244.7,466.5c-0.2,0.3-0.9,0.2-1.6-0.2s-1-1.1-0.8-1.4s0.9-0.2,1.6,0.2C244.6,465.5,245,466.2,244.7,466.5z"
			/>
		<path class="st20" d="M239.6,466.1c-0.6,0.2-1.2,0-1.4-0.4s0.3-0.9,0.9-1.1c0.6-0.2,1.2,0,1.4,0.4
			C240.6,465.4,240.2,465.9,239.6,466.1z"/>
	</g>
	<g>
		<circle class="st21" cx="231.9" cy="471.8" r="6.6"/>
		<path class="st19" d="M233.6,466.7c0,0.4-0.7,0.7-1.5,0.6c-0.8,0-1.4-0.4-1.4-0.8s0.7-0.7,1.5-0.6
			C233,465.9,233.6,466.3,233.6,466.7z"/>
		<path class="st20" d="M228.9,468.9c-0.5,0.5-1.1,0.6-1.4,0.3c-0.3-0.3-0.2-0.9,0.3-1.4s1.1-0.6,1.4-0.3S229.4,468.4,228.9,468.9z"
			/>
	</g>
	<g>
		<circle class="st21" cx="248.2" cy="476.2" r="6.6"/>
		<path class="st19" d="M249.9,471.1c0,0.4-0.7,0.7-1.5,0.6c-0.8,0-1.4-0.4-1.4-0.8s0.7-0.7,1.5-0.6
			C249.3,470.3,250,470.7,249.9,471.1z"/>
		<path class="st20" d="M245.3,473.3c-0.5,0.5-1.1,0.6-1.4,0.3c-0.3-0.3-0.2-0.9,0.3-1.4s1.1-0.6,1.4-0.3S245.7,472.8,245.3,473.3z"
			/>
	</g>
	<g>
		<circle class="st22" cx="241.4" cy="479.4" r="6.6"/>
		<path class="st19" d="M246.9,479.9c-0.4,0.1-0.8-0.5-1-1.3c-0.1-0.8,0.1-1.5,0.4-1.5c0.4-0.1,0.8,0.5,1,1.3
			C247.4,479.1,247.2,479.8,246.9,479.9z"/>
		<path class="st23" d="M243.6,475.8c-0.6-0.3-0.8-0.9-0.6-1.3s0.9-0.4,1.4-0.1c0.6,0.3,0.8,0.9,0.6,1.3S244.1,476.2,243.6,475.8z"
			/>
	</g>
	<g>
		<path class="st18" d="M236.3,475.9c3.3,1.6,4.7,5.5,3.1,8.8c-1.6,3.3-5.5,4.7-8.8,3.1s-4.7-5.5-3.1-8.8
			C229.1,475.7,233.1,474.3,236.3,475.9z"/>
		<path class="st19" d="M229.4,478.2c0.4,0.2,0.4,0.9,0,1.6s-0.9,1.1-1.3,1c-0.4-0.2-0.4-0.9,0-1.6S229,478.1,229.4,478.2z"/>
		<path class="st20" d="M229.7,483.4c0.3,0.6,0.1,1.2-0.2,1.4s-0.9-0.2-1.2-0.8c-0.3-0.6-0.1-1.2,0.2-1.4
			C228.8,482.4,229.4,482.8,229.7,483.4z"/>
	</g>
</g>
<g>
	<g>
		<path class="st12" d="M152.2,443.3c0,0-26.9-18.8-43.4,15.2C108.8,458.5,134.7,469.6,152.2,443.3z"/>
		<path class="st13" d="M161.7,446.6c0,0-3.6-5.1-10.5-3.2"/>
		<path class="st14" d="M111.3,456.3c9.5-10.4,25.4-15.4,39.2-13.3c0.6,0.1,0.6,0.9,0,1c-6.8,1.4-13.3,2.8-19.8,5
			c-6.4,2.1-12.6,4.8-18.9,7.8C111.4,457,111,456.6,111.3,456.3L111.3,456.3L111.3,456.3z"/>
		<path class="st14" d="M119.6,445.6c1.9,0.7,3.9,1.8,4.8,3.8c0.4,1.1-1.3,1.7-1.7,0.6c-0.4-1.7-1.9-2.9-3.2-4.1
			C119.3,445.8,119.4,445.6,119.6,445.6L119.6,445.6z"/>
		<path class="st14" d="M132.8,439.9c1.3,0.5,7.4,4.4,5.2,5.9c-0.4,0.2-1,0-1.2-0.4c-0.7-2-2.6-3.8-4.2-5.2
			C132.5,440.1,132.7,439.9,132.8,439.9L132.8,439.9L132.8,439.9z"/>
		<path class="st14" d="M125.8,441.3c2.5,1,4.9,2.2,6.9,4.2c1.5,1.6-1.2,3.7-2.3,1.7c-1.1-2.1-2.9-4-4.8-5.5
			C125.4,441.5,125.6,441.2,125.8,441.3L125.8,441.3L125.8,441.3z"/>
		<path class="st14" d="M121.7,456.2c0.2-2,0.4-4.1,0.3-6.1c0-0.5,0.4-0.9,0.8-0.9c1.8,0.1,0.4,3.2,0.2,4.1c-0.3,1-0.7,2-1.1,3
			C122,456.5,121.7,456.4,121.7,456.2L121.7,456.2L121.7,456.2z"/>
		<path class="st14" d="M137.9,453.2c0.7-2.7,1-5.6,0.7-8.4c-0.1-1.1,1.6-1.3,1.8-0.2c0,3-0.8,6-2.1,8.6
			C138.2,453.4,137.9,453.3,137.9,453.2L137.9,453.2L137.9,453.2z"/>
		<path class="st14" d="M128.7,455.6c1.3-3,2.1-6.2,2.1-9.4c0-1.9,2.9-1.9,2.9,0c-0.6,3.6-2.4,6.9-4.6,9.7
			C128.9,456.1,128.6,455.9,128.7,455.6L128.7,455.6L128.7,455.6z"/>
		<path class="st15" d="M141.3,441.5c-0.1,0.6-1.1,1-2.4,0.9c-1.3-0.1-2.3-0.7-2.2-1.3c0.1-0.6,1.1-1,2.4-0.9
			C140.3,440.3,141.3,440.9,141.3,441.5z"/>
		<path class="st15" d="M132,440.9c0.1,0.3-0.4,0.8-1.1,1.1c-0.7,0.3-1.4,0.2-1.6-0.1s0.4-0.8,1.1-1.1
			C131.2,440.5,131.9,440.6,132,440.9z"/>
	</g>
	<g>
		<path class="st16" d="M149.7,445.8c8-5.6,33.4-4.2,26.6,27.2C176.3,473,143.8,467.8,149.7,445.8z"/>
		<path class="st14" d="M151.4,445.2c12.5,2.4,23,13.4,24.8,26c0.1,0.9-1.1,1.2-1.4,0.4c-5.3-10.8-13.5-19-23.7-25.5
			C150.5,446,150.8,445.1,151.4,445.2L151.4,445.2L151.4,445.2z"/>
		<path class="st14" d="M174.9,459.2c-1.8-0.8-4-0.4-5.6,0.6c-1.4,0.7-2.3-1.4-0.9-2c2.3-0.8,5-0.9,7,0.6
			C175.9,458.8,175.4,459.5,174.9,459.2L174.9,459.2z"/>
		<path class="st14" d="M168.7,450.6c-2.1-0.4-4.5,0.4-5.5,2.3c-1.2,1.8-3.7-0.2-2.1-1.8c2.1-2,5.3-2.4,7.8-1.1
			C169.2,450.3,169,450.7,168.7,450.6L168.7,450.6L168.7,450.6z"/>
		<path class="st14" d="M161.5,446c-2-0.1-3.9,0.9-5.2,2.4c-0.3,0.4-0.9,0.5-1.4,0.1c-1.7-1.8,3.7-3.4,4.9-3.3c0.6,0,1.1,0,1.7,0.2
			c0.1,0,0.2,0.2,0.2,0.3C161.8,446,161.6,446.1,161.5,446L161.5,446L161.5,446z"/>
		<path class="st14" d="M168.6,458.9c-1.9,0.8-3.5,2.5-4.2,4.4c-1.3,1.1,0.2-3.1,0.7-3.5c0.7-1.1,1.5-2.1,2.6-2.8
			C169.1,456.1,170.2,458.3,168.6,458.9L168.6,458.9z"/>
		<path class="st14" d="M161.2,452.3c-2.1,0.5-3.6,2.5-3.9,4.6c0,0.1-0.2,0.2-0.3,0.2s-0.2-0.1-0.2-0.2c-0.1-0.6-0.1-1.3-0.1-2
			c0.2-2.3,1.7-4.4,3.8-5.5C162.7,448.4,163.8,452.1,161.2,452.3L161.2,452.3L161.2,452.3z"/>
		<path class="st14" d="M155.4,448.1c-1.5,1.1-2.2,3.1-2.4,4.9c0,0.3-0.5,0.3-0.5,0c-0.3-1.6-0.2-3.4,0.5-4.9c0.2-0.6,0.5-1.1,1-1.7
			C155.3,445.2,156.9,447.2,155.4,448.1L155.4,448.1L155.4,448.1z"/>
		<path class="st15" d="M172.9,452.7c0.9,1.2,1.2,2.6,0.6,3.1s-1.9-0.2-2.8-1.4c-0.9-1.2-1.2-2.6-0.6-3.1S171.9,451.5,172.9,452.7
			L172.9,452.7z"/>
		<path class="st15" d="M166.1,446.8c0.6,0.4,0.7,1.2,0.4,1.7c-0.4,0.5-1.1,0.5-1.7,0.1c-0.6-0.4-0.7-1.2-0.4-1.7
			C164.8,446.4,165.6,446.4,166.1,446.8z"/>
		<path class="st17" d="M150.4,445.9c0,0-1.9-3.1-6.3-4.6"/>
	</g>
	<g>
		<circle class="st18" cx="154.4" cy="433.2" r="6.6"/>
		<path class="st19" d="M158.4,429.6c-0.2,0.3-0.9,0.2-1.6-0.2s-1-1.1-0.8-1.4s0.9-0.2,1.6,0.2C158.3,428.6,158.7,429.3,158.4,429.6
			z"/>
		<path class="st20" d="M153.3,429.2c-0.6,0.2-1.2,0-1.4-0.4s0.3-0.9,0.9-1.1c0.6-0.2,1.2,0,1.4,0.4
			C154.3,428.5,153.9,429,153.3,429.2z"/>
	</g>
	<g>
		<circle class="st21" cx="145.6" cy="434.9" r="6.6"/>
		<path class="st19" d="M147.3,429.8c0,0.4-0.7,0.7-1.5,0.6c-0.8,0-1.4-0.4-1.4-0.8s0.7-0.7,1.5-0.6
			C146.7,429,147.3,429.4,147.3,429.8z"/>
		<path class="st20" d="M142.6,432c-0.5,0.5-1.1,0.6-1.4,0.3c-0.3-0.3-0.2-0.9,0.3-1.4s1.1-0.6,1.4-0.3S143.1,431.5,142.6,432z"/>
	</g>
	<g>
		<circle class="st21" cx="161.9" cy="439.3" r="6.6"/>
		<path class="st19" d="M163.6,434.2c0,0.4-0.7,0.7-1.5,0.6c-0.8,0-1.4-0.4-1.4-0.8s0.7-0.7,1.5-0.6
			C163,433.4,163.7,433.8,163.6,434.2z"/>
		<path class="st20" d="M159,436.4c-0.5,0.5-1.1,0.6-1.4,0.3c-0.3-0.3-0.2-0.9,0.3-1.4s1.1-0.6,1.4-0.3S159.4,435.9,159,436.4z"/>
	</g>
	<g>
		<circle class="st22" cx="155.1" cy="442.5" r="6.6"/>
		<path class="st19" d="M160.6,443c-0.4,0.1-0.8-0.5-1-1.3c-0.1-0.8,0.1-1.5,0.4-1.5c0.4-0.1,0.8,0.5,1,1.3
			C161.1,442.2,160.9,442.9,160.6,443z"/>
		<path class="st23" d="M157.3,438.9c-0.6-0.3-0.8-0.9-0.6-1.3s0.9-0.4,1.4-0.1c0.6,0.3,0.8,0.9,0.6,1.3S157.8,439.3,157.3,438.9z"
			/>
	</g>
	<g>
		<path class="st18" d="M150,439c3.3,1.6,4.7,5.5,3.1,8.8c-1.6,3.3-5.5,4.7-8.8,3.1s-4.7-5.5-3.1-8.8
			C142.8,438.8,146.8,437.4,150,439z"/>
		<path class="st19" d="M143.1,441.3c0.4,0.2,0.4,0.9,0,1.6s-0.9,1.1-1.3,1c-0.4-0.2-0.4-0.9,0-1.6S142.7,441.2,143.1,441.3z"/>
		<path class="st20" d="M143.4,446.5c0.3,0.6,0.1,1.2-0.2,1.4s-0.9-0.2-1.2-0.8c-0.3-0.6-0.1-1.2,0.2-1.4
			C142.5,445.5,143.1,445.9,143.4,446.5z"/>
	</g>
</g>
<g>
	<g>
		<path class="st12" d="M107.6,390.1c0,0-26.9-18.8-43.4,15.2C64.2,405.3,90.1,416.4,107.6,390.1z"/>
		<path class="st13" d="M117.1,393.4c0,0-3.6-5.1-10.5-3.2"/>
		<path class="st14" d="M66.7,403.1c9.5-10.4,25.4-15.4,39.2-13.3c0.6,0.1,0.6,0.9,0,1c-6.8,1.4-13.3,2.8-19.8,5
			c-6.4,2.1-12.6,4.8-18.9,7.8C66.8,403.8,66.4,403.4,66.7,403.1L66.7,403.1L66.7,403.1z"/>
		<path class="st14" d="M75,392.4c1.9,0.7,3.9,1.8,4.8,3.8c0.4,1.1-1.3,1.7-1.7,0.6c-0.4-1.7-1.9-2.9-3.2-4.1
			C74.7,392.6,74.8,392.4,75,392.4L75,392.4z"/>
		<path class="st14" d="M88.2,386.7c1.3,0.5,7.4,4.4,5.2,5.9c-0.4,0.2-1,0-1.2-0.4c-0.7-2-2.6-3.8-4.2-5.2
			C87.9,386.9,88.1,386.7,88.2,386.7L88.2,386.7L88.2,386.7z"/>
		<path class="st14" d="M81.2,388.1c2.5,1,4.9,2.2,6.9,4.2c1.5,1.6-1.2,3.7-2.3,1.7c-1.1-2.1-2.9-4-4.8-5.5
			C80.8,388.3,81,388,81.2,388.1L81.2,388.1L81.2,388.1z"/>
		<path class="st14" d="M77.1,403c0.2-2,0.4-4.1,0.3-6.1c0-0.5,0.4-0.9,0.8-0.9c1.8,0.1,0.4,3.2,0.2,4.1c-0.3,1-0.7,2-1.1,3
			C77.4,403.3,77.1,403.2,77.1,403L77.1,403L77.1,403z"/>
		<path class="st14" d="M93.3,400c0.7-2.7,1-5.6,0.7-8.4c-0.1-1.1,1.6-1.3,1.8-0.2c0,3-0.8,6-2.1,8.6
			C93.6,400.2,93.3,400.1,93.3,400L93.3,400L93.3,400z"/>
		<path class="st14" d="M84.1,402.4c1.3-3,2.1-6.2,2.1-9.4c0-1.9,2.9-1.9,2.9,0c-0.6,3.6-2.4,6.9-4.6,9.7
			C84.3,402.9,84,402.7,84.1,402.4L84.1,402.4L84.1,402.4z"/>
		<path class="st15" d="M96.7,388.3c-0.1,0.6-1.1,1-2.4,0.9c-1.3-0.1-2.3-0.7-2.2-1.3c0.1-0.6,1.1-1,2.4-0.9
			C95.7,387.1,96.7,387.7,96.7,388.3z"/>
		<path class="st15" d="M87.4,387.7c0.1,0.3-0.4,0.8-1.1,1.1c-0.7,0.3-1.4,0.2-1.6-0.1s0.4-0.8,1.1-1.1
			C86.6,387.3,87.3,387.4,87.4,387.7z"/>
	</g>
	<g>
		<path class="st16" d="M105.1,392.6c8-5.6,33.4-4.2,26.6,27.2C131.7,419.8,99.2,414.6,105.1,392.6z"/>
		<path class="st14" d="M106.8,392c12.5,2.4,23,13.4,24.8,26c0.1,0.9-1.1,1.2-1.4,0.4c-5.3-10.8-13.5-19-23.7-25.5
			C105.9,392.8,106.2,391.9,106.8,392L106.8,392L106.8,392z"/>
		<path class="st14" d="M130.3,406c-1.8-0.8-4-0.4-5.6,0.6c-1.4,0.7-2.3-1.4-0.9-2c2.3-0.8,5-0.9,7,0.6
			C131.3,405.6,130.8,406.3,130.3,406L130.3,406z"/>
		<path class="st14" d="M124.1,397.4c-2.1-0.4-4.5,0.4-5.5,2.3c-1.2,1.8-3.7-0.2-2.1-1.8c2.1-2,5.3-2.4,7.8-1.1
			C124.6,397.1,124.4,397.5,124.1,397.4L124.1,397.4L124.1,397.4z"/>
		<path class="st14" d="M116.9,392.8c-2-0.1-3.9,0.9-5.2,2.4c-0.3,0.4-0.9,0.5-1.4,0.1c-1.7-1.8,3.7-3.4,4.9-3.3
			c0.6,0,1.1,0,1.7,0.2c0.1,0,0.2,0.2,0.2,0.3C117.2,392.8,117,392.9,116.9,392.8L116.9,392.8L116.9,392.8z"/>
		<path class="st14" d="M124,405.7c-1.9,0.8-3.5,2.5-4.2,4.4c-1.3,1.1,0.2-3.1,0.7-3.5c0.7-1.1,1.5-2.1,2.6-2.8
			C124.5,402.9,125.6,405.1,124,405.7L124,405.7z"/>
		<path class="st14" d="M116.6,399.1c-2.1,0.5-3.6,2.5-3.9,4.6c0,0.1-0.2,0.2-0.3,0.2s-0.2-0.1-0.2-0.2c-0.1-0.6-0.1-1.3-0.1-2
			c0.2-2.3,1.7-4.4,3.8-5.5C118.1,395.2,119.2,398.9,116.6,399.1L116.6,399.1L116.6,399.1z"/>
		<path class="st14" d="M110.8,394.9c-1.5,1.1-2.2,3.1-2.4,4.9c0,0.3-0.5,0.3-0.5,0c-0.3-1.6-0.2-3.4,0.5-4.9c0.2-0.6,0.5-1.1,1-1.7
			C110.7,392,112.3,394,110.8,394.9L110.8,394.9L110.8,394.9z"/>
		<path class="st15" d="M128.3,399.5c0.9,1.2,1.2,2.6,0.6,3.1s-1.9-0.2-2.8-1.4c-0.9-1.2-1.2-2.6-0.6-3.1S127.3,398.3,128.3,399.5
			L128.3,399.5z"/>
		<path class="st15" d="M121.5,393.6c0.6,0.4,0.7,1.2,0.4,1.7c-0.4,0.5-1.1,0.5-1.7,0.1c-0.6-0.4-0.7-1.2-0.4-1.7
			C120.2,393.2,121,393.2,121.5,393.6z"/>
		<path class="st17" d="M105.8,392.7c0,0-1.9-3.1-6.3-4.6"/>
	</g>
	<g>
		<circle class="st18" cx="109.8" cy="380" r="6.6"/>
		<path class="st19" d="M113.8,376.4c-0.2,0.3-0.9,0.2-1.6-0.2s-1-1.1-0.8-1.4s0.9-0.2,1.6,0.2C113.7,375.4,114.1,376.1,113.8,376.4
			z"/>
		<path class="st20" d="M108.7,376c-0.6,0.2-1.2,0-1.4-0.4s0.3-0.9,0.9-1.1c0.6-0.2,1.2,0,1.4,0.4
			C109.7,375.3,109.3,375.8,108.7,376z"/>
	</g>
	<g>
		<circle class="st21" cx="101" cy="381.7" r="6.6"/>
		<path class="st19" d="M102.7,376.6c0,0.4-0.7,0.7-1.5,0.6c-0.8,0-1.4-0.4-1.4-0.8s0.7-0.7,1.5-0.6
			C102.1,375.8,102.7,376.2,102.7,376.6z"/>
		<path class="st20" d="M98,378.8c-0.5,0.5-1.1,0.6-1.4,0.3c-0.3-0.3-0.2-0.9,0.3-1.4s1.1-0.6,1.4-0.3S98.5,378.3,98,378.8z"/>
	</g>
	<g>
		<circle class="st21" cx="117.3" cy="386.1" r="6.6"/>
		<path class="st19" d="M119,381c0,0.4-0.7,0.7-1.5,0.6c-0.8,0-1.4-0.4-1.4-0.8s0.7-0.7,1.5-0.6C118.4,380.2,119.1,380.6,119,381z"
			/>
		<path class="st20" d="M114.4,383.2c-0.5,0.5-1.1,0.6-1.4,0.3c-0.3-0.3-0.2-0.9,0.3-1.4s1.1-0.6,1.4-0.3S114.8,382.7,114.4,383.2z"
			/>
	</g>
	<g>
		<circle class="st22" cx="110.5" cy="389.3" r="6.6"/>
		<path class="st19" d="M116,389.8c-0.4,0.1-0.8-0.5-1-1.3c-0.1-0.8,0.1-1.5,0.4-1.5c0.4-0.1,0.8,0.5,1,1.3
			C116.5,389,116.3,389.7,116,389.8z"/>
		<path class="st23" d="M112.7,385.7c-0.6-0.3-0.8-0.9-0.6-1.3s0.9-0.4,1.4-0.1c0.6,0.3,0.8,0.9,0.6,1.3S113.2,386.1,112.7,385.7z"
			/>
	</g>
	<g>
		<path class="st18" d="M105.4,385.8c3.3,1.6,4.7,5.5,3.1,8.8c-1.6,3.3-5.5,4.7-8.8,3.1s-4.7-5.5-3.1-8.8
			C98.2,385.6,102.2,384.2,105.4,385.8z"/>
		<path class="st19" d="M98.5,388.1c0.4,0.2,0.4,0.9,0,1.6s-0.9,1.1-1.3,1c-0.4-0.2-0.4-0.9,0-1.6S98.1,388,98.5,388.1z"/>
		<path class="st20" d="M98.8,393.3c0.3,0.6,0.1,1.2-0.2,1.4s-0.9-0.2-1.2-0.8c-0.3-0.6-0.1-1.2,0.2-1.4
			C97.9,392.3,98.5,392.7,98.8,393.3z"/>
	</g>
</g>
<g>
	<g>
		<path class="st12" d="M245.1,413.3c0,0-26.9-18.8-43.4,15.2C201.7,428.5,227.6,439.6,245.1,413.3z"/>
		<path class="st13" d="M254.6,416.6c0,0-3.6-5.1-10.5-3.2"/>
		<path class="st14" d="M204.2,426.3c9.5-10.4,25.4-15.4,39.2-13.3c0.6,0.1,0.6,0.9,0,1c-6.8,1.4-13.3,2.8-19.8,5
			c-6.4,2.1-12.6,4.8-18.9,7.8C204.3,427,203.9,426.6,204.2,426.3L204.2,426.3L204.2,426.3z"/>
		<path class="st14" d="M212.5,415.6c1.9,0.7,3.9,1.8,4.8,3.8c0.4,1.1-1.3,1.7-1.7,0.6c-0.4-1.7-1.9-2.9-3.2-4.1
			C212.2,415.8,212.3,415.6,212.5,415.6L212.5,415.6z"/>
		<path class="st14" d="M225.7,409.9c1.3,0.5,7.4,4.4,5.2,5.9c-0.4,0.2-1,0-1.2-0.4c-0.7-2-2.6-3.8-4.2-5.2
			C225.4,410.1,225.6,409.9,225.7,409.9L225.7,409.9L225.7,409.9z"/>
		<path class="st14" d="M218.7,411.3c2.5,1,4.9,2.2,6.9,4.2c1.5,1.6-1.2,3.7-2.3,1.7c-1.1-2.1-2.9-4-4.8-5.5
			C218.3,411.5,218.5,411.2,218.7,411.3L218.7,411.3L218.7,411.3z"/>
		<path class="st14" d="M214.6,426.2c0.2-2,0.4-4.1,0.3-6.1c0-0.5,0.4-0.9,0.8-0.9c1.8,0.1,0.4,3.2,0.2,4.1c-0.3,1-0.7,2-1.1,3
			C214.9,426.5,214.6,426.4,214.6,426.2L214.6,426.2L214.6,426.2z"/>
		<path class="st14" d="M230.8,423.2c0.7-2.7,1-5.6,0.7-8.4c-0.1-1.1,1.6-1.3,1.8-0.2c0,3-0.8,6-2.1,8.6
			C231.1,423.4,230.8,423.3,230.8,423.2L230.8,423.2L230.8,423.2z"/>
		<path class="st14" d="M221.6,425.6c1.3-3,2.1-6.2,2.1-9.4c0-1.9,2.9-1.9,2.9,0c-0.6,3.6-2.4,6.9-4.6,9.7
			C221.8,426.1,221.5,425.9,221.6,425.6L221.6,425.6L221.6,425.6z"/>
		<path class="st15" d="M234.2,411.5c-0.1,0.6-1.1,1-2.4,0.9c-1.3-0.1-2.3-0.7-2.2-1.3c0.1-0.6,1.1-1,2.4-0.9
			C233.2,410.3,234.2,410.9,234.2,411.5z"/>
		<path class="st15" d="M224.9,410.9c0.1,0.3-0.4,0.8-1.1,1.1c-0.7,0.3-1.4,0.2-1.6-0.1s0.4-0.8,1.1-1.1
			C224.1,410.5,224.8,410.6,224.9,410.9z"/>
	</g>
	<g>
		<path class="st16" d="M242.6,415.8c8-5.6,33.4-4.2,26.6,27.2C269.2,443,236.7,437.8,242.6,415.8z"/>
		<path class="st14" d="M244.3,415.2c12.5,2.4,23,13.4,24.8,26c0.1,0.9-1.1,1.2-1.4,0.4c-5.3-10.8-13.5-19-23.7-25.5
			C243.4,416,243.7,415.1,244.3,415.2L244.3,415.2L244.3,415.2z"/>
		<path class="st14" d="M267.8,429.2c-1.8-0.8-4-0.4-5.6,0.6c-1.4,0.7-2.3-1.4-0.9-2c2.3-0.8,5-0.9,7,0.6
			C268.8,428.8,268.3,429.5,267.8,429.2L267.8,429.2z"/>
		<path class="st14" d="M261.6,420.6c-2.1-0.4-4.5,0.4-5.5,2.3c-1.2,1.8-3.7-0.2-2.1-1.8c2.1-2,5.3-2.4,7.8-1.1
			C262.1,420.3,261.9,420.7,261.6,420.6L261.6,420.6L261.6,420.6z"/>
		<path class="st14" d="M254.4,416c-2-0.1-3.9,0.9-5.2,2.4c-0.3,0.4-0.9,0.5-1.4,0.1c-1.7-1.8,3.7-3.4,4.9-3.3c0.6,0,1.1,0,1.7,0.2
			c0.1,0,0.2,0.2,0.2,0.3C254.7,416,254.5,416.1,254.4,416L254.4,416L254.4,416z"/>
		<path class="st14" d="M261.5,428.9c-1.9,0.8-3.5,2.5-4.2,4.4c-1.3,1.1,0.2-3.1,0.7-3.5c0.7-1.1,1.5-2.1,2.6-2.8
			C262,426.1,263.1,428.3,261.5,428.9L261.5,428.9z"/>
		<path class="st14" d="M254.1,422.3c-2.1,0.5-3.6,2.5-3.9,4.6c0,0.1-0.2,0.2-0.3,0.2s-0.2-0.1-0.2-0.2c-0.1-0.6-0.1-1.3-0.1-2
			c0.2-2.3,1.7-4.4,3.8-5.5C255.6,418.4,256.7,422.1,254.1,422.3L254.1,422.3L254.1,422.3z"/>
		<path class="st14" d="M248.3,418.1c-1.5,1.1-2.2,3.1-2.4,4.9c0,0.3-0.5,0.3-0.5,0c-0.3-1.6-0.2-3.4,0.5-4.9c0.2-0.6,0.5-1.1,1-1.7
			C248.2,415.2,249.8,417.2,248.3,418.1L248.3,418.1L248.3,418.1z"/>
		<path class="st15" d="M265.8,422.7c0.9,1.2,1.2,2.6,0.6,3.1c-0.6,0.5-1.9-0.2-2.8-1.4c-0.9-1.2-1.2-2.6-0.6-3.1
			C263.6,420.8,264.8,421.5,265.8,422.7L265.8,422.7z"/>
		<path class="st15" d="M259,416.8c0.6,0.4,0.7,1.2,0.4,1.7c-0.4,0.5-1.1,0.5-1.7,0.1s-0.7-1.2-0.4-1.7
			C257.7,416.4,258.5,416.4,259,416.8z"/>
		<path class="st17" d="M243.3,415.9c0,0-1.9-3.1-6.3-4.6"/>
	</g>
	<g>
		<circle class="st18" cx="247.3" cy="403.2" r="6.6"/>
		<path class="st19" d="M251.3,399.6c-0.2,0.3-0.9,0.2-1.6-0.2s-1-1.1-0.8-1.4s0.9-0.2,1.6,0.2C251.2,398.6,251.6,399.3,251.3,399.6
			z"/>
		<path class="st20" d="M246.2,399.2c-0.6,0.2-1.2,0-1.4-0.4s0.3-0.9,0.9-1.1c0.6-0.2,1.2,0,1.4,0.4
			C247.2,398.5,246.8,399,246.2,399.2z"/>
	</g>
	<g>
		<circle class="st21" cx="238.5" cy="404.9" r="6.6"/>
		<path class="st19" d="M240.2,399.8c0,0.4-0.7,0.7-1.5,0.6c-0.8,0-1.4-0.4-1.4-0.8s0.7-0.7,1.5-0.6
			C239.6,399,240.2,399.4,240.2,399.8z"/>
		<path class="st20" d="M235.5,402c-0.5,0.5-1.1,0.6-1.4,0.3c-0.3-0.3-0.2-0.9,0.3-1.4s1.1-0.6,1.4-0.3S236,401.5,235.5,402z"/>
	</g>
	<g>
		<circle class="st21" cx="254.8" cy="409.3" r="6.6"/>
		<path class="st19" d="M256.5,404.2c0,0.4-0.7,0.7-1.5,0.6c-0.8,0-1.4-0.4-1.4-0.8s0.7-0.7,1.5-0.6
			C255.9,403.4,256.6,403.8,256.5,404.2z"/>
		<path class="st20" d="M251.9,406.4c-0.5,0.5-1.1,0.6-1.4,0.3c-0.3-0.3-0.2-0.9,0.3-1.4s1.1-0.6,1.4-0.3S252.3,405.9,251.9,406.4z"
			/>
	</g>
	<g>
		<circle class="st22" cx="248" cy="412.5" r="6.6"/>
		<path class="st19" d="M253.5,413c-0.4,0.1-0.8-0.5-1-1.3c-0.1-0.8,0.1-1.5,0.4-1.5c0.4-0.1,0.8,0.5,1,1.3
			C254,412.2,253.8,412.9,253.5,413z"/>
		<path class="st23" d="M250.2,408.9c-0.6-0.3-0.8-0.9-0.6-1.3s0.9-0.4,1.4-0.1c0.6,0.3,0.8,0.9,0.6,1.3S250.7,409.3,250.2,408.9z"
			/>
	</g>
	<g>
		<path class="st18" d="M242.9,409c3.3,1.6,4.7,5.5,3.1,8.8c-1.6,3.3-5.5,4.7-8.8,3.1s-4.7-5.5-3.1-8.8
			C235.7,408.8,239.7,407.4,242.9,409z"/>
		<path class="st19" d="M236,411.3c0.4,0.2,0.4,0.9,0,1.6s-0.9,1.1-1.3,1c-0.4-0.2-0.4-0.9,0-1.6S235.6,411.2,236,411.3z"/>
		<path class="st20" d="M236.3,416.5c0.3,0.6,0.1,1.2-0.2,1.4s-0.9-0.2-1.2-0.8c-0.3-0.6-0.1-1.2,0.2-1.4
			C235.4,415.5,236,415.9,236.3,416.5z"/>
	</g>
</g>
<g>
	<g>
		<path class="st12" d="M195.2,704.9c0,0-32.7,1.7-24.9,38.7C170.3,743.6,197.6,736.4,195.2,704.9z"/>
		<path class="st13" d="M204.8,701.6c0,0-6-1.8-10.2,3.9"/>
		<path class="st14" d="M171,740.4c1.1-14,10.5-27.7,22.7-34.6c0.5-0.3,1,0.4,0.6,0.8c-4.5,5.3-8.8,10.4-12.6,16.1
			c-3.7,5.6-7,11.5-10.1,17.8C171.5,740.8,170.9,740.7,171,740.4L171,740.4L171,740.4z"/>
		<path class="st14" d="M170.9,726.8c1.9-0.6,4.2-1,6.1,0c1,0.7-0.1,2.2-1.1,1.4c-1.4-1-3.3-1-5-1.1
			C170.8,727.1,170.7,726.9,170.9,726.8L170.9,726.8L170.9,726.8z"/>
		<path class="st14" d="M177.9,714.2c1.3-0.4,8.5-1.1,7.7,1.4c-0.2,0.4-0.7,0.6-1.2,0.4c-1.8-1.1-4.4-1.4-6.5-1.5
			C177.7,714.5,177.7,714.2,177.9,714.2L177.9,714.2L177.9,714.2z"/>
		<path class="st14" d="M173.1,719.5c2.6-0.8,5.2-1.2,8-0.9c0.8,0.1,1.4,0.8,1.3,1.6c-0.1,0.8-0.8,1.4-1.6,1.3
			c-2.4-0.9-5-1.5-7.6-1.5C172.9,720,172.9,719.6,173.1,719.5L173.1,719.5L173.1,719.5z"/>
		<path class="st14" d="M179.1,733.9c-1.1-1.7-2.2-3.5-3.5-5c-0.3-0.4-0.3-0.9,0.1-1.2c1.5-1,2.2,2.3,2.7,3.1c0.4,1,0.7,2,1,3
			C179.5,733.9,179.2,734,179.1,733.9L179.1,733.9L179.1,733.9z"/>
		<path class="st14" d="M190,721.5c-1.2-2.6-2.6-5-4.6-7c-0.8-0.9,0.6-2.1,1.3-1.2c1.9,2.4,3,5.2,3.6,8.1
			C190.4,721.6,190.1,721.7,190,721.5L190,721.5L190,721.5z"/>
		<path class="st14" d="M184.3,729.1c-0.8-3.2-2.1-6.2-4.1-8.7c-1.2-1.5,1.1-3.3,2.3-1.8c1.7,3.2,2.3,6.9,2.3,10.5
			C184.8,729.3,184.3,729.4,184.3,729.1L184.3,729.1L184.3,729.1z"/>
		<path class="st15" d="M185.5,710.2c0.3,0.5-0.3,1.5-1.4,2.2s-2.2,0.9-2.6,0.4s0.3-1.5,1.4-2.2C184,709.9,185.2,709.7,185.5,710.2z
			"/>
		<path class="st15" d="M177.9,715.4c0.3,0.2,0.2,0.9-0.2,1.5c-0.4,0.7-1,1-1.3,0.8c-0.3-0.2-0.2-0.9,0.2-1.5
			C176.9,715.6,177.6,715.2,177.9,715.4z"/>
	</g>
	<g>
		<path class="st16" d="M194.8,708.5c2.9-9.3,23.8-23.9,37.8,5.1C232.5,713.5,203.7,729.4,194.8,708.5L194.8,708.5z"/>
		<path class="st14" d="M195.7,706.9c11.3-5.8,26.4-3.6,35.6,5.3c0.6,0.6-0.1,1.6-0.9,1.2c-10.8-5.3-22.3-6.7-34.3-5.5
			C195.5,708,195.2,707.2,195.7,706.9L195.7,706.9L195.7,706.9z"/>
		<path class="st14" d="M222.9,703.5c-1.9,0.4-3.4,2.1-4.1,3.9c-0.6,1.4-2.7,0.3-1.9-1c1.3-2.1,3.4-3.8,5.9-3.9
			C223.4,702.6,223.4,703.4,222.9,703.5L222.9,703.5z"/>
		<path class="st14" d="M212.7,700.5c-1.9,1-3.3,3.1-2.9,5.2c0.2,2.2-3.1,2.1-2.8-0.1c0.3-2.2,1.7-4.1,3.7-5
			c0.6-0.3,1.2-0.5,1.9-0.6c0.1,0,0.3,0.1,0.3,0.2C212.9,700.4,212.8,700.5,212.7,700.5L212.7,700.5L212.7,700.5z"/>
		<path class="st14" d="M204.2,701.4c-1.6,1.2-2.5,3.2-2.6,5.1c0,0.5-0.5,1-1,0.9c-2.5-0.4,0.8-5,1.9-5.6c0.4-0.4,0.9-0.7,1.5-0.9
			c0.1-0.1,0.3,0,0.4,0.1C204.4,701.1,204.3,701.3,204.2,701.4L204.2,701.4z"/>
		<path class="st14" d="M217.7,707.1c-1.1,1.8-1.2,4.1-0.6,6.1c0.1,0.3-0.4,0.5-0.5,0.2c-1.2-2.2-1.6-4.8-0.9-7.3
			C216.4,704.6,218.6,705.7,217.7,707.1L217.7,707.1L217.7,707.1z"/>
		<path class="st14" d="M207.9,706.5c-1.4,1.7-1.4,4.2-0.3,6.1c0.1,0.3-0.2,0.5-0.4,0.3c-2.2-2-2.9-5.4-1.7-8.1
			C206.6,702.4,209.7,704.7,207.9,706.5L207.9,706.5L207.9,706.5z"/>
		<path class="st14" d="M200.7,706.7c-0.5,1.7,0.2,3.8,1.1,5.3c0.1,0.1,0.1,0.3-0.1,0.4c-0.1,0.1-0.2,0-0.3,0
			c-1.7-1.6-2.9-3.7-2.8-6.1C198.7,704.5,201.3,705.1,200.7,706.7L200.7,706.7L200.7,706.7z"/>
		<path class="st15" d="M217.3,699.7c1.5,0.4,2.5,1.3,2.3,2.1c-0.2,0.7-1.6,1-3,0.6c-1.5-0.4-2.5-1.3-2.3-2.1
			C214.4,699.5,215.8,699.2,217.3,699.7z"/>
		<path class="st15" d="M208.4,699.1c0.7,0,1.3,0.5,1.3,1.1s-0.6,1.1-1.3,1.1s-1.3-0.5-1.3-1.1C207.1,699.6,207.6,699.1,208.4,699.1
			z"/>
		<path class="st17" d="M195.4,708.1c0,0-3.4-1.2-7.8,0.2"/>
	</g>
	<g>
		<circle class="st18" cx="190.7" cy="695.6" r="6.6"/>
		<path class="st19" d="M191.7,690.3c0,0.4-0.6,0.8-1.4,0.8s-1.4-0.2-1.5-0.6c0-0.4,0.6-0.8,1.4-0.8S191.7,689.9,191.7,690.3z"/>
		<path class="st20" d="M187.4,693.1c-0.4,0.5-1,0.8-1.3,0.5c-0.3-0.3-0.3-0.9,0.1-1.4s1-0.8,1.3-0.5S187.8,692.6,187.4,693.1z"/>
	</g>
	<g>
		<circle class="st21" cx="184.8" cy="702.4" r="6.6"/>
		<path class="st19" d="M183,697.3c0.2,0.3-0.1,1-0.8,1.4c-0.6,0.5-1.4,0.6-1.6,0.2c-0.2-0.3,0.1-1,0.8-1.4
			C182.1,697.1,182.8,697,183,697.3z"/>
		<path class="st20" d="M180.7,701.9c-0.1,0.6-0.5,1.1-0.9,1.1s-0.7-0.6-0.6-1.3s0.5-1.1,0.9-1.1
			C180.5,700.7,180.8,701.3,180.7,701.9z"/>
	</g>
	<g>
		<circle class="st21" cx="200.5" cy="695.8" r="6.6"/>
		<path class="st19" d="M198.6,690.7c0.2,0.3-0.1,1-0.8,1.4c-0.6,0.5-1.4,0.6-1.6,0.2c-0.2-0.3,0.1-1,0.8-1.4
			S198.4,690.3,198.6,690.7z"/>
		<path class="st20" d="M196.3,695.3c-0.1,0.6-0.5,1.1-0.9,1.1s-0.7-0.6-0.6-1.3c0.1-0.7,0.5-1.1,0.9-1.1
			C196.1,694.1,196.4,694.7,196.3,695.3z"/>
	</g>
	<g>
		<circle class="st22" cx="197" cy="702.5" r="6.6"/>
		<path class="st19" d="M201.6,699.5c-0.3,0.3-0.9,0.1-1.5-0.4s-0.9-1.2-0.6-1.5c0.3-0.3,0.9-0.1,1.5,0.4S201.8,699.2,201.6,699.5z"
			/>
		<path class="st23" d="M196.5,698.4c-0.6,0.1-1.2-0.2-1.3-0.6s0.4-0.8,1.1-0.9c0.6-0.1,1.2,0.2,1.3,0.6
			C197.7,697.9,197.2,698.3,196.5,698.4z"/>
	</g>
	<g>
		<path class="st18" d="M190.8,702.8c3.6-0.8,7.1,1.5,7.8,5c0.8,3.5-1.5,7.1-5,7.8c-3.6,0.8-7.1-1.5-7.8-5
			C185,707.1,187.3,703.6,190.8,702.8z"/>
		<path class="st19" d="M186.8,709c0.4-0.1,0.8,0.5,1,1.2s0,1.5-0.4,1.5c-0.4,0.1-0.8-0.5-1-1.2S186.4,709.1,186.8,709z"/>
		<path class="st20" d="M190.2,712.9c0.6,0.3,0.9,0.9,0.7,1.3c-0.2,0.4-0.8,0.4-1.4,0.1s-0.9-0.9-0.7-1.3S189.6,712.6,190.2,712.9z"
			/>
	</g>
</g>
<g>
	<g>
		<path class="st12" d="M212,588.5c0,0-26.9-18.8-43.4,15.2C168.6,603.7,194.5,614.8,212,588.5z"/>
		<path class="st13" d="M221.5,591.8c0,0-3.6-5.1-10.5-3.2"/>
		<path class="st14" d="M171.1,601.5c9.5-10.4,25.4-15.4,39.2-13.3c0.6,0.1,0.6,0.9,0,1c-6.8,1.4-13.3,2.8-19.8,5
			c-6.4,2.1-12.6,4.8-18.9,7.8C171.2,602.2,170.8,601.8,171.1,601.5L171.1,601.5L171.1,601.5z"/>
		<path class="st14" d="M179.3,590.8c1.9,0.7,3.9,1.8,4.8,3.8c0.4,1.1-1.3,1.7-1.7,0.6c-0.4-1.7-1.9-3-3.2-4.1
			C179,591,179.2,590.8,179.3,590.8L179.3,590.8L179.3,590.8z"/>
		<path class="st14" d="M192.6,585.1c1.3,0.5,7.4,4.4,5.2,5.9c-0.4,0.2-1,0-1.2-0.4c-0.7-2-2.6-3.8-4.2-5.2
			C192.3,585.3,192.4,585.1,192.6,585.1L192.6,585.1L192.6,585.1z"/>
		<path class="st14" d="M185.6,586.5c2.5,1,4.9,2.2,6.9,4.2c1.5,1.6-1.2,3.7-2.3,1.7c-1.1-2.1-2.9-4-4.8-5.5
			C185.2,586.7,185.4,586.4,185.6,586.5L185.6,586.5L185.6,586.5z"/>
		<path class="st14" d="M181.5,601.4c0.2-2,0.4-4.1,0.3-6.1c0-0.5,0.4-0.9,0.8-0.9c1.8,0.1,0.4,3.2,0.2,4.1c-0.3,1-0.7,2-1.1,3
			C181.7,601.7,181.5,601.6,181.5,601.4L181.5,601.4L181.5,601.4z"/>
		<path class="st14" d="M197.7,598.4c0.7-2.7,1-5.6,0.7-8.4c-0.1-1.1,1.6-1.3,1.8-0.2c0,3-0.8,6-2.1,8.6
			C197.9,598.7,197.7,598.5,197.7,598.4L197.7,598.4L197.7,598.4z"/>
		<path class="st14" d="M188.5,600.9c1.3-3,2.1-6.2,2.1-9.5c0-1.9,2.9-1.9,2.9,0c-0.6,3.6-2.4,6.9-4.6,9.7
			C188.7,601.3,188.4,601.1,188.5,600.9L188.5,600.9L188.5,600.9z"/>
		<path class="st15" d="M201.1,586.7c-0.1,0.6-1.1,1-2.4,0.9c-1.3-0.1-2.3-0.7-2.2-1.3s1.1-1,2.4-0.9
			C200.1,585.5,201.1,586.1,201.1,586.7z"/>
		<path class="st15" d="M191.8,586.1c0.1,0.3-0.4,0.8-1.1,1.1c-0.7,0.3-1.4,0.2-1.6-0.1c-0.2-0.3,0.4-0.8,1.1-1.1
			C191,585.7,191.7,585.8,191.8,586.1z"/>
	</g>
	<g>
		<path class="st16" d="M209.5,591c8-5.5,33.4-4.2,26.7,27.2C236.1,618.2,203.6,613,209.5,591L209.5,591z"/>
		<path class="st14" d="M211.2,590.4c12.5,2.4,23,13.5,24.8,26c0.1,0.9-1.1,1.2-1.5,0.4c-5.3-10.8-13.5-19-23.7-25.5
			C210.3,591.2,210.6,590.3,211.2,590.4L211.2,590.4L211.2,590.4z"/>
		<path class="st14" d="M234.7,604.4c-1.8-0.8-4-0.4-5.6,0.6c-1.4,0.7-2.3-1.4-0.9-2c2.3-0.8,5-0.9,7,0.6
			C235.7,604,235.2,604.7,234.7,604.4L234.7,604.4L234.7,604.4z"/>
		<path class="st14" d="M228.5,595.8c-2.1-0.4-4.5,0.4-5.5,2.3c-1.2,1.8-3.7-0.2-2.1-1.8c2.1-2,5.3-2.4,7.8-1.1
			C229,595.5,228.8,595.9,228.5,595.8L228.5,595.8L228.5,595.8z"/>
		<path class="st14" d="M221.3,591.2c-2,0-3.9,0.9-5.2,2.5c-0.3,0.4-0.9,0.5-1.4,0.1c-1.7-1.8,3.7-3.4,4.9-3.3c0.6,0,1.1,0,1.7,0.2
			c0.1,0,0.2,0.2,0.2,0.3C221.5,591.2,221.4,591.3,221.3,591.2L221.3,591.2L221.3,591.2z"/>
		<path class="st14" d="M228.4,604.1c-1.9,0.8-3.5,2.5-4.2,4.4c-1.3,1.1,0.2-3.1,0.7-3.5c0.7-1.1,1.5-2,2.6-2.8
			C228.8,601.3,229.9,603.5,228.4,604.1L228.4,604.1z"/>
		<path class="st14" d="M221,597.5c-2.1,0.5-3.6,2.5-3.9,4.6c0,0.1-0.2,0.2-0.3,0.2s-0.2-0.1-0.2-0.2c-0.1-0.6-0.1-1.3-0.1-2
			c0.2-2.3,1.7-4.4,3.8-5.5C222.5,593.6,223.5,597.3,221,597.5L221,597.5L221,597.5z"/>
		<path class="st14" d="M215.2,593.3c-1.5,1.1-2.2,3.1-2.4,4.9c0,0.3-0.5,0.3-0.5,0c-0.3-1.6-0.2-3.4,0.5-4.9c0.2-0.6,0.5-1.1,1-1.7
			C215,590.4,216.7,592.4,215.2,593.3L215.2,593.3L215.2,593.3z"/>
		<path class="st15" d="M232.6,597.9c0.9,1.2,1.2,2.6,0.5,3c-0.6,0.5-1.9-0.2-2.8-1.4c-0.9-1.2-1.2-2.6-0.6-3
			S231.7,596.7,232.6,597.9L232.6,597.9z"/>
		<path class="st15" d="M225.9,592c0.6,0.4,0.7,1.2,0.4,1.7c-0.4,0.5-1.1,0.5-1.7,0.1c-0.6-0.4-0.7-1.2-0.4-1.7
			C224.6,591.6,225.4,591.6,225.9,592z"/>
		<path class="st17" d="M210.2,591.1c0,0-1.9-3.1-6.3-4.6"/>
	</g>
	<g>
		<circle class="st18" cx="214.2" cy="578.4" r="6.6"/>
		<path class="st19" d="M218.2,574.8c-0.2,0.3-0.9,0.2-1.6-0.2s-1-1-0.8-1.4c0.2-0.3,0.9-0.2,1.6,0.2S218.4,574.5,218.2,574.8z"/>
		<path class="st20" d="M213.1,574.4c-0.6,0.2-1.2,0-1.4-0.4s0.3-0.9,0.9-1.1c0.6-0.2,1.2,0,1.4,0.4
			C214.1,573.7,213.7,574.2,213.1,574.4z"/>
	</g>
	<g>
		<circle class="st21" cx="205.4" cy="580.1" r="6.6"/>
		<path class="st19" d="M207.1,575c0,0.4-0.7,0.7-1.5,0.6c-0.8,0-1.4-0.4-1.4-0.8c0-0.4,0.7-0.7,1.5-0.6
			C206.5,574.2,207.1,574.6,207.1,575z"/>
		<path class="st20" d="M202.4,577.2c-0.5,0.5-1.1,0.6-1.4,0.3c-0.3-0.3-0.2-0.9,0.3-1.4s1.1-0.6,1.4-0.3
			C203,576.1,202.8,576.8,202.4,577.2z"/>
	</g>
	<g>
		<circle class="st21" cx="221.7" cy="584.5" r="6.6"/>
		<path class="st19" d="M223.4,579.4c0,0.4-0.7,0.7-1.5,0.6c-0.8,0-1.4-0.4-1.4-0.8s0.7-0.7,1.5-0.6
			C222.8,578.6,223.4,579,223.4,579.4z"/>
		<path class="st20" d="M218.8,581.6c-0.5,0.5-1.1,0.6-1.4,0.3c-0.3-0.3-0.2-0.9,0.3-1.4s1.1-0.6,1.4-0.3
			C219.3,580.5,219.2,581.1,218.8,581.6z"/>
	</g>
	<g>
		<circle class="st22" cx="214.9" cy="587.7" r="6.6"/>
		<path class="st19" d="M220.3,588.1c-0.4,0.1-0.8-0.5-1-1.3c-0.1-0.8,0.1-1.5,0.4-1.5c0.4-0.1,0.8,0.5,1,1.3
			C220.9,587.4,220.7,588.1,220.3,588.1z"/>
		<path class="st23" d="M217.1,584.1c-0.6-0.3-0.8-0.9-0.6-1.3c0.2-0.4,0.9-0.4,1.4-0.1c0.6,0.3,0.8,0.9,0.6,1.3
			C218.2,584.4,217.6,584.5,217.1,584.1z"/>
	</g>
	<g>
		<path class="st18" d="M209.8,584.2c3.3,1.6,4.7,5.5,3.1,8.8c-1.6,3.3-5.5,4.7-8.8,3.1c-3.3-1.6-4.7-5.5-3.1-8.8
			C202.6,584,206.5,582.6,209.8,584.2z"/>
		<path class="st19" d="M202.9,586.6c0.4,0.2,0.4,0.9,0,1.6s-0.9,1.1-1.3,1c-0.4-0.2-0.4-0.9,0-1.6
			C202,586.9,202.5,586.4,202.9,586.6z"/>
		<path class="st20" d="M203.1,591.7c0.3,0.6,0.1,1.2-0.2,1.4c-0.4,0.2-0.9-0.2-1.2-0.8s-0.1-1.2,0.2-1.4
			C202.3,590.8,202.9,591.1,203.1,591.7z"/>
	</g>
</g>
<g>
	<g>
		<path class="st12" d="M137.9,647.7c0,0-26.9-18.8-43.4,15.2C94.5,662.9,120.4,674,137.9,647.7z"/>
		<path class="st13" d="M147.4,651c0,0-3.6-5.1-10.5-3.2"/>
		<path class="st14" d="M97,660.8c9.5-10.4,25.4-15.4,39.2-13.3c0.6,0.1,0.6,0.9,0,1c-6.8,1.4-13.3,2.8-19.8,5
			c-6.4,2.1-12.6,4.8-18.9,7.8C97.1,661.4,96.7,661,97,660.8L97,660.8L97,660.8z"/>
		<path class="st14" d="M105.2,650c1.9,0.7,3.9,1.8,4.8,3.8c0.4,1.1-1.3,1.7-1.7,0.6c-0.4-1.7-1.9-3-3.2-4.1
			C105,650.2,105.1,650,105.2,650L105.2,650L105.2,650z"/>
		<path class="st14" d="M118.5,644.4c1.3,0.5,7.4,4.4,5.2,5.9c-0.4,0.2-1,0-1.2-0.4c-0.7-2-2.6-3.8-4.2-5.2
			C118.2,644.5,118.4,644.3,118.5,644.4L118.5,644.4L118.5,644.4z"/>
		<path class="st14" d="M111.5,645.7c2.5,1,4.9,2.2,6.9,4.2c1.5,1.6-1.2,3.7-2.3,1.7c-1.1-2.1-2.9-4-4.8-5.5
			C111.1,645.9,111.3,645.6,111.5,645.7L111.5,645.7L111.5,645.7z"/>
		<path class="st14" d="M107.4,660.6c0.2-2,0.4-4.1,0.3-6.1c0-0.5,0.4-0.9,0.8-0.9c1.8,0.1,0.4,3.2,0.2,4.1c-0.3,1-0.7,2-1.1,3
			C107.7,660.9,107.4,660.8,107.4,660.6L107.4,660.6L107.4,660.6z"/>
		<path class="st14" d="M123.6,657.6c0.7-2.7,1-5.6,0.7-8.4c-0.1-1.1,1.6-1.3,1.8-0.2c0,3-0.8,6-2.1,8.6
			C123.9,657.9,123.6,657.8,123.6,657.6L123.6,657.6L123.6,657.6z"/>
		<path class="st14" d="M114.4,660.1c1.3-3,2.1-6.2,2.1-9.5c0-1.9,2.9-1.9,2.9,0c-0.6,3.6-2.4,6.9-4.6,9.7
			C114.6,660.5,114.3,660.3,114.4,660.1L114.4,660.1L114.4,660.1z"/>
		<path class="st15" d="M127,645.9c-0.1,0.6-1.1,1-2.4,0.9s-2.3-0.7-2.2-1.3s1.1-1,2.4-0.9C126,644.7,127,645.3,127,645.9z"/>
		<path class="st15" d="M117.7,645.3c0.1,0.3-0.4,0.8-1.1,1.1c-0.7,0.3-1.4,0.2-1.6-0.1s0.4-0.8,1.1-1.1
			C116.9,644.9,117.6,645,117.7,645.3z"/>
	</g>
	<g>
		<path class="st16" d="M135.4,650.2c8-5.5,33.4-4.2,26.6,27.2C162,677.4,129.5,672.2,135.4,650.2z"/>
		<path class="st14" d="M137.1,649.6c12.5,2.4,23,13.5,24.8,26c0.1,0.9-1.1,1.2-1.4,0.4c-5.3-10.8-13.5-19-23.7-25.5
			C136.2,650.4,136.5,649.5,137.1,649.6L137.1,649.6L137.1,649.6z"/>
		<path class="st14" d="M160.6,663.6c-1.8-0.8-4-0.4-5.6,0.6c-1.4,0.7-2.3-1.4-0.9-2c2.3-0.8,5-0.9,7,0.6
			C161.6,663.2,161.1,663.9,160.6,663.6L160.6,663.6L160.6,663.6z"/>
		<path class="st14" d="M154.4,655c-2.1-0.4-4.5,0.4-5.5,2.3c-1.2,1.8-3.7-0.2-2.1-1.8c2.1-2,5.3-2.4,7.8-1.1
			C154.9,654.7,154.7,655.1,154.4,655L154.4,655L154.4,655z"/>
		<path class="st14" d="M147.2,650.5c-2,0-3.9,0.9-5.2,2.5c-0.3,0.4-0.9,0.5-1.4,0.1c-1.7-1.8,3.7-3.4,4.9-3.3c0.6,0,1.1,0,1.7,0.2
			c0.1,0,0.2,0.2,0.2,0.3C147.5,650.4,147.3,650.5,147.2,650.5L147.2,650.5L147.2,650.5z"/>
		<path class="st14" d="M154.3,663.3c-1.9,0.8-3.5,2.5-4.2,4.4c-1.3,1.1,0.2-3.1,0.7-3.5c0.7-1.1,1.5-2,2.6-2.8
			C154.7,660.5,155.8,662.7,154.3,663.3L154.3,663.3z"/>
		<path class="st14" d="M146.9,656.7c-2.1,0.5-3.6,2.5-3.9,4.6c0,0.1-0.2,0.2-0.3,0.2s-0.2-0.1-0.2-0.2c-0.1-0.6-0.1-1.3-0.1-2
			c0.2-2.3,1.7-4.4,3.8-5.5C148.4,652.8,149.4,656.5,146.9,656.7L146.9,656.7L146.9,656.7z"/>
		<path class="st14" d="M141.1,652.5c-1.5,1.1-2.2,3.1-2.4,4.9c0,0.3-0.5,0.3-0.5,0c-0.3-1.6-0.2-3.4,0.5-4.9c0.2-0.6,0.5-1.1,1-1.7
			C141,649.6,142.6,651.6,141.1,652.5L141.1,652.5L141.1,652.5z"/>
		<path class="st15" d="M158.5,657.1c0.9,1.2,1.2,2.6,0.6,3c-0.6,0.4-1.9-0.2-2.8-1.4c-0.9-1.2-1.2-2.6-0.6-3
			S157.6,655.9,158.5,657.1L158.5,657.1z"/>
		<path class="st15" d="M151.8,651.2c0.6,0.4,0.7,1.2,0.4,1.7c-0.4,0.5-1.1,0.5-1.7,0.1c-0.6-0.4-0.7-1.2-0.4-1.7
			C150.5,650.8,151.3,650.8,151.8,651.2z"/>
		<path class="st17" d="M136.1,650.3c0,0-1.9-3.1-6.3-4.6"/>
	</g>
	<g>
		<circle class="st18" cx="140.1" cy="637.6" r="6.6"/>
		<path class="st19" d="M144.1,634c-0.2,0.3-0.9,0.2-1.6-0.2s-1-1-0.8-1.4c0.2-0.3,0.9-0.2,1.6,0.2S144.4,633.7,144.1,634z"/>
		<path class="st20" d="M139,633.6c-0.6,0.2-1.2,0-1.4-0.4s0.3-0.9,0.9-1.1c0.6-0.2,1.2,0,1.4,0.4C140,632.9,139.6,633.4,139,633.6z
			"/>
	</g>
	<g>
		<circle class="st21" cx="131.3" cy="639.4" r="6.6"/>
		<path class="st19" d="M133,634.2c0,0.4-0.7,0.7-1.5,0.6c-0.8,0-1.4-0.4-1.4-0.8c0-0.4,0.7-0.7,1.5-0.6
			C132.4,633.5,133,633.8,133,634.2z"/>
		<path class="st20" d="M128.3,636.4c-0.5,0.5-1.1,0.6-1.4,0.3c-0.3-0.3-0.2-0.9,0.3-1.4s1.1-0.6,1.4-0.3
			C128.9,635.3,128.7,636,128.3,636.4z"/>
	</g>
	<g>
		<circle class="st21" cx="147.6" cy="643.7" r="6.6"/>
		<path class="st19" d="M149.3,638.6c0,0.4-0.7,0.7-1.5,0.6c-0.8,0-1.4-0.4-1.4-0.8s0.7-0.7,1.5-0.6
			C148.7,637.8,149.4,638.2,149.3,638.6z"/>
		<path class="st20" d="M144.7,640.8c-0.5,0.5-1.1,0.6-1.4,0.3c-0.3-0.3-0.2-0.9,0.3-1.4s1.1-0.6,1.4-0.3
			C145.2,639.7,145.1,640.3,144.7,640.8z"/>
	</g>
	<g>
		<circle class="st22" cx="140.8" cy="646.9" r="6.6"/>
		<path class="st19" d="M146.2,647.4c-0.4,0.1-0.8-0.5-1-1.3c-0.1-0.8,0.1-1.5,0.4-1.5c0.4-0.1,0.8,0.5,1,1.3
			C146.8,646.6,146.6,647.3,146.2,647.4z"/>
		<path class="st23" d="M143,643.3c-0.6-0.3-0.8-0.9-0.6-1.3s0.9-0.4,1.4-0.1c0.6,0.3,0.8,0.9,0.6,1.3
			C144.2,643.6,143.5,643.7,143,643.3z"/>
	</g>
	<g>
		<path class="st18" d="M135.7,643.4c3.3,1.6,4.7,5.5,3.1,8.8c-1.6,3.3-5.5,4.7-8.8,3.1s-4.7-5.5-3.1-8.8S132.4,641.8,135.7,643.4z"
			/>
		<path class="st19" d="M128.8,645.8c0.4,0.2,0.4,0.9,0,1.6c-0.4,0.7-0.9,1.1-1.3,1c-0.4-0.2-0.4-0.9,0-1.6S128.4,645.6,128.8,645.8
			z"/>
		<path class="st20" d="M129,651c0.3,0.6,0.1,1.2-0.2,1.4c-0.4,0.2-0.9-0.2-1.2-0.8s-0.1-1.2,0.2-1.4C128.2,650,128.8,650.4,129,651
			z"/>
	</g>
</g>
<g>
	<g>
		<g>
			<path class="st24" d="M27.5,923.1c11.3-4.4,22.4-3.6,24.7,2c2.3,5.5-5,13.6-16.3,18s-22.4,3.6-24.7-2
				C8.8,935.6,16.1,927.5,27.5,923.1z"/>
			<path class="st11" d="M17.6,938.6c-0.3-0.6,6.7-4.5,12.8-7.1c7.7-3.2,16.5-5.2,16.8-4.5C47.6,928.2,18.2,939.7,17.6,938.6z"/>
		</g>
		<g>
			<path class="st25" d="M85.4,921.4c9.1,7.9,13.1,17.8,8.9,22.3c-4.2,4.4-14.9,1.6-24-6.2s-13.1-17.8-8.9-22.3
				S76.3,913.5,85.4,921.4z"/>
			<path class="st11" d="M66.6,919.6c0.4-0.5,7.2,3.9,12.2,8c6.3,5.3,12.1,12.1,11.6,12.5C89.4,941.1,65.7,920.6,66.6,919.6
				L66.6,919.6z"/>
		</g>
		<g>
			<ellipse class="st9" cx="60.4" cy="935.3" rx="22.1" ry="10.8"/>
			<path class="st11" d="M45.2,935.3c0-0.6,8-1.8,14.7-1.9c8.4-0.2,17.4,1.2,17.3,1.9C77.1,936.6,45.3,936.6,45.2,935.3L45.2,935.3z
				"/>
		</g>
	</g>
	<g>
		<g>
			<path class="st24" d="M68.1,904.2c11.3-4.4,22.4-3.6,24.7,2c2.3,5.5-5,13.6-16.3,18s-22.4,3.6-24.7-2
				C49.5,916.7,56.8,908.6,68.1,904.2z"/>
			<path class="st11" d="M58.2,919.7c-0.3-0.6,6.7-4.5,12.8-7.1c7.7-3.2,16.5-5.2,16.8-4.5C88.3,909.3,58.8,920.9,58.2,919.7z"/>
		</g>
		<g>
			<path class="st25" d="M126,902.5c9.1,7.9,13.1,17.8,8.9,22.3c-4.1,4.4-14.9,1.6-23.9-6.2s-13.1-17.8-8.9-22.3
				C106.2,891.9,116.9,894.7,126,902.5z"/>
			<path class="st11" d="M107.2,900.7c0.4-0.5,7.2,3.9,12.2,8c6.3,5.3,12.1,12.1,11.6,12.5C130,922.2,106.4,901.7,107.2,900.7
				L107.2,900.7z"/>
		</g>
		<g>
			<ellipse class="st9" cx="101.1" cy="916.4" rx="22.1" ry="10.8"/>
			<path class="st11" d="M85.8,916.4c0-0.6,8-1.8,14.7-1.9c8.4-0.2,17.4,1.2,17.3,1.9C117.7,917.7,85.9,917.7,85.8,916.4L85.8,916.4
				z"/>
		</g>
	</g>
	<g>
		<g>
			<path class="st24" d="M43,939.1c11.3-4.4,22.4-3.6,24.7,2c2.3,5.5-5,13.6-16.3,18s-22.4,3.6-24.7-2
				C24.4,951.6,31.7,943.5,43,939.1z"/>
			<path class="st11" d="M33.1,954.6c-0.3-0.6,6.7-4.5,12.8-7.1c7.7-3.2,16.5-5.2,16.8-4.5C63.2,944.2,33.7,955.7,33.1,954.6z"/>
		</g>
		<g>
			<path class="st25" d="M100.9,937.4c9.1,7.9,13.1,17.8,8.9,22.3c-4.1,4.4-14.9,1.6-23.9-6.2s-13.1-17.8-8.9-22.3
				C81.1,926.7,91.8,929.5,100.9,937.4z"/>
			<path class="st11" d="M82.1,935.6c0.4-0.5,7.2,3.9,12.2,8c6.3,5.3,12.1,12.1,11.6,12.5C104.9,957.1,81.3,936.6,82.1,935.6
				L82.1,935.6z"/>
		</g>
		<g>
			<ellipse class="st9" cx="76" cy="951.3" rx="22.1" ry="10.8"/>
			<path class="st11" d="M60.7,951.3c0-0.6,8-1.8,14.7-1.9c8.4-0.2,17.4,1.2,17.3,1.9C92.6,952.6,60.8,952.6,60.7,951.3L60.7,951.3z
				"/>
		</g>
	</g>
	<g>
		<g>
			<path class="st24" d="M97.7,924.1c11.3-4.4,22.4-3.6,24.7,2c2.3,5.5-5,13.6-16.3,18s-22.4,3.6-24.7-2
				C79.1,936.6,86.4,928.6,97.7,924.1z"/>
			<path class="st11" d="M87.8,939.6c-0.3-0.6,6.7-4.5,12.8-7.1c7.7-3.2,16.5-5.2,16.8-4.5C117.9,929.3,88.4,940.8,87.8,939.6z"/>
		</g>
		<g>
			<path class="st25" d="M155.6,922.5c9.1,7.9,13.1,17.8,8.9,22.3c-4.1,4.4-14.9,1.6-23.9-6.2s-13.1-17.8-8.9-22.3
				C135.8,911.8,146.6,914.6,155.6,922.5z"/>
			<path class="st11" d="M136.8,920.7c0.4-0.5,7.2,3.9,12.2,8c6.3,5.3,12.1,12.1,11.6,12.5C159.6,942.2,136,921.6,136.8,920.7
				L136.8,920.7z"/>
		</g>
		<g>
			<ellipse class="st9" cx="130.7" cy="936.4" rx="22.1" ry="10.8"/>
			<path class="st11" d="M115.5,936.4c0-0.6,8-1.8,14.7-1.9c8.4-0.2,17.4,1.2,17.3,1.9C147.4,937.7,115.5,937.6,115.5,936.4
				L115.5,936.4z"/>
		</g>
	</g>
	<g>
		<g>
			<path class="st24" d="M111,938.1c12.3-4.8,24.4-3.9,26.9,2.1s-5.4,14.8-17.7,19.6s-24.4,3.9-26.9-2.1S98.7,942.9,111,938.1z"/>
			<path class="st11" d="M100.2,955c-0.3-0.6,7.3-4.9,14-7.7c8.4-3.5,18-5.6,18.2-4.9C132.9,943.7,100.9,956.2,100.2,955L100.2,955z
				"/>
		</g>
		<g>
			<path class="st25" d="M174,936.3c9.9,8.6,14.2,19.4,9.7,24.2s-16.2,1.8-26.1-6.8s-14.2-19.4-9.7-24.2S164.1,927.7,174,936.3z"/>
			<path class="st11" d="M153.5,934.3c0.5-0.5,7.8,4.2,13.3,8.8c6.9,5.7,13.1,13.1,12.6,13.7C178.3,957.7,152.6,935.4,153.5,934.3z"
				/>
		</g>
		<g>
			<ellipse class="st9" cx="146.9" cy="951.5" rx="24.1" ry="11.7"/>
			<path class="st11" d="M130.3,951.5c0-0.7,8.7-1.9,16-2c9.1-0.2,18.9,1.3,18.8,2C165,952.9,130.4,952.8,130.3,951.5z"/>
		</g>
	</g>
</g>
<g>
	<circle class="st26" cx="68.4" cy="83.3" r="67.2"/>
	<path class="st4" d="M323.2,117.9c0-10.4-33-19-74.8-19.7c1.2-1.6,1.8-3.2,1.8-5c0-10.9-25.1-19.8-56.1-19.8S138,82.2,138,93.2
		c0,3.7,3,7.2,8.1,10.2c-4.6-0.2-9.4-0.4-14.4-0.4c-32.6,0-59,5.6-59,12.5s26.4,12.5,59,12.5c7,0,27.1,2.5,49.5,5
		c0.9,7.7,24.9,13.8,54.5,13.8s51.7-5.7,54.3-12.9C310,130.3,323.2,124.5,323.2,117.9L323.2,117.9z"/>
</g>
</svg>
